<svg width="771" height="433" viewBox="0 0 771 433" fill="none" xmlns="http://www.w3.org/2000/svg">
<path d="M257.744 1.686H415.242C422.718 1.686 429.888 4.655 435.174 9.94C440.461 15.224 443.431 22.391 443.431 29.864V356.528C443.431 364.001 440.461 371.169 435.174 376.453C429.888 381.737 422.718 384.706 415.242 384.706H257.744C250.268 384.706 243.098 381.737 237.812 376.453C232.525 371.169 229.556 364.001 229.556 356.528V29.864C229.556 22.391 232.525 15.224 237.812 9.94C243.098 4.655 250.268 1.686 257.744 1.686Z" fill="black" stroke="white" stroke-width="2" stroke-linecap="round" stroke-linejoin="round"/>
<path d="M409.506 13.973H383.611V14.137C383.568 17.15 382.34 20.025 380.194 22.14C378.047 24.256 375.153 25.441 372.139 25.441H299.208C297.712 25.454 296.228 25.172 294.841 24.61C293.454 24.049 292.191 23.219 291.125 22.169C290.06 21.119 289.212 19.869 288.63 18.491C288.048 17.112 287.745 15.633 287.736 14.137V13.973H263.481C249.222 13.973 241.683 22.656 241.683 36.581V349.648C241.683 363.737 250.533 372.255 264.792 372.255H405.244C412.039 372.295 418.574 369.648 423.425 364.891C428.275 360.135 431.048 353.654 431.139 346.863V36.581C431.303 22.492 423.928 13.973 409.506 13.973Z" fill="white" stroke="black" stroke-width="2" stroke-linecap="round" stroke-linejoin="round"/>
<path d="M104.836 7.093H75.336V36.581H104.836V7.093Z" fill="black"/>
<path d="M290.358 56.404H121.553V162.234H290.358V56.404Z" fill="white" stroke="black" stroke-width="2" stroke-linecap="round" stroke-linejoin="round"/>
<path d="M732.203 100.636H582.572V188.937H732.203V100.636Z" fill="white" stroke="black" stroke-width="2" stroke-linecap="round" stroke-linejoin="round"/>
<path d="M556.514 57.714H538.486V75.735H556.514V57.714Z" stroke="black" stroke-width="2" stroke-linecap="round" stroke-linejoin="round"/>
<path d="M681.561 310.002H664.681V293.129H652.389V310.002H635.508V322.289H652.389V339.163H664.681V322.289H681.561V310.002Z" fill="white" stroke="black" stroke-width="2" stroke-linecap="round" stroke-linejoin="round"/>
<path d="M290.358 56.404H121.553V79.175H290.358V56.404Z" fill="white" stroke="black" stroke-width="2" stroke-linecap="round" stroke-linejoin="round"/>
<path d="M303.797 14.465H343.786" stroke="white" stroke-width="2" stroke-miterlimit="10"/>
<path d="M342.311 52.144H410.161" stroke="black" stroke-width="2" stroke-linecap="round" stroke-linejoin="round"/>
<path d="M342.311 74.424H410.161" stroke="black" stroke-width="2" stroke-linecap="round" stroke-linejoin="round"/>
<path d="M427.369 431.396C509.737 431.396 576.508 364.65 576.508 282.316C576.508 199.982 509.737 133.237 427.369 133.237C345.002 133.237 278.231 199.982 278.231 282.316C278.231 364.65 345.002 431.396 427.369 431.396Z" fill="white" stroke="black" stroke-width="2" stroke-linecap="round" stroke-linejoin="round"/>
<path d="M1.258 356.201H229.556" stroke="black" stroke-width="2" stroke-linecap="round" stroke-linejoin="round"/>
<path d="M133.844 70.656C135.655 70.656 137.122 69.189 137.122 67.38C137.122 65.57 135.655 64.103 133.844 64.103C132.034 64.103 130.567 65.57 130.567 67.38C130.567 69.189 132.034 70.656 133.844 70.656Z" fill="white" stroke="black" stroke-width="2" stroke-linecap="round" stroke-linejoin="round"/>
<path d="M162.525 109.646H141.547V151.585H162.525V109.646Z" fill="white" stroke="black" stroke-width="2" stroke-linecap="round" stroke-linejoin="round"/>
<path d="M183.503 89.168H162.525V151.585H183.503V89.168Z" fill="white" stroke="black" stroke-width="2" stroke-linecap="round" stroke-linejoin="round"/>
<path d="M204.317 96.704H183.339V151.585H204.317V96.704Z" fill="white" stroke="black" stroke-width="2" stroke-linecap="round" stroke-linejoin="round"/>
<path d="M225.294 125.046H204.317V151.585H225.294V125.046Z" fill="white" stroke="black" stroke-width="2" stroke-linecap="round" stroke-linejoin="round"/>
<path d="M246.272 103.912H225.294V151.585H246.272V103.912Z" fill="black" stroke="black" stroke-width="2" stroke-linecap="round" stroke-linejoin="round"/>
<path d="M267.086 89.168H246.108V151.585H267.086V89.168Z" fill="white" stroke="black" stroke-width="2" stroke-linecap="round" stroke-linejoin="round"/>
<path d="M102.869 219.08L108.442 233.661L127.125 225.797C123.047 215.733 118.226 205.986 112.703 196.636C106.184 186.084 99.071 175.91 91.397 166.165C93.828 163.963 95.78 161.286 97.133 158.299C98.487 155.312 99.212 152.079 99.264 148.8C99.1 138.151 87.956 139.134 81.564 144.704C75.172 150.274 72.55 160.759 73.369 169.933C74.189 179.107 82.383 172.554 81.892 173.046L83.531 232.186" fill="white"/>
<path d="M102.869 219.08L108.442 233.661L127.125 225.797C123.047 215.733 118.226 205.986 112.703 196.636C106.184 186.084 99.071 175.91 91.397 166.165C93.828 163.963 95.78 161.286 97.133 158.299C98.487 155.312 99.212 152.079 99.264 148.8C99.1 138.151 87.956 139.134 81.564 144.704C75.172 150.274 72.55 160.759 73.369 169.933C74.189 179.107 82.383 172.554 81.892 173.046L83.531 232.186" stroke="black" stroke-width="2" stroke-linecap="round" stroke-linejoin="round"/>
<path d="M82.547 189.428L100.739 179.107" stroke="black" stroke-width="2" stroke-linecap="round" stroke-linejoin="round"/>
<path d="M125.65 226.452C125.65 226.452 128.928 236.773 127.781 242.179C126.633 247.586 121.717 251.517 113.686 252.173C105.656 252.828 68.289 242.343 68.289 242.343C68.289 242.343 55.506 239.231 53.211 234.644C52.95 234.097 52.907 233.471 53.089 232.894C53.272 232.316 53.667 231.829 54.194 231.531C54.599 231.324 55.063 231.266 55.506 231.367C59.275 232.022 66.486 233.005 66.486 233.005C66.486 233.005 60.914 231.695 61.406 230.057C61.897 228.418 71.894 232.186 71.894 232.186L108.278 233.988" stroke="black" stroke-width="2" stroke-linecap="round" stroke-linejoin="round"/>
<path d="M60.258 261.838C60.258 261.838 45.508 263.313 43.542 269.702C40.919 278.057 48.131 340.474 48.131 340.474C48.131 340.474 28.3 348.992 27.317 349.812C26.333 350.631 26.661 356.201 26.661 356.201H63.864L62.717 340.31C62.717 340.31 66.65 312.787 65.339 301.647C64.881 295.943 63.668 290.324 61.733 284.937L66.486 283.627" fill="white"/>
<path d="M60.258 261.838C60.258 261.838 45.508 263.313 43.542 269.702C40.919 278.057 48.131 340.474 48.131 340.474C48.131 340.474 28.3 348.992 27.317 349.812C26.333 350.631 26.661 356.201 26.661 356.201H63.864L62.717 340.31C62.717 340.31 66.65 312.787 65.339 301.647C64.881 295.943 63.668 290.324 61.733 284.937L66.486 283.627" stroke="black" stroke-width="2" stroke-linecap="round" stroke-linejoin="round"/>
<path d="M46.819 329.497C47.967 329.497 63.864 329.989 63.864 329.989L46.819 329.497Z" fill="white"/>
<path d="M46.819 329.497C47.967 329.497 63.864 329.989 63.864 329.989" stroke="black" stroke-width="2" stroke-linecap="round" stroke-linejoin="round"/>
<path d="M41.903 343.095C46.328 348.337 62.553 343.422 62.553 343.422L41.903 343.095Z" fill="white"/>
<path d="M41.903 343.095C46.328 348.337 62.553 343.422 62.553 343.422" stroke="black" stroke-width="2" stroke-linecap="round" stroke-linejoin="round"/>
<path d="M84.186 257.579C84.022 256.76 84.022 246.439 84.022 246.439L84.186 257.579Z" fill="white"/>
<path d="M84.186 257.579C84.022 256.76 84.022 246.439 84.022 246.439" stroke="black" stroke-width="2" stroke-linecap="round" stroke-linejoin="round"/>
<path d="M121.717 256.104C122.536 256.596 134.172 304.105 134.172 304.105L104.017 316.064L94.839 283.627" fill="white"/>
<path d="M121.717 256.104C122.536 256.596 134.172 304.105 134.172 304.105L104.017 316.064L94.839 283.627" stroke="black" stroke-width="2" stroke-linecap="round" stroke-linejoin="round"/>
<path d="M119.422 303.449C119.914 296.733 113.85 294.112 115.325 288.378C116.8 282.644 121.717 283.135 123.192 276.255C124.831 268.064 122.372 257.579 122.372 257.579L95.003 283.627L104.181 316.064C104.017 316.064 118.767 310.822 119.422 303.449Z" fill="black"/>
<path d="M107.786 314.589C109.097 318.357 112.703 329.661 119.258 333.593C123.847 336.378 149.25 337.689 163.672 338.344C169.736 338.508 173.997 338.671 173.997 338.671L172.194 347.518C172.194 347.518 163.836 353.416 163.344 356.201H182.356L192.681 330.48C190.421 329.064 188.066 327.805 185.633 326.712C183.313 326.251 180.952 326.031 178.586 326.057C178.586 326.057 161.706 319.504 155.15 317.866C148.594 316.228 131.222 316.228 131.222 316.228" stroke="black" stroke-width="2" stroke-linecap="round" stroke-linejoin="round"/>
<path d="M59.767 260.2L67.306 287.886C67.306 287.886 99.756 285.593 111.883 276.746C122.7 269.047 122.7 265.279 121.553 256.104C121.225 252.664 59.767 260.2 59.767 260.2Z" fill="white" stroke="black" stroke-width="2" stroke-linecap="round" stroke-linejoin="round"/>
<path d="M130.731 305.415C132.101 308.777 133.251 312.225 134.172 315.736L130.731 305.415Z" fill="white"/>
<path d="M130.731 305.415C132.101 308.777 133.251 312.225 134.172 315.736" stroke="black" stroke-width="2" stroke-linecap="round" stroke-linejoin="round"/>
<path d="M278.558 277.729H296.75" stroke="black" stroke-width="2" stroke-linecap="round" stroke-linejoin="round"/>
<path d="M427.861 413.047V431.232" stroke="black" stroke-width="2" stroke-linecap="round" stroke-linejoin="round"/>
<path d="M421.961 194.671L421.306 205.647L404.425 203.026C404.425 203.026 362.47 158.793 360.831 159.94C359.192 161.087 362.797 167.148 363.125 167.804C363.453 168.459 350.67 154.206 349.195 158.793C347.72 163.38 358.372 175.995 358.372 175.995L400.656 231.531L401.147 281.169L377.056 401.088C373.189 402.237 369.41 403.66 365.747 405.348C362.621 407.122 359.611 409.092 356.733 411.245H385.578L428.025 290.999" fill="white"/>
<path d="M421.961 194.671L421.306 205.647L404.425 203.026C404.425 203.026 362.47 158.793 360.831 159.94C359.192 161.087 362.797 167.148 363.125 167.804C363.453 168.459 350.67 154.206 349.195 158.793C347.72 163.38 358.372 175.995 358.372 175.995L400.656 231.531L401.147 281.169L377.056 401.088C373.189 402.237 369.41 403.66 365.747 405.348C362.621 407.122 359.611 409.092 356.733 411.245H385.578L428.025 290.999" stroke="black" stroke-width="2" stroke-linecap="round" stroke-linejoin="round"/>
<path d="M365.092 172.882L427.861 239.067" stroke="black" stroke-width="2" stroke-linecap="round" stroke-linejoin="round"/>
<path d="M380.989 405.348C381.317 404.529 419.667 277.074 419.667 277.074L380.989 405.348Z" fill="white"/>
<path d="M380.989 405.348C381.317 404.529 419.667 277.074 419.667 277.074" stroke="black" stroke-width="2" stroke-linecap="round" stroke-linejoin="round"/>
<path d="M365.092 175.339C366.449 175.339 367.55 174.239 367.55 172.882C367.55 171.525 366.449 170.425 365.092 170.425C363.734 170.425 362.633 171.525 362.633 172.882C362.633 174.239 363.734 175.339 365.092 175.339Z" fill="black"/>
<path d="M380.989 407.805C382.347 407.805 383.447 406.705 383.447 405.348C383.447 403.99 382.347 402.89 380.989 402.89C379.631 402.89 378.531 403.99 378.531 405.348C378.531 406.705 379.631 407.805 380.989 407.805Z" fill="black"/>
<path d="M398.689 354.235C403.939 354.235 408.194 349.981 408.194 344.733C408.194 339.485 403.939 335.231 398.689 335.231C393.439 335.231 389.183 339.485 389.183 344.733C389.183 349.981 393.439 354.235 398.689 354.235Z" fill="white" stroke="black" stroke-width="2" stroke-linecap="round" stroke-linejoin="round"/>
<path d="M599.125 304.596H486.042V291.982V237.101H599.125V304.596Z" fill="white" stroke="black" stroke-width="2" stroke-linecap="round" stroke-linejoin="round"/>
<path d="M623.708 212.527H599.125V237.101H623.708V212.527Z" fill="black"/>
<path d="M434.253 194.671L434.908 205.647L451.789 203.026C451.789 203.026 493.744 158.793 495.383 159.94C497.022 161.087 493.417 167.148 493.089 167.804C492.761 168.459 505.544 154.206 507.019 158.793C508.494 163.38 497.842 175.995 497.842 175.995L455.558 231.531L455.067 281.169L479.158 401.252C483.024 402.401 486.804 403.824 490.467 405.511C493.593 407.286 496.603 409.255 499.481 411.409H470.636L428.189 291.326" fill="white"/>
<path d="M434.253 194.671L434.908 205.647L451.789 203.026C451.789 203.026 493.744 158.793 495.383 159.94C497.022 161.087 493.417 167.148 493.089 167.804C492.761 168.459 505.544 154.206 507.019 158.793C508.494 163.38 497.842 175.995 497.842 175.995L455.558 231.531L455.067 281.169L479.158 401.252C483.024 402.401 486.804 403.824 490.467 405.511C493.593 407.286 496.603 409.255 499.481 411.409H470.636L428.189 291.326" stroke="black" stroke-width="2" stroke-linecap="round" stroke-linejoin="round"/>
<path d="M491.122 172.882L427.861 239.067" stroke="black" stroke-width="2" stroke-linecap="round" stroke-linejoin="round"/>
<path d="M475.225 405.348C474.897 404.529 436.547 277.074 436.547 277.074L475.225 405.348Z" fill="white"/>
<path d="M475.225 405.348C474.897 404.529 436.547 277.074 436.547 277.074" stroke="black" stroke-width="2" stroke-linecap="round" stroke-linejoin="round"/>
<path d="M491.122 175.339C492.48 175.339 493.581 174.239 493.581 172.882C493.581 171.525 492.48 170.425 491.122 170.425C489.765 170.425 488.664 171.525 488.664 172.882C488.664 174.239 489.765 175.339 491.122 175.339Z" fill="black"/>
<path d="M475.225 407.805C476.583 407.805 477.683 406.705 477.683 405.348C477.683 403.99 476.583 402.89 475.225 402.89C473.867 402.89 472.767 403.99 472.767 405.348C472.767 406.705 473.867 407.805 475.225 407.805Z" fill="black"/>
<path d="M457.361 354.235C462.611 354.235 466.867 349.981 466.867 344.733C466.867 339.485 462.611 335.231 457.361 335.231C452.111 335.231 447.856 339.485 447.856 344.733C447.856 349.981 452.111 354.235 457.361 354.235Z" fill="black"/>
<path d="M427.369 197.783C433.615 197.783 438.678 190.375 438.678 181.237C438.678 172.099 433.615 164.691 427.369 164.691C421.124 164.691 416.061 172.099 416.061 181.237C416.061 190.375 421.124 197.783 427.369 197.783Z" fill="white" stroke="black" stroke-width="2" stroke-linecap="round" stroke-linejoin="round"/>
<path d="M416.061 179.107C415.175 179.102 414.321 179.441 413.679 180.052C413.037 180.663 412.658 181.499 412.619 182.384V182.548C412.576 182.935 412.61 183.327 412.718 183.701C412.826 184.076 413.008 184.425 413.251 184.729C413.495 185.034 413.796 185.287 414.137 185.475C414.479 185.663 414.854 185.781 415.242 185.824H416.225" stroke="black" stroke-width="2" stroke-linecap="round" stroke-linejoin="round"/>
<path d="M486.042 283.299H599.125" stroke="black" stroke-width="2" stroke-linecap="round" stroke-linejoin="round"/>
<path d="M553.072 237.101V283.299" stroke="black" stroke-width="2" stroke-linecap="round" stroke-linejoin="round"/>
<path d="M584.375 252.5H567.494V269.374H584.375V252.5Z" fill="white" stroke="black" stroke-width="2" stroke-linecap="round" stroke-linejoin="round"/>
<path d="M438.678 179.107C439.564 179.102 440.418 179.441 441.06 180.052C441.701 180.663 442.081 181.499 442.119 182.384V182.548C442.163 182.935 442.129 183.327 442.021 183.701C441.912 184.076 441.731 184.425 441.488 184.729C441.244 185.034 440.943 185.287 440.602 185.475C440.26 185.663 439.885 185.781 439.497 185.824H438.514" stroke="black" stroke-width="2" stroke-linecap="round" stroke-linejoin="round"/>
<path d="M582.572 167.64C593.325 167.267 603.763 163.921 612.728 157.974C628.133 147.817 642.392 128.322 666.647 129.141C690.903 129.96 697.786 147.326 707.947 153.387C718.436 159.612 732.203 159.121 732.203 159.121" fill="white"/>
<path d="M582.572 167.64C593.325 167.267 603.763 163.921 612.728 157.974C628.133 147.817 642.392 128.322 666.647 129.141C690.903 129.96 697.786 147.326 707.947 153.387C718.436 159.612 732.203 159.121 732.203 159.121" stroke="black" stroke-width="2" stroke-linecap="round" stroke-linejoin="round"/>
<path d="M608.139 160.595V188.937" stroke="black" stroke-width="2" stroke-linecap="round" stroke-linejoin="round"/>
<path d="M661.894 188.937V129.141" stroke="black" stroke-width="2" stroke-linecap="round" stroke-linejoin="round"/>
<path d="M702.539 148.964V188.937" stroke="black" stroke-width="2" stroke-linecap="round" stroke-linejoin="round"/>
<path d="M121.717 256.104L120.078 250.698" stroke="black" stroke-width="2" stroke-linecap="round" stroke-linejoin="round"/>
<path d="M169.572 322.453C169.081 323.272 164.983 338.344 164.983 338.344L169.572 322.453Z" fill="white"/>
<path d="M169.572 322.453C169.081 323.272 164.983 338.344 164.983 338.344" stroke="black" stroke-width="2" stroke-linecap="round" stroke-linejoin="round"/>
<path d="M173.014 343.914C173.014 343.914 181.7 342.439 183.831 334.412C185.797 326.876 185.142 326.712 185.142 326.712" fill="white"/>
<path d="M173.014 343.914C173.014 343.914 181.7 342.439 183.831 334.412C185.797 326.876 185.142 326.712 185.142 326.712" stroke="black" stroke-width="2" stroke-linecap="round" stroke-linejoin="round"/>
<path d="M608.139 163.872C609.949 163.872 611.417 162.405 611.417 160.595C611.417 158.786 609.949 157.319 608.139 157.319C606.329 157.319 604.861 158.786 604.861 160.595C604.861 162.405 606.329 163.872 608.139 163.872Z" fill="black"/>
<path d="M702.539 152.24C704.349 152.24 705.817 150.773 705.817 148.964C705.817 147.154 704.349 145.687 702.539 145.687C700.729 145.687 699.261 147.154 699.261 148.964C699.261 150.773 700.729 152.24 702.539 152.24Z" fill="black"/>
<path d="M661.894 132.418C663.705 132.418 665.172 130.951 665.172 129.141C665.172 127.332 663.705 125.865 661.894 125.865C660.084 125.865 658.617 127.332 658.617 129.141C658.617 130.951 660.084 132.418 661.894 132.418Z" fill="black"/>
<path d="M77.794 149.128C80.773 151.582 83.321 154.517 85.333 157.81C85.333 157.81 89.758 154.206 92.053 158.138C94.183 161.742 89.431 164.036 89.431 164.036C89.938 164.827 90.485 165.593 91.069 166.329C91.069 166.165 104.017 149.455 103.853 148.636C103.689 147.817 101.231 132.418 101.231 132.418L82.547 133.892L77.794 149.128Z" fill="black"/>
<path d="M413.931 177.305C413.931 177.305 427.861 177.961 431.958 172.227C432.334 173.991 433.251 175.594 434.581 176.814C436.438 178.137 438.697 178.774 440.972 178.616C440.972 178.616 440.317 168.131 434.581 165.182C428.844 162.234 423.928 161.414 421.469 163.053C419.011 164.691 413.931 177.305 413.931 177.305Z" fill="black"/>
<path d="M419.667 277.074H436.547" stroke="black" stroke-width="2" stroke-linecap="round" stroke-linejoin="round"/>
<path d="M428.189 277.074L427.861 239.067" stroke="black" stroke-width="2" stroke-linecap="round" stroke-linejoin="round"/>
<path d="M396.558 95.394H410.161" stroke="black" stroke-width="2" stroke-linecap="round" stroke-linejoin="round"/>
<path d="M342.311 95.394H382.136" stroke="black" stroke-width="2" stroke-linecap="round" stroke-linejoin="round"/>
<path d="M599.125 294.275H486.042" stroke="black" stroke-width="2" stroke-linecap="round" stroke-linejoin="round"/>
<path d="M427.861 134.22V149.619" stroke="black" stroke-width="2" stroke-linecap="round" stroke-linejoin="round"/>
<path d="M319.531 179.435L332.314 192.213" stroke="black" stroke-width="2" stroke-linecap="round" stroke-linejoin="round"/>
<path d="M332.314 371.764L319.531 384.706" stroke="black" stroke-width="2" stroke-linecap="round" stroke-linejoin="round"/>
<path d="M535.372 385.197L522.589 372.255" stroke="black" stroke-width="2" stroke-linecap="round" stroke-linejoin="round"/>
<path d="M713.519 212.527H769.897" stroke="black" stroke-width="2" stroke-linecap="round" stroke-linejoin="round"/>
<path d="M685.986 212.527H699.261" stroke="black" stroke-width="2" stroke-linecap="round" stroke-linejoin="round"/>
<path d="M23.056 52.144H52.228" stroke="black" stroke-width="2" stroke-linecap="round" stroke-linejoin="round"/>
<path d="M574.542 66.069H546.844V93.755H574.542V66.069Z" stroke="black" stroke-width="2" stroke-linecap="round" stroke-linejoin="round"/>
</svg>
