<svg width="678" height="443" viewBox="0 0 678 443" fill="none" xmlns="http://www.w3.org/2000/svg">
<path d="M368.03 129.179H157.302C145.49 129.179 135.914 138.755 135.914 150.567V274.418C135.914 286.23 145.49 295.805 157.302 295.805H368.03C379.842 295.805 389.418 286.23 389.418 274.418V150.567C389.418 138.755 379.842 129.179 368.03 129.179Z" stroke="#231F20" stroke-width="2" stroke-linecap="round" stroke-linejoin="round"/>
<path d="M70.752 353.052C76.663 353.052 81.454 348.26 81.454 342.35C81.454 336.439 76.663 331.648 70.752 331.648C64.842 331.648 60.05 336.439 60.05 342.35C60.05 348.26 64.842 353.052 70.752 353.052Z" fill="#231F20"/>
<path d="M6.409 302C9.007 302 11.113 299.894 11.113 297.297C11.113 294.699 9.007 292.593 6.409 292.593C3.812 292.593 1.70599 294.699 1.70599 297.297C1.70599 299.894 3.812 302 6.409 302Z" stroke="#231F20" stroke-width="2" stroke-linecap="round" stroke-linejoin="round"/>
<path d="M314.226 238.756C317.991 238.756 321.043 235.703 321.043 231.938C321.043 228.172 317.991 225.12 314.226 225.12C310.46 225.12 307.408 228.172 307.408 231.938C307.408 235.703 310.46 238.756 314.226 238.756Z" fill="#231F20"/>
<path d="M214.778 64.034H203.748V75.063H214.778V64.034Z" stroke="#231F20" stroke-width="2" stroke-linecap="round" stroke-linejoin="round"/>
<path d="M321.027 344.038L359.934 311.293L398.825 344.038V441.617H345.004V383.912H321.027V344.038Z" stroke="#231F20" stroke-width="2" stroke-linecap="round" stroke-linejoin="round"/>
<path d="M164.759 341.776L111.282 374.193V441.617H164.759V341.776Z" stroke="#231F20" stroke-width="2" stroke-linecap="round" stroke-linejoin="round"/>
<path d="M333.22 408.872H321.224V420.869H333.22V408.872Z" stroke="#231F20" stroke-width="2" stroke-linecap="round" stroke-linejoin="round"/>
<path d="M306.752 408.872H294.756V420.869H306.752V408.872Z" stroke="#231F20" stroke-width="2" stroke-linecap="round" stroke-linejoin="round"/>
<path d="M111.282 441.617H16.948C16.948 441.617 -0.194982 426.113 9.70402 414.608C20.291 402.284 86.42 434.914 86.42 434.914C86.42 434.914 69.785 422.852 78.865 414.084C87.944 405.316 160.809 441.617 160.809 441.617" stroke="#231F20" stroke-width="2" stroke-linecap="round" stroke-linejoin="round"/>
<path d="M575.055 112.512H585.478" stroke="#231F20" stroke-width="2" stroke-linecap="round" stroke-linejoin="round"/>
<path d="M498.404 112.512H562.124" stroke="#231F20" stroke-width="2" stroke-linecap="round" stroke-linejoin="round"/>
<path d="M76.669 96.107H31.763V141.012H76.669V96.107Z" stroke="#231F20" stroke-width="2" stroke-linecap="round" stroke-linejoin="round"/>
<path d="M102.268 183.787C98.905 183.789 95.574 183.129 92.467 181.843C89.359 180.558 86.535 178.672 84.156 176.295C81.777 173.918 79.89 171.095 78.602 167.988C77.315 164.881 76.652 161.551 76.652 158.188V140.996H31.763V177.051C31.761 183.841 33.096 190.564 35.693 196.838C38.29 203.111 42.097 208.811 46.897 213.613C51.697 218.414 57.396 222.223 63.669 224.822C69.941 227.421 76.664 228.758 83.454 228.758H114.101V183.853L102.268 183.787Z" stroke="#231F20" stroke-width="2" stroke-linecap="round" stroke-linejoin="round"/>
<path d="M135.914 183.787H114.101V228.693H135.914V183.787Z" stroke="#231F20" stroke-width="2" stroke-linecap="round" stroke-linejoin="round"/>
<path d="M83.863 85.733H24.536V95.451H83.863V85.733Z" stroke="#231F20" stroke-width="2" stroke-linecap="round" stroke-linejoin="round"/>
<path d="M532.542 233.413C539.336 233.413 545.851 236.112 550.655 240.915C555.459 245.719 558.158 252.235 558.158 259.029V276.204H603.047V240.149C603.047 226.435 597.599 213.283 587.902 203.586C578.205 193.889 565.053 188.442 551.34 188.442H520.709V233.347L532.542 233.413Z" stroke="#231F20" stroke-width="2" stroke-linecap="round" stroke-linejoin="round"/>
<path d="M520.709 188.507H455.072H389.418V233.413H455.072H520.709V188.507Z" stroke="#231F20" stroke-width="2" stroke-linecap="round" stroke-linejoin="round"/>
<path d="M558.158 348.889C558.158 355.683 555.459 362.198 550.655 367.002C545.851 371.806 539.336 374.505 532.542 374.505H515.366V419.361H551.34C558.131 419.363 564.856 418.027 571.13 415.43C577.404 412.832 583.105 409.023 587.907 404.221C592.709 399.419 596.518 393.718 599.115 387.444C601.713 381.17 603.049 374.445 603.047 367.654V336.974H558.158V348.889Z" stroke="#231F20" stroke-width="2" stroke-linecap="round" stroke-linejoin="round"/>
<path d="M503.534 374.423C496.754 374.423 490.251 371.735 485.449 366.949C480.648 362.163 477.939 355.668 477.918 348.889V331.631H433.012V367.605C433.006 374.399 434.338 381.128 436.934 387.407C439.53 393.686 443.337 399.392 448.139 404.199C452.942 409.006 458.644 412.819 464.92 415.42C471.197 418.022 477.925 419.361 484.719 419.361H515.366V374.423H503.534Z" stroke="#231F20" stroke-width="2" stroke-linecap="round" stroke-linejoin="round"/>
<path d="M477.918 319.799C477.918 313.005 480.617 306.489 485.42 301.685C490.224 296.882 496.74 294.183 503.534 294.183H520.709V249.294H484.654C470.943 249.294 457.794 254.739 448.097 264.432C438.401 274.126 432.951 287.273 432.947 300.984V331.631H477.852L477.918 319.799Z" stroke="#231F20" stroke-width="2" stroke-linecap="round" stroke-linejoin="round"/>
<path d="M558.158 294.183V315.456V336.728H603.047V315.456V294.183H558.158Z" stroke="#231F20" stroke-width="2" stroke-linecap="round" stroke-linejoin="round"/>
<path d="M627.368 249.277H574.039H520.709V294.183H574.039H627.368V249.277Z" fill="white" stroke="#231F20" stroke-width="2" stroke-linecap="round" stroke-linejoin="round"/>
<path d="M637.087 301.41V242.083H627.368V301.41H637.087Z" stroke="#231F20" stroke-width="2" stroke-linecap="round" stroke-linejoin="round"/>
<path d="M618.092 102.449H498.453C513.891 91.862 527.084 81.471 544.063 74.785C546.571 73.785 552.028 74.031 554.257 75.719C557.224 77.948 558.682 80.144 555.355 84.585C552.944 87.358 550.222 89.843 547.243 91.993C567.762 81.537 576.022 76.833 592.837 76.833C599.999 76.833 607.587 77.8 613.274 82.832C618.961 87.863 622.369 95.795 618.092 102.449Z" stroke="#231F20" stroke-width="2" stroke-linecap="round" stroke-linejoin="round"/>
<path d="M153.418 157.532V268.075C153.418 271.3 154.699 274.394 156.98 276.674C159.26 278.955 162.353 280.236 165.578 280.236H317.274C316.684 273.779 312.8 267.666 307.834 263.29C301.819 257.963 294.346 254.653 287.2 251.014C280.055 247.376 272.876 243.099 268.222 236.559C260.781 226.087 260.241 210.567 249.522 203.487C240.836 197.751 228.462 199.979 220.153 193.653C214.221 189.163 211.861 181.378 210.746 173.987C209.632 166.595 209.369 158.942 206.206 152.206C204.984 149.42 203.001 147.035 200.487 145.322H165.611C164.007 145.318 162.418 145.631 160.936 146.243C159.454 146.856 158.107 147.755 156.974 148.89C155.84 150.025 154.943 151.373 154.332 152.856C153.722 154.339 153.411 155.928 153.418 157.532Z" fill="#231F20"/>
<path d="M354.247 145.388H165.578C158.862 145.388 153.418 150.833 153.418 157.549V268.092C153.418 274.808 158.862 280.252 165.578 280.252H354.247C360.963 280.252 366.408 274.808 366.408 268.092V157.549C366.408 150.833 360.963 145.388 354.247 145.388Z" stroke="#231F20" stroke-width="2" stroke-linecap="round" stroke-linejoin="round"/>
<path d="M269.468 304.819L217.121 245.819L164.759 304.819V441.617H269.468V304.819Z" fill="white" stroke="#231F20" stroke-width="2" stroke-linecap="round" stroke-linejoin="round"/>
<path d="M345.004 383.912H224.742V441.617H345.004V383.912Z" stroke="#231F20" stroke-width="2" stroke-linecap="round" stroke-linejoin="round"/>
<path d="M262.666 134.358C272.514 134.358 280.497 126.375 280.497 116.527C280.497 106.679 272.514 98.696 262.666 98.696C252.818 98.696 244.835 106.679 244.835 116.527C244.835 126.375 252.818 134.358 262.666 134.358Z" fill="white" stroke="#231F20" stroke-width="2" stroke-linecap="round" stroke-linejoin="round"/>
<path d="M226.84 315.833H207.386V335.286H226.84V315.833Z" stroke="#231F20" stroke-width="2" stroke-linecap="round" stroke-linejoin="round"/>
<path d="M632.989 163.318C633.463 163.318 633.925 163.177 634.319 162.914C634.712 162.651 635.019 162.278 635.2 161.84C635.381 161.403 635.429 160.922 635.336 160.458C635.244 159.994 635.016 159.567 634.681 159.233C634.347 158.898 633.92 158.67 633.456 158.578C632.992 158.486 632.511 158.533 632.074 158.714C631.637 158.895 631.263 159.202 631 159.595C630.737 159.989 630.597 160.452 630.597 160.925C630.597 161.559 630.849 162.168 631.297 162.617C631.746 163.065 632.355 163.318 632.989 163.318Z" fill="#231F20"/>
<path d="M632.989 164.579C632.26 164.582 631.546 164.365 630.941 163.957C630.342 163.554 629.875 162.984 629.597 162.318C629.322 161.643 629.248 160.903 629.384 160.187C629.529 159.474 629.881 158.819 630.398 158.306C630.914 157.793 631.57 157.444 632.285 157.303C633.005 157.166 633.749 157.25 634.422 157.542C635.094 157.834 635.663 158.322 636.054 158.942C636.46 159.542 636.677 160.249 636.677 160.974C636.676 161.952 636.287 162.889 635.595 163.58C634.888 164.237 633.955 164.595 632.989 164.579ZM632.989 159.778C632.769 159.79 632.555 159.858 632.367 159.974C632.187 160.103 632.045 160.279 631.957 160.482C631.892 160.69 631.892 160.913 631.957 161.121C631.992 161.339 632.095 161.54 632.251 161.696C632.407 161.852 632.608 161.955 632.826 161.99C633.039 162.056 633.268 162.056 633.481 161.99C633.682 161.905 633.853 161.763 633.973 161.58C634.092 161.394 634.154 161.178 634.153 160.958C634.153 160.814 634.124 160.671 634.068 160.539C634.012 160.406 633.929 160.287 633.825 160.187C633.611 159.988 633.331 159.877 633.039 159.876L632.989 159.778Z" fill="#231F20"/>
<path d="M653.279 163.318C653.752 163.318 654.215 163.177 654.608 162.914C655.002 162.651 655.308 162.278 655.49 161.84C655.671 161.403 655.718 160.922 655.626 160.458C655.533 159.994 655.305 159.567 654.971 159.233C654.636 158.898 654.21 158.67 653.746 158.578C653.281 158.486 652.8 158.533 652.363 158.714C651.926 158.895 651.552 159.202 651.289 159.595C651.026 159.989 650.886 160.452 650.886 160.925C650.886 161.559 651.138 162.168 651.587 162.617C652.036 163.065 652.644 163.318 653.279 163.318Z" fill="#231F20"/>
<path d="M653.279 164.579C652.554 164.582 651.846 164.365 651.247 163.957C650.63 163.562 650.145 162.993 649.853 162.321C649.561 161.65 649.476 160.907 649.608 160.187C649.749 159.473 650.098 158.816 650.611 158.3C651.124 157.784 651.779 157.431 652.492 157.286C653.208 157.151 653.948 157.225 654.623 157.499C655.29 157.783 655.86 158.256 656.262 158.86C656.668 159.46 656.885 160.167 656.884 160.892C656.886 161.376 656.791 161.856 656.605 162.303C656.42 162.751 656.147 163.157 655.803 163.498C655.461 163.842 655.055 164.115 654.606 164.301C654.185 164.474 653.735 164.569 653.279 164.579ZM653.279 159.777C653.056 159.779 652.839 159.848 652.656 159.974C652.474 160.094 652.331 160.265 652.246 160.466C652.19 160.681 652.19 160.906 652.246 161.121C652.3 161.336 652.407 161.533 652.558 161.695C652.716 161.847 652.916 161.949 653.131 161.99C653.338 162.064 653.564 162.064 653.771 161.99C653.976 161.906 654.153 161.764 654.279 161.58C654.397 161.394 654.46 161.178 654.459 160.957C654.456 160.668 654.338 160.391 654.131 160.187C653.917 159.988 653.636 159.877 653.344 159.876L653.279 159.777Z" fill="#231F20"/>
<path d="M673.667 163.318C674.14 163.318 674.603 163.177 674.996 162.914C675.39 162.651 675.696 162.278 675.877 161.84C676.058 161.403 676.106 160.922 676.013 160.458C675.921 159.994 675.693 159.567 675.359 159.233C675.024 158.898 674.598 158.67 674.133 158.578C673.669 158.486 673.188 158.533 672.751 158.714C672.314 158.895 671.94 159.202 671.677 159.595C671.414 159.989 671.274 160.452 671.274 160.925C671.274 161.559 671.526 162.168 671.975 162.617C672.423 163.065 673.032 163.318 673.667 163.318Z" fill="#231F20"/>
<path d="M673.568 164.579C672.844 164.582 672.135 164.365 671.536 163.957C670.933 163.555 670.46 162.985 670.176 162.318C669.898 161.643 669.83 160.901 669.979 160.187C670.121 159.475 670.469 158.82 670.979 158.303C671.5 157.798 672.153 157.451 672.864 157.303C673.58 157.167 674.319 157.241 674.994 157.516C675.666 157.793 676.239 158.263 676.642 158.867C677.045 159.472 677.259 160.182 677.256 160.908C677.256 161.886 676.867 162.824 676.176 163.516C675.484 164.207 674.546 164.596 673.568 164.596V164.579ZM673.568 159.778C673.349 159.795 673.136 159.862 672.946 159.974C672.771 160.104 672.635 160.28 672.552 160.482C672.487 160.69 672.487 160.913 672.552 161.121C672.599 161.338 672.707 161.537 672.864 161.695C673.022 161.847 673.221 161.949 673.437 161.99C673.645 162.055 673.868 162.055 674.076 161.99C674.282 161.906 674.459 161.764 674.584 161.58C674.703 161.394 674.766 161.178 674.765 160.958C674.762 160.813 674.73 160.67 674.671 160.537C674.612 160.405 674.527 160.286 674.421 160.187C674.207 159.988 673.926 159.877 673.634 159.876L673.568 159.778Z" fill="#231F20"/>
<path d="M632.989 181.968C633.467 181.971 633.935 181.832 634.334 181.569C634.733 181.305 635.044 180.929 635.228 180.488C635.413 180.048 635.462 179.562 635.369 179.093C635.277 178.624 635.047 178.193 634.709 177.855C634.371 177.517 633.941 177.288 633.472 177.195C633.003 177.103 632.517 177.152 632.076 177.336C631.635 177.521 631.259 177.832 630.996 178.231C630.732 178.629 630.593 179.097 630.597 179.575C630.597 179.89 630.659 180.201 630.779 180.491C630.899 180.781 631.075 181.045 631.297 181.267C631.52 181.489 631.783 181.666 632.074 181.786C632.364 181.906 632.675 181.968 632.989 181.968Z" fill="#231F20"/>
<path d="M632.989 183.263C632.254 183.266 631.535 183.049 630.924 182.64C630.314 182.235 629.839 181.656 629.561 180.978C629.283 180.3 629.216 179.555 629.367 178.838C629.476 178.304 629.701 177.801 630.027 177.364C630.353 176.928 630.771 176.569 631.252 176.314C631.733 176.058 632.265 175.913 632.809 175.887C633.353 175.862 633.896 175.957 634.399 176.166C635.071 176.442 635.643 176.916 636.038 177.527C636.511 178.236 636.724 179.087 636.641 179.936C636.557 180.785 636.182 181.578 635.579 182.181C634.889 182.864 633.96 183.252 632.989 183.263ZM632.989 178.461C632.764 178.463 632.543 178.525 632.35 178.641C632.17 178.77 632.029 178.946 631.941 179.149C631.876 179.363 631.876 179.591 631.941 179.805C631.984 180.023 632.092 180.223 632.252 180.378C632.41 180.535 632.609 180.643 632.826 180.69C633.039 180.755 633.268 180.755 633.481 180.69C633.687 180.606 633.864 180.464 633.989 180.28C634.103 180.092 634.165 179.877 634.169 179.657C634.172 179.509 634.144 179.363 634.089 179.226C634.034 179.089 633.953 178.964 633.849 178.859C633.745 178.753 633.622 178.67 633.485 178.613C633.349 178.556 633.203 178.526 633.055 178.526L632.989 178.461Z" fill="#231F20"/>
<path d="M653.279 181.968C653.757 181.971 654.225 181.832 654.623 181.569C655.022 181.305 655.333 180.929 655.518 180.488C655.702 180.048 655.751 179.562 655.659 179.093C655.566 178.624 655.337 178.193 654.999 177.855C654.661 177.517 654.23 177.288 653.761 177.195C653.292 177.103 652.807 177.152 652.366 177.336C651.925 177.521 651.549 177.832 651.285 178.231C651.022 178.629 650.883 179.097 650.886 179.575C650.886 179.89 650.948 180.201 651.068 180.491C651.189 180.781 651.365 181.045 651.587 181.267C651.809 181.489 652.073 181.666 652.363 181.786C652.654 181.906 652.965 181.968 653.279 181.968Z" fill="#231F20"/>
<path d="M653.279 183.263C652.549 183.263 651.836 183.047 651.23 182.64C650.609 182.246 650.121 181.674 649.829 180.999C649.537 180.324 649.454 179.577 649.591 178.854C649.742 178.137 650.095 177.477 650.607 176.953C651.129 176.439 651.79 176.091 652.509 175.953C653.224 175.81 653.966 175.884 654.639 176.166C655.306 176.45 655.876 176.923 656.278 177.527C656.615 178.03 656.823 178.609 656.883 179.213C656.943 179.816 656.853 180.424 656.622 180.985C656.434 181.432 656.162 181.838 655.819 182.181C655.478 182.526 655.071 182.799 654.623 182.984C654.196 183.16 653.74 183.254 653.279 183.263ZM653.279 178.461C653.057 178.446 652.836 178.51 652.656 178.641C652.46 178.757 652.31 178.936 652.23 179.149C652.165 179.357 652.165 179.58 652.23 179.788C652.268 180.01 652.37 180.215 652.525 180.378C652.686 180.538 652.892 180.647 653.115 180.69C653.329 180.754 653.557 180.754 653.771 180.69C653.974 180.601 654.149 180.46 654.279 180.28C654.395 180.093 654.457 179.877 654.459 179.657C654.461 179.508 654.433 179.36 654.376 179.223C654.32 179.085 654.237 178.959 654.131 178.854C654.029 178.726 653.9 178.622 653.752 178.551C653.604 178.48 653.443 178.444 653.279 178.444V178.461Z" fill="#231F20"/>
<path d="M673.667 181.968C674.145 181.971 674.613 181.832 675.011 181.569C675.41 181.305 675.721 180.929 675.906 180.488C676.09 180.048 676.139 179.562 676.047 179.093C675.954 178.624 675.724 178.193 675.387 177.855C675.049 177.517 674.618 177.288 674.149 177.195C673.68 177.103 673.194 177.152 672.754 177.336C672.313 177.521 671.937 177.832 671.673 178.231C671.41 178.629 671.271 179.097 671.274 179.575C671.274 179.89 671.336 180.201 671.456 180.491C671.576 180.781 671.753 181.045 671.975 181.267C672.197 181.489 672.461 181.666 672.751 181.786C673.041 181.906 673.352 181.968 673.667 181.968Z" fill="#231F20"/>
<path d="M673.568 183.263C672.838 183.265 672.125 183.048 671.52 182.64C670.912 182.234 670.438 181.657 670.159 180.982C669.88 180.306 669.808 179.563 669.952 178.847C670.096 178.13 670.45 177.472 670.968 176.957C671.486 176.442 672.146 176.093 672.864 175.953C673.579 175.81 674.321 175.884 674.994 176.166C675.661 176.45 676.231 176.923 676.633 177.527C677.045 178.135 677.257 178.857 677.239 179.592C677.235 180.567 676.845 181.501 676.154 182.189C675.463 182.877 674.527 183.263 673.552 183.263H673.568ZM673.568 178.461C673.348 178.46 673.132 178.522 672.946 178.641C672.761 178.769 672.614 178.945 672.519 179.149C672.455 179.363 672.455 179.591 672.519 179.805C672.557 180.021 672.66 180.222 672.814 180.378C672.976 180.538 673.181 180.647 673.404 180.69C673.612 180.755 673.836 180.755 674.044 180.69C674.252 180.611 674.43 180.467 674.552 180.28C674.701 180.065 674.769 179.804 674.745 179.543C674.721 179.283 674.606 179.039 674.421 178.854C674.316 178.729 674.186 178.628 674.039 178.557C673.892 178.487 673.731 178.448 673.568 178.444V178.461Z" fill="#231F20"/>
<path d="M632.989 200.635C633.467 200.638 633.934 200.5 634.332 200.237C634.731 199.974 635.042 199.599 635.227 199.159C635.412 198.719 635.462 198.234 635.371 197.766C635.28 197.298 635.051 196.867 634.715 196.528C634.379 196.19 633.95 195.959 633.482 195.864C633.014 195.77 632.529 195.817 632.088 195.999C631.647 196.18 631.269 196.489 631.004 196.886C630.738 197.282 630.597 197.749 630.597 198.226C630.597 198.862 630.848 199.472 631.296 199.924C631.745 200.375 632.353 200.631 632.989 200.635Z" fill="#231F20"/>
<path d="M632.989 201.93C632.256 201.925 631.539 201.709 630.924 201.307C630.32 200.906 629.847 200.336 629.564 199.668C629.287 198.994 629.218 198.251 629.368 197.538C629.502 196.822 629.851 196.165 630.367 195.653C630.887 195.134 631.548 194.78 632.268 194.637C632.984 194.493 633.726 194.568 634.399 194.85C635.066 195.134 635.636 195.607 636.038 196.21C636.444 196.816 636.661 197.529 636.661 198.259C636.657 199.241 636.269 200.182 635.579 200.881C634.885 201.554 633.956 201.93 632.989 201.93ZM632.989 197.111C632.71 197.142 632.453 197.276 632.268 197.488C632.075 197.691 631.969 197.962 631.973 198.242C631.972 198.522 632.078 198.792 632.268 198.996C632.459 199.197 632.714 199.325 632.989 199.357C633.141 199.389 633.297 199.389 633.448 199.357C633.598 199.307 633.737 199.229 633.858 199.127C633.97 199.017 634.064 198.89 634.137 198.75C634.2 198.606 634.234 198.449 634.235 198.291C634.237 198.133 634.204 197.976 634.137 197.833C634.069 197.686 633.974 197.552 633.858 197.439C633.737 197.338 633.598 197.26 633.448 197.21C633.304 197.144 633.148 197.111 632.989 197.111Z" fill="#231F20"/>
<path d="M653.279 200.635C653.611 200.662 653.945 200.621 654.26 200.513C654.575 200.404 654.864 200.232 655.109 200.006C655.354 199.781 655.55 199.507 655.684 199.202C655.817 198.897 655.887 198.567 655.887 198.234C655.887 197.901 655.817 197.571 655.684 197.266C655.55 196.961 655.354 196.687 655.109 196.462C654.864 196.236 654.575 196.064 654.26 195.955C653.945 195.847 653.611 195.806 653.279 195.833C652.676 195.883 652.115 196.157 651.705 196.602C651.296 197.047 651.068 197.629 651.068 198.234C651.068 198.839 651.296 199.421 651.705 199.866C652.115 200.311 652.676 200.585 653.279 200.635Z" fill="#231F20"/>
<path d="M653.279 201.93C652.549 201.93 651.836 201.713 651.23 201.307C650.626 200.901 650.149 200.333 649.854 199.668C649.579 198.993 649.505 198.253 649.641 197.537C649.784 196.821 650.136 196.163 650.653 195.646C651.17 195.129 651.828 194.776 652.544 194.632C653.261 194.489 654.004 194.56 654.68 194.838C655.356 195.116 655.935 195.588 656.344 196.194C656.75 196.799 656.967 197.513 656.966 198.242C656.966 198.726 656.871 199.204 656.688 199.652C656.507 200.107 656.233 200.52 655.885 200.864C655.541 201.202 655.135 201.469 654.688 201.651C654.243 201.842 653.763 201.937 653.279 201.93ZM653.279 197.111C653.059 197.113 652.843 197.175 652.656 197.292C652.467 197.415 652.319 197.592 652.23 197.8C652.165 198.013 652.165 198.242 652.23 198.455C652.273 198.678 652.381 198.884 652.541 199.045C652.701 199.199 652.899 199.306 653.115 199.357C653.329 199.422 653.557 199.422 653.771 199.357C653.979 199.278 654.157 199.134 654.279 198.947C654.42 198.728 654.482 198.467 654.455 198.208C654.428 197.949 654.314 197.707 654.131 197.521C654.029 197.393 653.9 197.289 653.752 197.218C653.605 197.147 653.443 197.111 653.279 197.111Z" fill="#231F20"/>
<path d="M673.667 200.635C674.144 200.638 674.611 200.5 675.01 200.237C675.408 199.974 675.719 199.599 675.904 199.159C676.089 198.719 676.139 198.234 676.048 197.766C675.957 197.298 675.729 196.867 675.392 196.528C675.056 196.19 674.627 195.959 674.159 195.864C673.691 195.77 673.206 195.817 672.765 195.999C672.324 196.18 671.947 196.489 671.681 196.886C671.416 197.282 671.274 197.749 671.274 198.226C671.272 198.541 671.332 198.854 671.451 199.147C671.571 199.439 671.747 199.704 671.969 199.928C672.191 200.152 672.456 200.33 672.747 200.451C673.039 200.573 673.351 200.635 673.667 200.635Z" fill="#231F20"/>
<path d="M673.568 201.93C672.84 201.925 672.128 201.708 671.52 201.307C670.915 200.906 670.442 200.336 670.159 199.668C669.952 199.164 669.858 198.621 669.886 198.077C669.913 197.532 670.061 197.001 670.318 196.521C670.575 196.041 670.936 195.623 671.373 195.299C671.811 194.975 672.316 194.751 672.85 194.645C673.384 194.539 673.936 194.553 674.464 194.685C674.993 194.817 675.486 195.065 675.907 195.411C676.328 195.756 676.668 196.191 676.901 196.683C677.134 197.176 677.255 197.714 677.256 198.259C677.258 198.744 677.164 199.225 676.98 199.675C676.796 200.124 676.524 200.533 676.182 200.877C675.839 201.221 675.432 201.494 674.983 201.68C674.535 201.867 674.054 201.963 673.568 201.963V201.93ZM673.568 197.111C673.29 197.145 673.033 197.279 672.847 197.488C672.665 197.697 672.566 197.965 672.569 198.242C672.569 198.519 672.668 198.786 672.847 198.996C673.039 199.195 673.294 199.322 673.568 199.357C673.804 199.381 674.042 199.332 674.248 199.214C674.454 199.096 674.617 198.917 674.716 198.701C674.779 198.556 674.813 198.4 674.814 198.242C674.816 198.084 674.783 197.927 674.716 197.783C674.654 197.633 674.558 197.498 674.437 197.39C674.321 197.284 674.183 197.204 674.033 197.156C673.883 197.108 673.725 197.093 673.568 197.111Z" fill="#231F20"/>
<path d="M406.675 199.898C406.436 199.658 406.247 199.374 406.118 199.062C405.97 198.658 405.904 198.229 405.921 197.8C405.949 197.373 406.061 196.955 406.249 196.571L410.855 184.164L422.491 188.474L422.622 191.883C423.72 193.899 425.028 195.795 426.522 197.537C429.439 200.479 432.555 203.217 435.848 205.732C436.248 206.06 436.53 206.509 436.651 207.012C436.772 207.515 436.726 208.044 436.519 208.518C436.431 208.815 436.285 209.092 436.087 209.331C435.89 209.571 435.647 209.768 435.372 209.911C435.101 210.057 434.804 210.148 434.497 210.179C434.19 210.21 433.881 210.18 433.586 210.091L407.528 200.422C407.207 200.314 406.916 200.135 406.675 199.898ZM411.92 186.491L407.937 197.243V197.324C407.796 197.666 407.796 198.049 407.937 198.39C407.971 198.466 408.015 198.538 408.068 198.603C408.119 198.67 408.187 198.721 408.265 198.75L434.323 208.403C434.487 208.403 434.799 208.305 434.946 207.912C434.979 207.788 434.979 207.658 434.946 207.535C434.932 207.403 434.881 207.278 434.799 207.174C431.403 204.596 428.204 201.77 425.228 198.718C423.57 196.83 422.145 194.75 420.983 192.523L420.885 192.359L420.786 189.753L411.92 186.491Z" fill="#231F20" stroke="#231F20" stroke-miterlimit="10"/>
<path d="M331.139 116.527C331.139 116.527 330.319 125.115 346.692 125.934C363.064 126.754 401.169 130.507 401.169 130.507L406.249 191.572L423.031 190.605V116.527C423.031 116.527 423.523 103.58 411.035 101.302C398.546 99.024 371.701 96.107 371.701 96.107" fill="white"/>
<path d="M331.139 116.527C331.139 116.527 330.319 125.115 346.692 125.934C363.064 126.754 401.169 130.507 401.169 130.507L406.249 191.572L423.031 190.605V116.527C423.031 116.527 423.523 103.58 411.035 101.302C398.546 99.024 371.701 96.107 371.701 96.107" stroke="#231F20" stroke-width="2" stroke-linecap="round" stroke-linejoin="round"/>
<path d="M331.139 116.527L371.652 96.107L399.202 49.431C399.202 49.431 387.795 32.583 386.861 32.895C385.927 33.206 379.257 29.781 369.03 40.024C329.5 79.57 331.139 116.527 331.139 116.527Z" stroke="#231F20" stroke-width="2" stroke-linecap="round" stroke-linejoin="round"/>
<path d="M373.865 53.889L401.3 89.453C401.3 89.453 408.429 99.925 422.048 90.534C430.777 84.293 438.564 76.831 445.173 68.377L431.472 56.446L414.722 69.704L399.153 49.431" fill="white"/>
<path d="M373.865 53.889L401.3 89.453C401.3 89.453 408.429 99.925 422.048 90.534C430.777 84.293 438.564 76.831 445.173 68.377L431.472 56.446L414.722 69.704L399.153 49.431" stroke="#231F20" stroke-width="2" stroke-linecap="round" stroke-linejoin="round"/>
<path d="M422.327 140.75C423.638 141.717 460.578 182.263 460.578 182.263L473.542 170.283L422.917 111.824L422.327 140.75Z" fill="#231F20"/>
<path d="M472.46 189.327C472.137 189.426 471.797 189.459 471.461 189.425C471.038 189.373 470.63 189.234 470.264 189.015C469.896 188.801 469.573 188.517 469.314 188.179L460.431 178.346L469.641 170.021L472.723 171.479C475.019 171.434 477.304 171.148 479.54 170.627C483.506 169.413 487.379 167.912 491.127 166.136C491.608 165.948 492.134 165.914 492.635 166.038C493.135 166.164 493.583 166.445 493.913 166.841C494.338 167.281 494.575 167.869 494.575 168.48C494.575 169.091 494.338 169.679 493.913 170.119L473.312 188.769C473.067 189.008 472.778 189.198 472.46 189.327ZM462.988 178.444L470.69 186.95C470.792 187.099 470.927 187.222 471.084 187.311C471.239 187.407 471.412 187.474 471.592 187.507C471.673 187.524 471.756 187.524 471.838 187.507C471.916 187.486 471.989 187.447 472.051 187.393L492.668 168.742C492.782 168.627 492.782 168.283 492.504 167.972C492.422 167.869 492.315 167.79 492.192 167.742C492.07 167.701 491.938 167.701 491.816 167.742C487.959 169.567 483.97 171.101 479.884 172.331C477.449 172.925 474.951 173.228 472.444 173.233H472.247L469.887 172.118L462.988 178.444Z" fill="#231F20" stroke="#231F20" stroke-miterlimit="10"/>
<path d="M461.498 41.787L435.418 51.636L436.871 55.484L462.951 45.635L461.498 41.787Z" fill="#231F20"/>
<path d="M442.927 66.476C443.468 65.607 462.316 44.301 458.136 47.694C457.891 47.907 439.879 54.725 439.879 54.725L435.421 59.953L442.927 66.476Z" stroke="#231F20" stroke-width="2" stroke-linecap="round" stroke-linejoin="round"/>
<path d="M393.417 20.669C393.87 23.224 394.595 25.724 395.58 28.126C396.587 30.538 398.346 32.561 400.595 33.894C401.721 34.546 402.998 34.889 404.299 34.889C405.6 34.889 406.877 34.546 408.003 33.894C409.537 32.698 410.725 31.114 411.444 29.306C414.234 23.561 415.903 17.336 416.361 10.966" stroke="#231F20" stroke-width="2" stroke-linecap="round" stroke-linejoin="round"/>
<path d="M393.843 20.144L385.632 31.911" stroke="#231F20" stroke-width="2" stroke-linecap="round" stroke-linejoin="round"/>
<path d="M395.137 43.597C395.056 43.482 402.922 34.878 402.922 34.878" stroke="#231F20" stroke-width="2" stroke-linecap="round" stroke-linejoin="round"/>
<path d="M387.992 20.98C388.444 22.167 389.324 23.141 390.458 23.711C391.593 24.282 392.899 24.406 394.121 24.061C396.203 23.242 397.203 20.947 398.579 19.144C399.661 17.775 401.042 16.671 402.615 15.915C404.188 15.16 405.913 14.773 407.659 14.785C410.403 15.077 413.107 15.671 415.722 16.555C418.365 17.444 421.253 17.25 423.753 16.014C424.869 15.321 425.742 14.298 426.252 13.087C426.762 11.876 426.883 10.537 426.599 9.25401C426.314 7.97101 425.639 6.808 424.665 5.926C423.691 5.044 422.468 4.486 421.163 4.329C418.524 4.017 415.476 4.198 412.87 3.788C409.838 3.313 410.019 2.64101 407.134 1.62501C403.365 0.281009 397.071 1.24801 394.302 4.14901C391.953 6.40001 389.992 9.02502 388.5 11.917C387.145 14.753 386.962 18.01 387.992 20.98Z" fill="#231F20" stroke="#231F20" stroke-width="0.25" stroke-miterlimit="10"/>
</svg>
