<?xml version="1.0" encoding="utf-8"?>
<!-- Generator: Adobe Illustrator 21.1.0, SVG Export Plug-In . SVG Version: 6.00 Build 0)  -->
<svg version="1.1" xmlns="http://www.w3.org/2000/svg" xmlns:xlink="http://www.w3.org/1999/xlink" x="0px" y="0px"
	 viewBox="0 0 500 500" style="enable-background:new 0 0 500 500;" xml:space="preserve">
<style type="text/css">
	.st0{fill:#1A1A1A;}
	.st1{fill:none;stroke:#1A1A1A;stroke-width:5;stroke-linecap:round;stroke-linejoin:round;stroke-miterlimit:10;}
	.st2{fill:#1A1A1A;stroke:#1A1A1A;stroke-width:5;stroke-linecap:round;stroke-linejoin:round;stroke-miterlimit:10;}
	.st3{fill:#FFFFFF;}
	.st4{fill:none;stroke:#1A1A1A;stroke-width:10;stroke-linecap:round;stroke-linejoin:round;stroke-miterlimit:10;}
	.st5{stroke:#1A1A1A;stroke-width:10;stroke-linecap:round;stroke-linejoin:round;stroke-miterlimit:10;}
</style>
<g id="Capa_3">
</g>
<g id="Capa_2">
	<g>
		<g>
			<g id="XMLID_1_">
				<g>
					<path className="st0" d="M385,279c4.6,4.4,4.1,12-1.3,17l-7,6.6l-0.1-0.1l-72.4-68.4l7.9-7.5c4.8-4.5,12.1-5,16.3-1.1L385,279z"/>
					<path className="st0" d="M233.9,136.1c4.2,3.9,3.7,10.8-1.1,15.4l-7.9,7.5l-72.4-68.4l-0.1-0.1l7-6.6c5.3-5,13.4-5.6,18-1.2
						L233.9,136.1z"/>
				</g>
				<g>
					<path className="st1" d="M248.5,211.8l27.5,26c6.8,6.4,18.6,5.6,26.3-1.7l2-1.9l7.9-7.5c4.8-4.5,12.1-5,16.3-1.1L385,279
						c4.6,4.4,4.1,12-1.3,17l-7,6.6l-20.1,19c-24.8,23.5-62.5,26-84.1,5.5L199.6,258"/>
					<polyline className="st1" points="304.4,234.1 304.4,234.1 376.7,302.5 					"/>
					<path className="st1" d="M248.5,211.8l-27.5-26c-6.8-6.4-5.9-17.6,1.8-24.9l2-1.9l7.9-7.5c4.8-4.5,5.3-11.4,1.1-15.4l-56.5-53.4
						c-4.6-4.4-12.7-3.8-18,1.2l-7,6.6l-20.1,19c-24.8,23.5-27.5,59.1-5.9,79.5l73.1,69.1"/>
					<line className="st1" x1="224.9" y1="158.9" x2="152.5" y2="90.5"/>
				</g>
			</g>
		</g>
		<line className="st1" x1="202.6" y1="76.4" x2="203.2" y2="65.3"/>
		<line className="st1" x1="237.2" y1="109.1" x2="248.9" y2="108.6"/>
		<line className="st1" x1="224.9" y1="88.1" x2="236.8" y2="70.9"/>
		<g>
			<path className="st2" d="M213.4,395.7h-28.6c-0.3,0-0.6,0-0.9,0.1c-4.1,0.7-35,7-38.7,33.6c-0.4,2.8,1.9,5.3,4.9,5.3h63.2
				c2.7,0,5-2.1,5-4.7v-29.5C218.3,397.8,216.1,395.7,213.4,395.7z"/>
			<path className="st1" d="M201,395.7c-8.3-37.3-8.3-97.9,0-136.3"/>
			<path className="st2" d="M286.6,395.7h28.6c0.3,0,0.6,0,0.9,0.1c4.1,0.7,35,7,38.7,33.6c0.4,2.8-1.9,5.3-4.9,5.3h-63.2
				c-2.7,0-5-2.1-5-4.7v-29.5C281.7,397.8,283.9,395.7,286.6,395.7z"/>
			<path className="st1" d="M299,395.7c3.4-15.3,5.4-34.7,6-54.9"/>
		</g>
		<path className="st1" d="M133.9,136.2c-6.7,13.5-3.1,32,6.3,41.6"/>
	</g>
</g>
</svg>
