<svg version="1.1" id="Capa_1" xmlns="http://www.w3.org/2000/svg" x="0" y="0" viewBox="0 0 500 500" xml:space="preserve"><style>.st7{fill:#fff}</style><path d="M52.8 429.8c-8.7 0-15.8-7.1-15.8-15.8V98.4c0-8.7 7.1-15.8 15.8-15.8h149.5c8.7 0 15.8 7.1 15.8 15.8s-7.1 15.8-15.8 15.8H68.6V414c0 8.7-7.1 15.8-15.8 15.8z"/><path d="M450.3 422.5l-227.6 41.8c-10.9 2-21.6-3.6-21.6-11.3V45.3c0-7.7 10.7-13.2 21.6-11.3l227.6 41.8c7.5 1.4 12.7 6 12.7 11.3v324.2c-.1 5.3-5.2 9.9-12.7 11.2z"/><ellipse class="st7" cx="270.8" cy="251" rx="20.8" ry="21.8"/><g><path class="st7" d="M212.1 485.1c-8.7 0-15.8-7.7-15.8-17.1V32c0-9.5 7.1-17.1 15.8-17.1 8.7 0 15.8 7.7 15.8 17.1v436c0 9.5-7.1 17.1-15.8 17.1z"/></g><g><path class="st7" d="M431.7 156.7c-5.9 0-10.8-4.8-10.8-10.8v-28.7l-25.7-4.7a10.9 10.9 0 01-8.7-12.5c1.1-5.8 6.7-9.7 12.5-8.7l34.5 6.3c5.1.9 8.8 5.4 8.8 10.6v37.6c.1 6.1-4.7 10.9-10.6 10.9z"/></g><g><path class="st7" d="M319.4 260.7h-49a9.7 9.7 0 010-19.4h49c5.3 0 9.7 4.3 9.7 9.7-.1 5.3-4.4 9.7-9.7 9.7z"/></g></svg>