<svg xmlns="http://www.w3.org/2000/svg" width="673.551" height="633.26" viewBox="0 0 673.551 633.26">
  <g id="Working_from_anywhere-bro" data-name="Working from anywhere-bro" transform="translate(-7.277 -32.6)">
    <g id="freepik--Plants--inject-2" transform="translate(39.148 401.026)" opacity="0.5">
      <path id="Path_768" data-name="Path 768" d="M79.81,380.3c2.445,1.07,8.433.931,8.433.931s-1.278-3.918-1.389-4.168c-1.306-2.779-5.46-7.266-8.836-6.822A4.043,4.043,0,0,0,74.78,375.3C75.336,377.658,77.726,379.394,79.81,380.3Z" transform="translate(-13.076 -269.793)" fill="#fff"/>
      <path id="Path_769" data-name="Path 769" d="M81.758,402.448c2.529.375,7.878-1.181,8.336-1.306a71.631,71.631,0,0,0,3.237,8.961c.736,1.695,1.528,3.39,2.348,5.071a11.255,11.255,0,0,0-1-1.389c-1.987-2.306-7.2-5.557-10.323-4.237a4.015,4.015,0,0,0-1.792,5.724c1.153,2.112,3.932,3.154,6.183,3.473s6.863-.889,8.058-1.237l.959,1.931c1.542,3.084,3.1,6.141,4.529,9.2.514,1.07.973,2.153,1.389,3.223l-.861-1.237c-2-2.292-7.2-5.557-10.323-4.237a4.015,4.015,0,0,0-1.792,5.724c1.153,2.112,3.932,3.154,6.183,3.473s6.4-.778,7.85-1.167c.431,1.111.875,2.223,1.25,3.334.25.75.528,1.473.722,2.237s.431,1.528.639,2.279c.347,1.389.722,2.945,1.028,4.376l.6,2.9c-.486-1.084-1.487-3.168-1.6-3.334-1.612-2.57-6.266-6.6-9.559-5.752a4.029,4.029,0,0,0-2.64,5.391c.834,2.251,3.418,3.71,5.557,4.376,2.39.722,7.683,0,8.336,0,.32,1.584.611,3.126.861,4.585.57,3.223,1,6.113,1.389,8.558h2.223c-.389-2.529-.889-5.557-1.57-8.933-.32-1.612-.681-3.321-1.084-5.071a43.875,43.875,0,0,0,4.668-2.2,29.356,29.356,0,0,0,6.78,4.376c-.6,1.5-1.209,2.945-1.806,4.307-1.236,2.848-2.4,5.363-3.446,7.516h2.39c.889-1.987,1.876-4.237,2.89-6.724.625-1.528,1.264-3.154,1.9-4.835.639.125,5.877,1.195,8.336.639,2.223-.5,4.9-1.751,5.9-3.946a4.043,4.043,0,0,0-2.237-5.557c-3.223-1.084-8.155,2.584-9.961,5.029-.111.153-1.084,1.848-1.695,2.931l.778-2.07c.514-1.389.986-2.779,1.5-4.349.222-.736.445-1.5.681-2.251s.389-1.57.6-2.362c.445-1.848.792-3.737,1.111-5.641,1.237.445,5.557,1.973,7.905,1.806s5.113-.986,6.419-3a4.029,4.029,0,0,0-1.389-5.849c-3.029-1.556-8.461,1.32-10.614,3.459-.139.139-1.514,1.848-2.251,2.779.181-1.153.375-2.292.514-3.473.417-3.376.736-6.808,1.07-10.225l.333-3.14c.431.167,5.557,2.1,8.169,1.917,2.265-.153,5.113-.986,6.419-3.015a4.015,4.015,0,0,0-1.389-5.835c-3.029-1.57-8.461,1.389-10.615,3.459-.167.167-2.14,2.626-2.612,3.279.25-2.292.514-4.585.861-6.836a73.246,73.246,0,0,1,1.959-9c.208.083,5.557,2.126,8.225,1.931,2.265-.153,5.113-.986,6.419-3a4.029,4.029,0,0,0-1.389-5.849c-3.029-1.556-8.461,1.32-10.614,3.459-.167.181-2.292,2.779-2.64,3.348l.125-.528a53.644,53.644,0,0,1,3.571-8.517c.778-1.514,1.6-2.918,2.431-4.279.973.486,5.418,2.654,7.78,2.779s5.2-.417,6.724-2.279a4.043,4.043,0,0,0-.709-5.96c-2.779-1.889-8.558.389-10.934,2.279-.125.1-1.389,1.292-2.181,2.181.375-.611.764-1.237,1.153-1.806,1.389-2.153,2.862-4.029,4.168-5.682.75-.931,1.389-1.764,2.084-2.529,1.195,0,6.016-.167,8.128-1.153s4.4-2.779,4.9-5.127a4.029,4.029,0,0,0-3.376-4.96c-3.39-.361-7.405,4.279-8.656,7.058-.1.236-1.389,4.168-1.278,4.168h.069c-.639.736-1.389,1.514-2.042,2.39-1.389,1.639-2.779,3.487-4.279,5.557a69.044,69.044,0,0,0-4.446,7.072,52.118,52.118,0,0,0-3.793,8.544v-3.89c-.389-3.029-2.918-8.628-6.266-9.239a4.029,4.029,0,0,0-4.654,3.793c-.194,2.39,1.542,4.793,3.237,6.308,1.917,1.709,7.225,3.362,7.641,3.487a72.536,72.536,0,0,0-2.237,9.253c-.333,1.834-.6,3.682-.848,5.557v-1.737c-.389-3.029-2.918-8.628-6.266-9.239a4.029,4.029,0,0,0-4.654,3.793c-.195,2.39,1.542,4.793,3.237,6.308s6.21,3.029,7.405,3.418c-.083.709-.181,1.389-.264,2.14-.417,3.418-.806,6.822-1.292,10.17-.167,1.167-.389,2.32-.6,3.473v-1.514c-.389-3.015-2.918-8.614-6.266-9.225a4.029,4.029,0,0,0-4.654,3.793c-.195,2.39,1.542,4.793,3.237,6.308s5.78,2.89,7.2,3.348c-.25,1.167-.486,2.348-.792,3.473-.208.764-.375,1.514-.625,2.279s-.486,1.5-.722,2.237c-.514,1.389-1.042,2.862-1.57,4.168-.361.945-.736,1.848-1.1,2.779.181-1.167.5-3.473.5-3.668a15.533,15.533,0,0,0-2.1-7.614,3.834,3.834,0,0,0,0-.889,4.029,4.029,0,0,0-4.932-3.418c-3.293.875-5.377,6.655-5.557,9.725,0,.167.111,2.126.195,3.362-.167-.722-.32-1.389-.486-2.153-.347-1.389-.736-2.89-1.153-4.446-.222-.75-.445-1.5-.681-2.251s-.528-1.528-.792-2.306c-.653-1.778-1.389-3.557-2.2-5.321,1.278-.306,5.794-1.459,7.6-2.848s3.71-3.64,3.7-6.057a4.029,4.029,0,0,0-4.349-4.168c-3.39.375-6.335,5.766-6.947,8.753,0,.181-.236,2.362-.32,3.571-.486-1.056-.973-2.112-1.487-3.168-1.514-3.057-3.14-6.1-4.752-9.128-.5-.931-.986-1.876-1.389-2.779.445-.1,5.835-1.389,7.864-2.9,1.806-1.389,3.723-3.654,3.7-6.057a4.029,4.029,0,0,0-4.349-4.168c-3.39.375-6.321,5.766-6.947,8.739,0,.236-.32,3.376-.361,4.168-1.07-2.056-2.112-4.168-3.057-6.182a71.8,71.8,0,0,1-3.5-8.544c.208,0,5.835-1.389,7.919-2.918,1.806-1.389,3.71-3.654,3.7-6.057A4.029,4.029,0,0,0,98.125,388c-3.39.375-6.335,5.766-6.947,8.739,0,.236-.347,3.626-.361,4.251a1.746,1.746,0,0,0-.181-.514,52.25,52.25,0,0,1-1.723-9.058c-.195-1.695-.278-3.32-.32-4.9,1.07-.139,5.96-.778,7.989-2.015s4.168-3.209,4.349-5.557a4.029,4.029,0,0,0-3.876-4.571c-3.4,0-6.947,5.029-7.864,7.919,0,.167-.389,1.82-.625,3.029v-2.14c0-2.57.167-4.932.32-7.03.111-1.181.222-2.251.347-3.251.986-.681,4.918-3.459,6.127-5.446s2.153-4.738,1.278-6.947a4.043,4.043,0,0,0-5.557-2.292c-3.029,1.57-3.821,7.669-3.32,10.67,0,.25,1.181,4.168,1.237,4.168h0c-.125.959-.264,2-.375,3.126-.208,2.084-.431,4.446-.486,7.03a71.846,71.846,0,0,0,.195,8.336,52.115,52.115,0,0,0,1.556,9.211.263.263,0,0,0,0,.111c-.528-.847-2.112-3.14-2.251-3.307-1.987-2.306-7.2-5.557-10.323-4.251a4.029,4.029,0,0,0-1.792,5.738C76.729,401.142,79.508,402.114,81.758,402.448Z" transform="translate(-12.955 -274.619)" fill="#fff"/>
      <path id="Path_770" data-name="Path 770" d="M124.215,382.666s1.1-3.973,1.125-4.237c.417-3.015-.542-9.086-3.612-10.559a4.015,4.015,0,0,0-5.474,2.417c-.834,2.265.208,5.043,1.389,6.947C119.158,379.471,124.215,382.666,124.215,382.666Z" transform="translate(3.01 -270.843)" fill="#fff"/>
      <path id="Path_771" data-name="Path 771" d="M33.429,422.367a17.2,17.2,0,0,0,5.043.556s-.778-2.334-.847-2.473c-.778-1.653-3.265-4.363-5.279-4.085a2.417,2.417,0,0,0-1.931,3.029,5.029,5.029,0,0,0,3.015,2.973Z" transform="translate(-30.327 -251.831)" fill="#fff"/>
      <path id="Path_772" data-name="Path 772" d="M34.612,435.628a16.434,16.434,0,0,0,4.96-.778,42.833,42.833,0,0,0,1.931,5.363c.445,1.014.917,2.028,1.389,3.029-.292-.431-.556-.806-.6-.847C41.1,441,38,439.059,36.126,439.851a2.39,2.39,0,0,0-1.07,3.418,5.029,5.029,0,0,0,3.7,2.084,15.989,15.989,0,0,0,4.821-.736l.57,1.153c.917,1.834,1.848,3.668,2.779,5.488.306.653.57,1.292.847,1.931-.25-.375-.472-.695-.514-.736-1.195-1.389-4.293-3.334-6.169-2.529a2.39,2.39,0,0,0-1.07,3.418,5.029,5.029,0,0,0,3.7,2.084,15.657,15.657,0,0,0,4.682-.709c.264.667.528,1.389.764,2,.139.445.306.875.431,1.389l.375,1.389c.208.861.431,1.764.611,2.626.139.583.25,1.153.361,1.723-.292-.639-.889-1.889-.959-1.987-.959-1.542-3.737-3.946-5.71-3.446a2.417,2.417,0,0,0-1.584,3.223,5.043,5.043,0,0,0,3.348,2.612,16.186,16.186,0,0,0,4.988,0c.195.945.361,1.876.514,2.779.347,1.917.6,3.64.792,5.113h1.389c-.236-1.514-.528-3.32-.931-5.335-.195-.973-.417-1.987-.653-3.043a28.194,28.194,0,0,0,2.779-1.306,17.6,17.6,0,0,0,4.057,2.612c-.361.9-.736,1.764-1.084,2.57-.736,1.709-1.389,3.209-2.056,4.5h1.389c.528-1.181,1.111-2.529,1.723-4.029.375-.9.75-1.876,1.139-2.89a16.281,16.281,0,0,0,4.974.389,5.016,5.016,0,0,0,3.529-2.362,2.4,2.4,0,0,0-1.389-3.32c-1.931-.653-4.877,1.542-5.96,3,0,.083-.653,1.1-1.014,1.751.153-.417.306-.806.458-1.237.32-.847.6-1.7.9-2.6.139-.445.264-.889.4-1.389s.236-.945.361-1.389q.389-1.639.667-3.376a15.463,15.463,0,0,0,4.724,1.1,5.057,5.057,0,0,0,3.848-1.806,2.4,2.4,0,0,0-.82-3.487c-1.806-.945-5.057.778-6.335,2.07-.083.069-.9,1.1-1.389,1.667.111-.681.222-1.389.306-2.07.25-2.015.445-4.071.639-6.113a17.165,17.165,0,0,1,.195-1.876,16.671,16.671,0,0,0,4.89,1.139,5.071,5.071,0,0,0,3.835-1.792,2.417,2.417,0,0,0-.806-3.5c-1.806-.931-5.057.792-6.349,2.07-.1.1-1.278,1.57-1.556,1.973.139-1.389.306-2.779.514-4.1a43.876,43.876,0,0,1,1.237-5.488,17.257,17.257,0,0,0,4.918,1.153,5.043,5.043,0,0,0,3.835-1.792,2.4,2.4,0,0,0-.806-3.5c-1.806-.931-5.057.792-6.349,2.07-.1.1-1.389,1.695-1.57,2a2.775,2.775,0,0,1,.083-.32A30.565,30.565,0,0,1,68.178,429c.458-.9.959-1.751,1.389-2.556a15.986,15.986,0,0,0,4.71,1.64,5.057,5.057,0,0,0,4.015-1.389,2.4,2.4,0,0,0-.431-3.557c-1.695-1.125-5.113.222-6.53,1.389a15.3,15.3,0,0,0-1.306,1.306l.681-1.084c.861-1.278,1.723-2.4,2.487-3.39.445-.556.847-1.056,1.237-1.514a16.007,16.007,0,0,0,4.863-.695,5.015,5.015,0,0,0,2.931-3.056,2.417,2.417,0,0,0-2.015-2.973c-2.028-.222-4.432,2.556-5.168,4.168,0,.139-.806,2.5-.778,2.5h0l-1.223,1.389c-.792.973-1.667,2.084-2.556,3.348a42.163,42.163,0,0,0-2.654,4.237,31.081,31.081,0,0,0-2.265,5.1v-2.32c-.236-1.806-1.751-5.154-3.751-5.557a2.4,2.4,0,0,0-2.779,2.265,5.071,5.071,0,0,0,1.931,3.779,17.327,17.327,0,0,0,4.571,2.084,41.176,41.176,0,0,0-1.389,5.557c-.195,1.1-.361,2.2-.514,3.307v-1.042c-.222-1.806-1.737-5.154-3.737-5.557a2.431,2.431,0,0,0-2.779,2.279,5.057,5.057,0,0,0,1.945,3.765,15.866,15.866,0,0,0,4.418,2.042,9.73,9.73,0,0,1-.153,1.278c-.25,2.042-.486,4.085-.778,6.085-.1.695-.222,1.389-.347,2.084v-.9c-.236-1.806-1.737-5.154-3.751-5.557a2.417,2.417,0,0,0-2.779,2.265,5.085,5.085,0,0,0,1.945,3.779,15.282,15.282,0,0,0,4.293,2c-.139.695-.292,1.389-.472,2.084-.125.445-.222.9-.375,1.389s-.292.9-.431,1.389c-.306.834-.625,1.709-.945,2.515-.208.57-.431,1.111-.653,1.653.111-.709.306-2.07.306-2.2a9.364,9.364,0,0,0-1.25-4.543,3.556,3.556,0,0,0,0-.542,2.4,2.4,0,0,0-2.945-2.042c-1.973.528-3.209,3.973-3.307,5.793a14.927,14.927,0,0,0,.125,2.015c-.111-.431-.195-.847-.306-1.278-.208-.875-.431-1.737-.681-2.668-.139-.445-.278-.889-.4-1.389s-.32-.917-.486-1.389c-.389-1.07-.834-2.126-1.306-3.182a16.076,16.076,0,0,0,4.543-1.695,5.016,5.016,0,0,0,2.14-3.459,2.417,2.417,0,0,0-2.6-2.473c-2.028.222-3.793,3.459-4.168,5.238,0,.111-.139,1.389-.195,2.14-.292-.639-.57-1.278-.889-1.9-.9-1.82-1.876-3.64-2.779-5.46-.306-.556-.584-1.111-.875-1.667a17.158,17.158,0,0,0,4.71-1.737,5.113,5.113,0,0,0,2.209-3.626A2.417,2.417,0,0,0,48.269,436c-2.015.222-3.779,3.446-4.168,5.224,0,.139-.208,2.015-.222,2.5-.639-1.237-1.264-2.459-1.834-3.7a43.449,43.449,0,0,1-1.987-5.141,16.812,16.812,0,0,0,4.738-1.75A4.974,4.974,0,0,0,47,429.529a2.417,2.417,0,0,0-2.6-2.473c-2.028.222-3.779,3.446-4.168,5.238,0,.139-.208,2.153-.222,2.529l-.1-.306a31.428,31.428,0,0,1-1.028-5.418c-.111-1.014-.167-1.987-.195-2.931a16.326,16.326,0,0,0,4.779-1.209,5.015,5.015,0,0,0,2.6-3.4,2.4,2.4,0,0,0-2.362-2.779c-2.042,0-4.168,3-4.7,4.738,0,.1-.236,1.084-.375,1.806v-1.278c0-1.542.111-2.945.208-4.168a15.073,15.073,0,0,1,.195-1.945,16.391,16.391,0,0,0,3.668-3.265,5.029,5.029,0,0,0,.764-4.168,2.417,2.417,0,0,0-3.321-1.389c-1.806.931-2.292,4.571-1.987,6.363,0,.153.709,2.542.736,2.515h0c-.083.584-.167,1.195-.236,1.876-.125,1.25-.25,2.654-.292,4.168a43.919,43.919,0,0,0,.125,4.988,30.926,30.926,0,0,0,.931,5.557h0c-.32-.5-1.264-1.876-1.389-1.973-1.195-1.389-4.293-3.334-6.169-2.542a2.417,2.417,0,0,0-1.07,3.432A5.016,5.016,0,0,0,34.612,435.628Z" transform="translate(-30.273 -254.741)" fill="#fff"/>
      <path id="Path_773" data-name="Path 773" d="M59.964,423.792s.653-2.376.667-2.542c.25-1.792-.32-5.418-2.153-6.308a2.4,2.4,0,0,0-3.279,1.389,5.016,5.016,0,0,0,.861,4.168,17.672,17.672,0,0,0,3.9,3.293Z" transform="translate(-20.697 -252.464)" fill="#fff"/>
      <path id="Path_774" data-name="Path 774" d="M407.363,320.458c-2.445,1.07-8.433.931-8.433.931s1.278-3.918,1.389-4.168c1.306-2.779,5.46-7.28,8.836-6.822a4.043,4.043,0,0,1,3.237,5.057C411.781,317.8,409.392,319.583,407.363,320.458Z" transform="translate(113.181 -293.091)" fill="#fff"/>
      <path id="Path_775" data-name="Path 775" d="M425.784,342.624c-2.529.361-7.878-1.181-8.336-1.306a70.67,70.67,0,0,1-3.237,8.947c-.736,1.709-1.528,3.39-2.348,5.085a10.136,10.136,0,0,1,1-1.389c1.987-2.306,7.2-5.557,10.323-4.251a4.029,4.029,0,0,1,1.792,5.724c-1.153,2.112-3.932,3.154-6.182,3.487s-6.863-.9-8.058-1.237l-.889,1.889c-1.542,3.07-3.1,6.141-4.529,9.183-.514,1.084-.973,2.153-1.389,3.237.431-.639.806-1.167.861-1.237,2-2.306,7.2-5.557,10.323-4.251a4.029,4.029,0,0,1,1.792,5.738c-1.153,2.1-3.932,3.14-6.182,3.473s-6.4-.778-7.85-1.181c-.431,1.125-.875,2.237-1.25,3.334-.25.764-.528,1.473-.722,2.251s-.431,1.514-.639,2.265c-.347,1.389-.722,2.959-1.028,4.39-.208.986-.4,1.945-.6,2.89.486-1.07,1.487-3.154,1.6-3.321,1.612-2.584,6.266-6.6,9.559-5.766a4.043,4.043,0,0,1,2.64,5.391c-.834,2.265-3.418,3.71-5.557,4.376-2.39.736-7.683.069-8.336,0-.32,1.584-.611,3.126-.861,4.585-.57,3.223-1,6.113-1.389,8.558h-2.223c.389-2.529.889-5.557,1.57-8.919.32-1.612.681-3.321,1.084-5.085a42.734,42.734,0,0,1-4.668-2.181,29.36,29.36,0,0,1-6.78,4.376c.6,1.5,1.209,2.945,1.806,4.307,1.237,2.779,2.4,5.363,3.446,7.5h-2.417c-.889-1.973-1.876-4.168-2.89-6.724-.625-1.514-1.264-3.154-1.9-4.835-.639.139-5.877,1.209-8.336.653-2.223-.5-4.9-1.751-5.9-3.946a4.043,4.043,0,0,1,2.237-5.557c3.223-1.084,8.155,2.584,9.962,5.029.111.139,1.084,1.834,1.7,2.918-.264-.681-.514-1.389-.778-2.07-.514-1.389-.986-2.779-1.5-4.335-.222-.75-.445-1.5-.681-2.265s-.389-1.57-.6-2.348c-.445-1.848-.792-3.737-1.111-5.655-1.237.445-5.627,1.973-7.905,1.82s-5.113-1-6.419-3.015a4.015,4.015,0,0,1,1.389-5.835c3.029-1.57,8.461,1.306,10.615,3.459.139.139,1.514,1.848,2.251,2.779-.181-1.153-.375-2.306-.514-3.473-.417-3.376-.736-6.808-1.07-10.239l-.333-3.126c-.431.153-5.557,2.084-8.169,1.917-2.265-.167-5.113-1-6.419-3.015a4.029,4.029,0,0,1,1.389-5.849c3.029-1.556,8.461,1.32,10.615,3.473.167.153,2.14,2.626,2.612,3.279-.25-2.306-.514-4.6-.861-6.849a73.027,73.027,0,0,0-1.959-8.989c-.208.069-5.557,2.112-8.225,1.931-2.265-.167-5.113-.986-6.419-3.015a4.015,4.015,0,0,1,1.389-5.835c3.029-1.57,8.461,1.32,10.614,3.459.167.167,2.292,2.779,2.64,3.334l-.125-.528a52.946,52.946,0,0,0-3.571-8.5c-.778-1.528-1.6-2.932-2.431-4.279-.973.486-5.418,2.64-7.78,2.779s-5.2-.431-6.724-2.279a4.043,4.043,0,0,1,.708-5.96c2.779-1.889,8.544.375,10.934,2.279.125.1,1.32,1.292,2.181,2.167-.375-.6-.764-1.223-1.153-1.792-1.389-2.153-2.862-4.029-4.168-5.682-.75-.931-1.389-1.764-2.084-2.529-1.195,0-6.016-.167-8.128-1.167s-4.4-2.779-4.9-5.113a4.043,4.043,0,0,1,3.376-4.974c3.39-.361,7.405,4.279,8.656,7.058.1.25,1.389,4.168,1.278,4.168h-.069c.639.722,1.32,1.514,2.042,2.39,1.32,1.626,2.779,3.473,4.279,5.557a69.305,69.305,0,0,1,4.446,7.086,51.583,51.583,0,0,1,3.793,8.544v-3.9c.389-3.015,2.918-8.614,6.266-9.239a4.029,4.029,0,0,1,4.654,3.793c.195,2.4-1.542,4.807-3.237,6.321-1.917,1.695-7.225,3.348-7.641,3.487a72.536,72.536,0,0,1,2.237,9.253c.333,1.82.6,3.668.847,5.557v-1.751c.389-3.015,2.918-8.614,6.266-9.239a4.029,4.029,0,0,1,4.654,3.793c.195,2.4-1.542,4.793-3.237,6.308s-6.21,3.043-7.405,3.418c.083.722.181,1.389.264,2.14.417,3.418.806,6.836,1.292,10.17.167,1.181.389,2.334.6,3.487v-1.514c.389-3.015,2.918-8.614,6.266-9.239a4.029,4.029,0,0,1,4.654,3.793c.195,2.4-1.542,4.793-3.237,6.308s-5.78,2.89-7.2,3.348c.25,1.181.486,2.362.792,3.487.208.764.375,1.514.625,2.265s.486,1.5.722,2.237c.514,1.389,1.042,2.862,1.57,4.168.361.959.736,1.848,1.1,2.779-.195-1.167-.5-3.459-.5-3.654a15.534,15.534,0,0,1,2.1-7.614,3.781,3.781,0,0,1,0-.889,4.043,4.043,0,0,1,4.932-3.432c3.293.875,5.377,6.655,5.557,9.725,0,.181-.111,2.14-.195,3.376.167-.722.32-1.389.486-2.153.347-1.459.736-2.9,1.153-4.46.222-.736.445-1.487.681-2.251s.528-1.528.792-2.306c.653-1.778,1.389-3.543,2.2-5.321-1.278-.306-5.794-1.389-7.6-2.779s-3.71-3.654-3.7-6.057a4.029,4.029,0,0,1,4.349-4.168c3.39.361,6.335,5.766,6.947,8.739,0,.195.236,2.376.32,3.584.486-1.07.973-2.126,1.487-3.182,1.514-3.043,3.14-6.085,4.752-9.128q.75-1.389,1.459-2.779c-.445-.111-5.835-1.389-7.864-2.918-1.806-1.389-3.723-3.64-3.7-6.044a4.015,4.015,0,0,1,4.349-4.168c3.39.361,6.321,5.766,6.947,8.739,0,.222.32,3.376.361,4.168,1.07-2.056,2.112-4.168,3.057-6.183a72.719,72.719,0,0,0,3.32-8.586c-.208,0-5.835-1.389-7.919-2.932-1.806-1.389-3.71-3.64-3.7-6.044a4.029,4.029,0,0,1,4.349-4.168c3.39.361,6.335,5.766,6.947,8.739,0,.236.347,3.626.361,4.237a2.073,2.073,0,0,1,.181-.514,52.349,52.349,0,0,0,1.723-9.058c.195-1.7.278-3.321.32-4.918-1.07-.125-5.96-.778-7.989-2s-4.1-3.223-4.349-5.557a4.043,4.043,0,0,1,3.876-4.585c3.4,0,6.947,5.043,7.864,7.933,0,.153.389,1.82.625,3.029V323.3c0-2.584-.167-4.946-.32-7.03-.111-1.181-.222-2.265-.347-3.265-.986-.667-4.918-3.459-6.127-5.446s-2.153-4.738-1.278-6.947a4.043,4.043,0,0,1,5.557-2.279c3.029,1.57,3.821,7.655,3.321,10.656a42.439,42.439,0,0,1-1.237,4.168h0c.125.959.264,1.987.375,3.112.208,2.1.431,4.46.486,7.044a71.6,71.6,0,0,1-.195,8.336,52.057,52.057,0,0,1-1.556,9.225.331.331,0,0,1,0,.111c.528-.847,2.112-3.154,2.251-3.321,1.987-2.292,7.2-5.557,10.323-4.168a4.029,4.029,0,0,1,1.792,5.724C430.814,341.248,428.035,342.29,425.784,342.624Z" transform="translate(92.634 -297.932)" fill="#fff"/>
      <path id="Path_776" data-name="Path 776" d="M361.761,322.8s-1.1-3.973-1.125-4.168c-.417-3.015.542-9.086,3.612-10.573a4.015,4.015,0,0,1,5.474,2.431c.834,2.265-.208,5.029-1.389,6.947C366.818,319.619,361.761,322.8,361.761,322.8Z" transform="translate(98.236 -294.128)" fill="#fff"/>
      <path id="Path_777" data-name="Path 777" d="M432.813,345.547a17.432,17.432,0,0,1-5.043.57s.764-2.348.834-2.487c.778-1.639,3.265-4.349,5.279-4.085a2.431,2.431,0,0,1,1.945,3.029A5.1,5.1,0,0,1,432.813,345.547Z" transform="translate(124.409 -281.738)" fill="#fff"/>
      <path id="Path_778" data-name="Path 778" d="M443.832,358.837a16.892,16.892,0,0,1-4.96-.778,43.56,43.56,0,0,1-1.945,5.349c-.431,1.014-.9,2.028-1.389,3.029.292-.417.542-.806.6-.847,1.181-1.389,4.293-3.334,6.169-2.542a2.417,2.417,0,0,1,1.07,3.432,5.057,5.057,0,0,1-3.7,2.07,15.575,15.575,0,0,1-4.821-.736c-.195.389-.375.778-.57,1.153-.931,1.848-1.862,3.668-2.709,5.557-.306.639-.583,1.278-.861,1.931.264-.389.486-.695.514-.75,1.195-1.389,4.307-3.32,6.182-2.529a2.4,2.4,0,0,1,1.07,3.418,5.043,5.043,0,0,1-3.7,2.084,15.28,15.28,0,0,1-4.7-.709c-.264.667-.528,1.389-.75,2a12.535,12.535,0,0,0-.431,1.389l-.389,1.389c-.208.875-.417,1.764-.611,2.626-.125.584-.236,1.153-.361,1.723.292-.639.9-1.889.959-1.987.973-1.542,3.751-3.946,5.724-3.446a2.418,2.418,0,0,1,1.57,3.223,5.03,5.03,0,0,1-3.334,2.626,17.116,17.116,0,0,1-4.988,0c-.194.945-.375,1.862-.528,2.779-.333,1.917-.6,3.654-.792,5.113H424.77c.236-1.514.542-3.32.945-5.335.181-.959.4-1.987.639-3.043a24.206,24.206,0,0,1-2.779-1.306,17.772,17.772,0,0,1-4.057,2.626c.361.889.722,1.751,1.084,2.57.736,1.695,1.389,3.209,2.056,4.488h-1.389c-.528-1.181-1.125-2.529-1.737-4.015-.361-.917-.75-1.889-1.125-2.89a17.325,17.325,0,0,1-4.988.389,5.085,5.085,0,0,1-3.515-2.362,2.4,2.4,0,0,1,1.389-3.334c1.931-.653,4.877,1.542,5.946,3,.069.1.653,1.111,1.014,1.751-.153-.4-.306-.806-.458-1.237-.306-.834-.6-1.681-.9-2.6-.125-.445-.264-.889-.4-1.389s-.236-.931-.361-1.389c-.264-1.111-.472-2.237-.667-3.376a15.906,15.906,0,0,1-4.724,1.084,5.03,5.03,0,0,1-3.835-1.806,2.4,2.4,0,0,1,.806-3.487c1.82-.931,5.057.792,6.349,2.07.083.083.9,1.1,1.389,1.681-.111-.695-.222-1.389-.32-2.084-.25-2.015-.431-4.071-.639-6.113a17.154,17.154,0,0,0-.195-1.876,16.672,16.672,0,0,1-4.877,1.139,5,5,0,0,1-3.848-1.792,2.4,2.4,0,0,1,.82-3.487c1.806-.945,5.043.778,6.335,2.07.1.083,1.278,1.57,1.556,1.959-.139-1.389-.292-2.779-.5-4.1a43.9,43.9,0,0,0-1.181-5.377,16.672,16.672,0,0,1-4.918,1.153,4.974,4.974,0,0,1-3.835-1.792,2.417,2.417,0,0,1,.806-3.5c1.82-.931,5.057.792,6.349,2.084.1.1,1.389,1.681,1.584,1.987l-.083-.32a30.573,30.573,0,0,0-2.14-5.085c-.459-.9-.945-1.751-1.389-2.556a16.143,16.143,0,0,1-4.654,1.639,5.03,5.03,0,0,1-4.015-1.389,2.417,2.417,0,0,1,.417-3.571c1.7-1.125,5.113.236,6.544,1.389l1.306,1.306c-.236-.361-.458-.736-.695-1.084-.847-1.278-1.709-2.4-2.473-3.39-.445-.556-.861-1.056-1.25-1.514a15.921,15.921,0,0,1-4.849-.695,5.043,5.043,0,0,1-2.945-3.057,2.431,2.431,0,0,1,2.028-2.973c2.015-.208,4.432,2.556,5.168,4.168,0,.139.806,2.5.764,2.5h0l1.223,1.389c.792.973,1.681,2.084,2.556,3.348a42.164,42.164,0,0,1,2.668,4.237,31.612,31.612,0,0,1,2.265,5.1h0v-2.39c.222-1.806,1.737-5.154,3.737-5.557a2.417,2.417,0,0,1,2.779,2.279,4.988,4.988,0,0,1-1.931,3.765,16.1,16.1,0,0,1-4.571,2.084,41.4,41.4,0,0,1,1.389,5.557q.292,1.626.5,3.293V365.2c.236-1.806,1.751-5.154,3.751-5.557a2.4,2.4,0,0,1,2.779,2.265,4.987,4.987,0,0,1-1.931,3.765,16.02,16.02,0,0,1-4.432,2.056l.167,1.264c.236,2.056.472,4.085.764,6.085.1.709.236,1.389.347,2.084v-.9c.236-1.806,1.751-5.154,3.751-5.557a2.417,2.417,0,0,1,2.779,2.279,4.988,4.988,0,0,1-1.931,3.765,15.59,15.59,0,0,1-4.307,2c.153.709.306,1.389.472,2.084.139.458.222.9.389,1.389s.278.889.431,1.389c.306.847.611,1.709.931,2.529.222.556.431,1.1.653,1.639-.111-.695-.292-2.07-.292-2.181a9.268,9.268,0,0,1,1.25-4.557,3.286,3.286,0,0,1,0-.528,2.4,2.4,0,0,1,2.945-2.056c1.973.528,3.223,3.987,3.32,5.794,0,.111-.069,1.278-.125,2.015.1-.417.195-.834.292-1.278.208-.875.445-1.737.695-2.668.125-.445.264-.889.4-1.389s.32-.9.472-1.389c.389-1.056.834-2.126,1.306-3.182a15.589,15.589,0,0,1-4.529-1.695,5.085,5.085,0,0,1-2.223-3.626,2.417,2.417,0,0,1,2.612-2.459c2.028.222,3.779,3.446,4.168,5.224,0,.111.139,1.389.195,2.14.278-.639.57-1.264.889-1.9.9-1.82,1.876-3.64,2.779-5.446l.875-1.681a16.408,16.408,0,0,1-4.71-1.737,5.015,5.015,0,0,1-2.209-3.612,2.4,2.4,0,0,1,2.6-2.473c2.028.222,3.779,3.445,4.168,5.224,0,.139.195,2.015.222,2.5.625-1.223,1.25-2.459,1.82-3.7a40.3,40.3,0,0,0,1.987-5.141,17.269,17.269,0,0,1-4.738-1.737,5.113,5.113,0,0,1-2.209-3.626,2.417,2.417,0,0,1,2.612-2.459c2.014.222,3.779,3.445,4.168,5.224,0,.139.222,2.167.222,2.529a1.026,1.026,0,0,1,.111-.306,31.421,31.421,0,0,0,1.028-5.418c.111-1.014.167-1.987.195-2.932a16.672,16.672,0,0,1-4.779-1.195,5.029,5.029,0,0,1-2.6-3.362,2.4,2.4,0,0,1,2.306-2.779c2.042,0,4.168,3.015,4.71,4.738,0,.1.236,1.084.375,1.806v-1.278c0-1.542-.1-2.945-.195-4.168a12.841,12.841,0,0,0-.208-1.945,16.048,16.048,0,0,1-3.668-3.265,5.016,5.016,0,0,1-.75-4.168,2.417,2.417,0,0,1,3.321-1.389c1.806.931,2.279,4.585,1.987,6.377a26.171,26.171,0,0,1-.75,2.515h0c.069.57.153,1.181.222,1.862.125,1.25.25,2.668.292,4.168a43.775,43.775,0,0,1-.111,4.988,31.95,31.95,0,0,1-.931,5.557v.069c.333-.514,1.264-1.889,1.389-1.987,1.195-1.389,4.307-3.334,6.182-2.529a2.417,2.417,0,0,1,1.07,3.418,5.043,5.043,0,0,1-3.876,2.154Z" transform="translate(112.154 -284.664)" fill="#fff"/>
      <path id="Path_779" data-name="Path 779" d="M405.576,346.97s-.653-2.376-.681-2.529c-.25-1.806.333-5.432,2.167-6.321a2.4,2.4,0,0,1,3.279,1.459,5.043,5.043,0,0,1-.875,4.168A16.978,16.978,0,0,1,405.576,346.97Z" transform="translate(115.482 -282.369)" fill="#fff"/>
      <path id="Path_780" data-name="Path 780" d="M462.523,400.278c-2.445,1.07-8.419.931-8.433.931s1.292-3.918,1.389-4.168c1.306-2.779,5.46-7.28,8.836-6.822a4.029,4.029,0,0,1,3.237,5.057C467.011,397.624,464.607,399.361,462.523,400.278Z" transform="translate(134.656 -262.015)" fill="#fff"/>
      <path id="Path_781" data-name="Path 781" d="M481.01,422.426c-2.542.361-7.878-1.181-8.336-1.306a69.461,69.461,0,0,1-3.237,8.961c-.736,1.695-1.528,3.39-2.334,5.071a9.828,9.828,0,0,1,1-1.389c1.987-2.306,7.183-5.557,10.323-4.251a4.043,4.043,0,0,1,1.778,5.738c-1.153,2.1-3.932,3.154-6.169,3.473s-6.863-.889-8.072-1.237c-.32.639-.625,1.292-.959,1.931-1.542,3.07-3.1,6.141-4.529,9.2-.514,1.07-.973,2.153-1.389,3.223.431-.625.806-1.167.875-1.237,1.987-2.306,7.183-5.557,10.323-4.237a4.029,4.029,0,0,1,1.778,5.724c-1.153,2.112-3.932,3.154-6.169,3.473s-6.419-.778-7.85-1.181c-.445,1.125-.889,2.237-1.264,3.348-.236.75-.528,1.473-.722,2.237s-.431,1.528-.639,2.279c-.347,1.389-.709,2.945-1.014,4.376-.222,1-.417,1.945-.611,2.9.486-1.084,1.5-3.168,1.6-3.334,1.626-2.57,6.266-6.6,9.573-5.752a4.029,4.029,0,0,1,2.626,5.391c-.82,2.251-3.4,3.71-5.557,4.363-2.39.736-7.683.069-8.336,0-.32,1.584-.611,3.126-.861,4.585-.57,3.223-1,6.1-1.32,8.544h-2.292c.389-2.529.9-5.557,1.57-8.919.32-1.612.695-3.32,1.084-5.071a47.368,47.368,0,0,1-4.654-2.2,29.371,29.371,0,0,1-6.794,4.376c.611,1.5,1.209,2.945,1.806,4.307,1.237,2.779,2.4,5.363,3.446,7.5h-2.417c-.889-1.973-1.862-4.168-2.89-6.724-.625-1.514-1.264-3.14-1.889-4.821-.653.125-5.891,1.195-8.336.639-2.209-.5-4.9-1.751-5.891-3.946a4.029,4.029,0,0,1,2.223-5.557c3.223-1.084,8.155,2.584,9.962,5.029.111.153,1.1,1.848,1.7,2.918-.264-.681-.514-1.389-.764-2.056-.528-1.389-1-2.779-1.514-4.349l-.667-2.251c-.25-.75-.4-1.57-.611-2.362-.445-1.848-.792-3.737-1.111-5.655-1.223.458-5.557,1.987-7.905,1.82s-5.113-.986-6.419-3a4.029,4.029,0,0,1,1.389-5.849c3.029-1.57,8.461,1.32,10.615,3.459.139.139,1.514,1.848,2.251,2.779-.181-1.153-.361-2.292-.514-3.473-.417-3.376-.736-6.808-1.07-10.225-.1-1.056-.222-2.1-.32-3.14-.445.167-5.627,2.1-8.183,1.917-2.265-.167-5.113-1-6.419-3.015a4,4,0,0,1,1.389-5.835c3.015-1.57,8.447,1.306,10.6,3.459.167.153,2.14,2.626,2.612,3.279-.236-2.306-.5-4.585-.861-6.836a70.247,70.247,0,0,0-1.959-9c-.208.083-5.557,2.112-8.225,1.931-2.265-.153-5.1-.986-6.419-3a4.043,4.043,0,0,1,1.389-5.849c3.029-1.556,8.447,1.32,10.615,3.46.167.167,2.279,2.779,2.64,3.334a1.77,1.77,0,0,0-.139-.514,50.21,50.21,0,0,0-3.571-8.517c-.764-1.514-1.6-2.931-2.431-4.279-.959.486-5.4,2.64-7.78,2.779s-5.182-.417-6.71-2.279a4.029,4.029,0,0,1,.695-5.96c2.848-1.889,8.558.375,10.934,2.279.125.1,1.389,1.292,2.2,2.181-.389-.611-.778-1.237-1.153-1.806-1.389-2.153-2.862-4.029-4.168-5.682-.736-.931-1.389-1.764-2.07-2.529-1.209,0-6.03-.167-8.128-1.153s-4.418-2.779-4.9-5.127a4.029,4.029,0,0,1,3.362-4.96c3.39-.375,7.419,4.279,8.656,7.058.111.236,1.389,4.168,1.278,4.168h-.069c.639.722,1.32,1.514,2.042,2.39,1.389,1.625,2.779,3.487,4.293,5.557a71.515,71.515,0,0,1,4.446,7.072,53.312,53.312,0,0,1,3.793,8.544v-3.9c.389-3.015,2.918-8.614,6.266-9.225a4.029,4.029,0,0,1,4.654,3.793c.195,2.39-1.542,4.793-3.237,6.308-1.917,1.709-7.211,3.362-7.641,3.487a70.254,70.254,0,0,1,2.237,9.253c.333,1.834.6,3.668.847,5.557v-1.751c.4-3.015,2.931-8.614,6.28-9.225a4.029,4.029,0,0,1,4.654,3.779c.195,2.4-1.542,4.807-3.237,6.321s-6.224,3.029-7.419,3.418c.1.709.181,1.389.278,2.126.4,3.432.792,6.836,1.278,10.17.181,1.181.389,2.334.6,3.487V451.7c.389-3.015,2.918-8.614,6.266-9.239a4.029,4.029,0,0,1,4.654,3.793c.195,2.4-1.542,4.807-3.237,6.321s-5.78,2.876-7.2,3.348c.25,1.167.5,2.348.792,3.473.222.764.375,1.514.639,2.279s.486,1.5.722,2.237c.514,1.389,1.028,2.862,1.556,4.168l1.1,2.779c-.181-1.181-.5-3.473-.5-3.668a15.671,15.671,0,0,1,2.1-7.614,6.376,6.376,0,0,1,0-.889,4.015,4.015,0,0,1,4.932-3.418c3.293.875,5.377,6.655,5.557,9.725,0,.181-.111,2.14-.208,3.376.167-.722.32-1.389.5-2.153.347-1.389.736-2.89,1.139-4.446.222-.75.458-1.5.681-2.265s.528-1.528.806-2.292c.639-1.778,1.389-3.557,2.181-5.321-1.278-.306-5.78-1.389-7.6-2.779s-3.71-3.654-3.7-6.057a4.043,4.043,0,0,1,4.362-4.168c3.376.375,6.321,5.766,6.947,8.739,0,.195.25,2.376.333,3.584.486-1.056.959-2.126,1.487-3.182,1.514-3.043,3.14-6.085,4.752-9.128l1.459-2.779c-.458-.1-5.849-1.389-7.878-2.9-1.806-1.389-3.709-3.654-3.7-6.057A4.029,4.029,0,0,1,458.1,423c3.39.361,6.335,5.766,6.947,8.739,0,.222.333,3.376.361,4.168,1.07-2.056,2.112-4.168,3.057-6.183a69.635,69.635,0,0,0,3.334-8.586c-.222,0-5.849-1.389-7.919-2.918-1.806-1.389-3.723-3.654-3.71-6.057a4.043,4.043,0,0,1,4.362-4.168c3.39.361,6.321,5.766,6.947,8.739,0,.236.361,3.626.375,4.237a2.349,2.349,0,0,1,.167-.5,50.986,50.986,0,0,0,1.723-9.072c.195-1.7.278-3.321.333-4.9-1.07-.139-5.974-.792-8-2.015s-4.1-3.223-4.335-5.557a4.015,4.015,0,0,1,3.862-4.571c3.418,0,6.947,5.029,7.864,7.919,0,.167.4,1.82.625,3.029v-2.14c0-2.584-.167-4.932-.333-7.03-.1-1.181-.222-2.251-.333-3.251-.986-.681-4.932-3.459-6.141-5.446s-2.153-4.752-1.264-6.947a4.029,4.029,0,0,1,5.557-2.279c3.029,1.57,3.821,7.655,3.321,10.656a42.463,42.463,0,0,1-1.237,4.168h0c.139.959.264,1.987.389,3.126.208,2.084.417,4.446.472,7.03a71.832,71.832,0,0,1-.194,8.336,53.365,53.365,0,0,1-1.542,9.211v.111c.542-.847,2.112-3.154,2.265-3.307,1.987-2.306,7.183-5.557,10.323-4.251a4.029,4.029,0,0,1,1.778,5.724C486.025,421.05,483.247,422.092,481.01,422.426Z" transform="translate(114.113 -266.838)" fill="#fff"/>
      <path id="Path_782" data-name="Path 782" d="M416.961,402.629s-1.084-3.973-1.125-4.168c-.417-3.015.542-9.086,3.612-10.573a4.043,4.043,0,0,1,5.488,2.431c.82,2.265-.222,5.043-1.459,6.947C422.032,399.434,416.961,402.615,416.961,402.629Z" transform="translate(119.727 -263.046)" fill="#fff"/>
      <path id="Path_783" data-name="Path 783" d="M488.013,425.377a17.243,17.243,0,0,1-5.043.556s.778-2.348.834-2.487c.792-1.639,3.265-4.349,5.293-4.071a2.4,2.4,0,0,1,1.931,3.015A5.043,5.043,0,0,1,488.013,425.377Z" transform="translate(145.9 -250.659)" fill="#fff"/>
      <path id="Path_784" data-name="Path 784" d="M499.037,438.646a16.9,16.9,0,0,1-4.96-.778,41.867,41.867,0,0,1-1.931,5.349c-.445,1.028-.917,2.028-1.389,3.043l.6-.861c1.195-1.389,4.293-3.334,6.169-2.542a2.418,2.418,0,0,1,1.07,3.432,5.03,5.03,0,0,1-3.7,2.084,15.961,15.961,0,0,1-4.821-.75c-.195.389-.375.778-.57,1.153-.917,1.848-1.848,3.682-2.709,5.557-.306.639-.584,1.292-.847,1.931.25-.375.472-.695.514-.736,1.195-1.389,4.293-3.334,6.169-2.542a2.417,2.417,0,0,1,1.07,3.432,5.057,5.057,0,0,1-3.7,2.07,15.284,15.284,0,0,1-4.7-.695c-.264.667-.528,1.389-.75,1.987a10.322,10.322,0,0,0-.431,1.389l-.375,1.389c-.208.875-.431,1.778-.611,2.626-.139.6-.25,1.167-.361,1.737.292-.653.889-1.889.959-1.987.959-1.542,3.737-3.96,5.71-3.446a2.4,2.4,0,0,1,1.57,3.223,5.015,5.015,0,0,1-3.334,2.612,16.67,16.67,0,0,1-4.988,0c-.195.945-.361,1.862-.514,2.779-.347,1.931-.6,3.654-.792,5.113H480c.222-1.514.528-3.307.931-5.335.195-.959.417-1.987.653-3.029a25.01,25.01,0,0,1-2.779-1.32,17.293,17.293,0,0,1-4.057,2.626c.361.889.722,1.764,1.084,2.57.736,1.7,1.389,3.209,2.056,4.488H476.5c-.528-1.181-1.111-2.529-1.723-4.015-.375-.9-.75-1.889-1.139-2.89a16.28,16.28,0,0,1-4.974.389,5.071,5.071,0,0,1-3.529-2.362A2.417,2.417,0,0,1,466.527,463c1.931-.639,4.877,1.542,5.96,3.015,0,.083.653,1.1,1,1.737-.153-.4-.306-.806-.458-1.237-.306-.834-.584-1.681-.889-2.584-.139-.445-.278-.9-.4-1.389s-.25-.931-.361-1.389c-.264-1.1-.486-2.237-.667-3.376a15.906,15.906,0,0,1-4.724,1.084,5.1,5.1,0,0,1-3.849-1.792,2.417,2.417,0,0,1,.82-3.5c1.806-.931,5.057.792,6.335,2.07.083.083.9,1.111,1.389,1.681-.111-.695-.222-1.389-.306-2.07-.25-2.028-.445-4.071-.639-6.127,0-.625-.139-1.25-.195-1.876a17.1,17.1,0,0,1-4.89,1.153,5.03,5.03,0,0,1-3.835-1.806,2.39,2.39,0,0,1,.806-3.487c1.806-.931,5.057.778,6.349,2.07.1.1,1.278,1.57,1.556,1.959-.153-1.389-.306-2.779-.514-4.085a40.456,40.456,0,0,0-1.181-5.377,17.005,17.005,0,0,1-4.9,1.153,5.057,5.057,0,0,1-3.849-1.806,2.4,2.4,0,0,1,.82-3.487c1.806-.931,5.057.778,6.335,2.07.111.1,1.389,1.681,1.584,1.987l-.083-.306a31.879,31.879,0,0,0-2.126-5.1c-.458-.9-.959-1.737-1.459-2.542a16.671,16.671,0,0,1-4.654,1.626,5.057,5.057,0,0,1-4.015-1.389,2.4,2.4,0,0,1,.431-3.557c1.695-1.125,5.113.222,6.53,1.389A16.56,16.56,0,0,1,463.748,429c-.222-.361-.458-.736-.681-1.07-.861-1.292-1.723-2.4-2.487-3.4l-1.237-1.514a15.933,15.933,0,0,1-4.863-.681,5.043,5.043,0,0,1-2.931-3.07,2.4,2.4,0,0,1,2.015-2.959c2.028-.222,4.432,2.556,5.168,4.168.069.153.806,2.515.778,2.515h0c.389.431.792.9,1.223,1.389.792.986,1.681,2.084,2.57,3.362a43.511,43.511,0,0,1,2.654,4.168,31.771,31.771,0,0,1,2.265,5.113h0v-2.39c.236-1.806,1.751-5.154,3.751-5.557a2.4,2.4,0,0,1,2.779,2.265,5.085,5.085,0,0,1-1.931,3.765,17.021,17.021,0,0,1-4.571,2.1,41.193,41.193,0,0,1,1.389,5.557c.195,1.084.361,2.2.514,3.307v-1.042c.222-1.806,1.737-5.154,3.737-5.557a2.4,2.4,0,0,1,2.779,2.265,5.015,5.015,0,0,1-1.931,3.779,16.162,16.162,0,0,1-4.432,2.042l.167,1.278c.25,2.042.472,4.085.764,6.071.111.709.236,1.389.361,2.084v-.9c.222-1.806,1.737-5.154,3.737-5.557a2.417,2.417,0,0,1,2.779,2.265,5.057,5.057,0,0,1-1.945,3.765,14.961,14.961,0,0,1-4.293,2c.139.709.292,1.389.472,2.084s.222.9.375,1.389.292.889.431,1.389c.306.847.625,1.709.931,2.529.222.57.445,1.1.667,1.639-.111-.695-.306-2.07-.306-2.181a9.461,9.461,0,0,1,1.25-4.557,3.245,3.245,0,0,1,0-.528,2.4,2.4,0,0,1,2.945-2.042c1.973.514,3.209,3.973,3.307,5.794,0,.1-.069,1.278-.125,2.015.1-.431.195-.847.306-1.292.208-.861.431-1.737.681-2.654.139-.445.264-.9.4-1.389s.32-.917.486-1.389c.389-1.056.834-2.112,1.306-3.168a16.162,16.162,0,0,1-4.543-1.709,5,5,0,0,1-2.209-3.612,2.4,2.4,0,0,1,2.6-2.473c2.028.222,3.779,3.445,4.168,5.224,0,.111.139,1.389.195,2.14.292-.625.57-1.264.889-1.889.9-1.834,1.876-3.64,2.779-5.46.306-.556.583-1.111.875-1.667a17.3,17.3,0,0,1-4.71-1.751,5.043,5.043,0,0,1-2.209-3.612,2.432,2.432,0,0,1,2.612-2.473c2.014.222,3.779,3.445,4.168,5.224,0,.139.208,2.028.222,2.5.639-1.223,1.264-2.459,1.834-3.7a44.765,44.765,0,0,0,1.987-5.127,16.811,16.811,0,0,1-4.738-1.751,5.015,5.015,0,0,1-2.209-3.612,2.4,2.4,0,0,1,2.6-2.473c2.028.222,3.779,3.445,4.168,5.224,0,.139.208,2.167.208,2.542,0-.111.083-.208.111-.306A31.327,31.327,0,0,0,494.827,432c.111-1,.167-1.973.195-2.932a15.81,15.81,0,0,1-4.779-1.195,5.071,5.071,0,0,1-2.6-3.362,2.417,2.417,0,0,1,2.32-2.779c2.042,0,4.168,3.015,4.7,4.738,0,.1.236,1.1.375,1.82v-1.278c0-1.542-.1-2.959-.195-4.168a15.064,15.064,0,0,0-.195-1.945,15.991,15.991,0,0,1-3.668-3.251,5.058,5.058,0,0,1-.764-4.168,2.418,2.418,0,0,1,3.321-1.389c1.806.945,2.279,4.585,1.987,6.377,0,.153-.709,2.529-.736,2.515h0c.083.57.153,1.195.236,1.862.125,1.25.25,2.668.278,4.168a44.075,44.075,0,0,1-.111,5,30.785,30.785,0,0,1-.931,5.557v.069c.32-.5,1.264-1.876,1.389-1.973,1.195-1.389,4.293-3.334,6.169-2.542a2.4,2.4,0,0,1,1.07,3.418A5.03,5.03,0,0,1,499.037,438.646Z" transform="translate(133.64 -253.576)" fill="#fff"/>
      <path id="Path_785" data-name="Path 785" d="M460.773,426.788s-.653-2.376-.667-2.529c-.25-1.806.32-5.432,2.153-6.321a2.417,2.417,0,0,1,3.279,1.459,5.029,5.029,0,0,1-.875,4.168,17.186,17.186,0,0,1-3.89,3.223Z" transform="translate(136.977 -251.292)" fill="#fff"/>
    </g>
    <g id="freepik--Clouds--inject-2" transform="translate(39.291 33.134)">
      <path id="Path_786" data-name="Path 786" d="M523.674,111.278c-2.056-10.364-12.712-14.338-20.618-17.811-9.906-4.335-15.463-8.253-20.534-15.283a94.39,94.39,0,0,1-7.252-12.24c-8.211-15.922-22.146-27.606-37.623-31.552-12.5-3.2-27.148-.6-35.233,11.115-6.766,9.725-9.725,25.828-20.326,27.537-5.127.834-10.031-2.4-14.532-5.418-6.363-4.168-12.99-8.336-20.215-9.725s-15.185-.111-20.715,5.557c-8.155,8.336-10.726,25.008-21.354,27.425-9.114,2.042-17.783-8.725-26.828-6.321-7.489,1.987-11.115,11.67-16.061,18.534a31.76,31.76,0,0,1-8.753,8.253Z" transform="translate(56.468 -33.134)" fill="none" stroke="#fff" stroke-linecap="round" stroke-linejoin="round" stroke-width="1"/>
      <path id="Path_787" data-name="Path 787" d="M471.4,131.368c-.806-4.1-5.015-5.668-8.141-7.044a17.589,17.589,0,0,1-8.128-6.016,39.056,39.056,0,0,1-2.862-4.835,23.924,23.924,0,0,0-14.866-12.5c-4.946-1.264-10.74-.236-13.893,4.376-2.668,3.862-3.848,10.212-8.03,10.892-2.028.32-3.96-.959-5.752-2.153a23.8,23.8,0,0,0-7.989-3.876,8.836,8.836,0,0,0-8.183,2.2c-3.223,3.307-4.251,9.906-8.447,10.851-3.6.806-7.03-3.459-10.6-2.5-2.959.778-4.39,4.613-6.349,7.322a12.421,12.421,0,0,1-3.459,3.265Z" transform="translate(99.711 -6.917)" fill="none" stroke="#fff" stroke-linecap="round" stroke-linejoin="round" stroke-width="1"/>
      <path id="Path_788" data-name="Path 788" d="M211.678,126.538c-.806-4.1-5.029-5.655-8.155-7.03a17.575,17.575,0,0,1-8.114-6.03,36.47,36.47,0,0,1-2.862-4.835,23.952,23.952,0,0,0-14.88-12.5c-4.946-1.264-10.726-.236-13.893,4.376-2.681,3.862-3.848,10.212-8.044,10.892-2.015.333-3.96-.959-5.738-2.14A23.618,23.618,0,0,0,142,105.393a8.767,8.767,0,0,0-8.183,2.2c-3.237,3.293-4.251,9.892-8.447,10.837-3.6.806-7.03-3.446-10.614-2.5-2.945.792-4.376,4.613-6.335,7.336a12.809,12.809,0,0,1-3.473,3.251Z" transform="translate(-1.417 -8.798)" fill="none" stroke="#fff" stroke-linecap="round" stroke-linejoin="round" stroke-width="1"/>
      <path id="Path_789" data-name="Path 789" d="M211.223,270.789c-1.389-6.947-8.5-9.6-13.8-11.92-6.641-2.9-10.351-5.557-13.754-10.2a64.317,64.317,0,0,1-4.849-8.2C173.267,229.818,164,222,153.65,219.356c-8.336-2.14-18.172-.389-23.619,7.419-4.529,6.53-6.5,17.283-13.6,18.423-3.432.556-6.71-1.612-9.725-3.612-4.265-2.848-8.7-5.557-13.532-6.572a14.88,14.88,0,0,0-13.893,3.723C73.819,244.294,72.1,255.492,65,257.09c-6.1,1.389-11.92-5.849-17.964-4.237-5.015,1.389-7.419,7.822-10.753,12.407a21.2,21.2,0,0,1-5.849,5.557Z" transform="translate(-30.43 39.041)" fill="none" stroke="#fff" stroke-linecap="round" stroke-linejoin="round" stroke-width="1"/>
      <path id="Path_790" data-name="Path 790" d="M189.654,292.683c-.556-2.779-3.362-3.793-5.46-4.71a11.588,11.588,0,0,1-5.432-4.029,23.728,23.728,0,0,1-1.917-3.237,16.061,16.061,0,0,0-9.961-8.336,8.531,8.531,0,0,0-9.322,2.931c-1.792,2.584-2.57,6.836-5.377,7.294a5.766,5.766,0,0,1-3.848-1.389A15.81,15.81,0,0,0,143,278.623a5.891,5.891,0,0,0-5.488,1.459c-2.153,2.209-2.779,6.627-5.655,7.266-2.4.528-4.7-2.32-7.1-1.681-1.973.528-2.931,3.1-4.168,4.9a8.211,8.211,0,0,1-2.32,2.181Z" transform="translate(3.769 59.855)" fill="none" stroke="#fff" stroke-linecap="round" stroke-linejoin="round" stroke-width="1"/>
    </g>
    <g id="freepik--Rocks--inject-2" transform="translate(7.67 379.399)">
      <path id="Path_791" data-name="Path 791" d="M407.791,365.092s-57.713-66.215-65.312-77.677-40.68,0-55.462,1.237-28.342,22.229-34.511,27.106-11.115,30.815-11.115,30.815-8.628,8.628-12.323,11.115-4.932,30.815-3.71,35.747,75.191,38.207,83.818,40.666,67.785-3.7,77.636-3.7,40.68-18.478,38.207-35.734S407.791,365.092,407.791,365.092Z" transform="translate(76.905 -282.365)" fill="#fff" stroke="#263238" stroke-linejoin="round" stroke-width="1"/>
      <path id="Path_792" data-name="Path 792" d="M394.546,405.168a174,174,0,0,0-1.709-23.007,58.907,58.907,0,0,0-13.3-17.214s-57.713-66.215-65.312-77.677c-1.626-2.473-4.446-3.862-8-4.529-3.029,1.959-6.266,4.654-6.321,7.28-.125,4.974-2.445,38.8-2.445,43.472s2.32,29.176,2.32,29.176,6.947,19.826,11.67,20.993,53.656,30.329,61.825,30.329c3.96,0,8.419,1.834,12.254,2.167a41.513,41.513,0,0,0,9.017-10.99Z" transform="translate(105.154 -282.22)" fill="#263238" stroke="#fff" stroke-linejoin="round" stroke-width="1"/>
      <path id="Path_793" data-name="Path 793" d="M649.053,521.024l-16.436-32.885-20.84-33.344-16.672-19.451s-38.9-22.229-44.458-22.229S502.02,402,502.02,402l-48.627,40.291L297.177,414.643S261.666,428.4,257.5,431.176s-65.3,19.451-72.245,20.84S88,520.093,88,520.093l75.2.931Z" transform="translate(23.605 -235.788)" fill="#263238" stroke="#fff" stroke-linejoin="round" stroke-width="1"/>
      <path id="Path_794" data-name="Path 794" d="M458.828,444.671,450.533,456.3l-25.022,4.613,23.049,18.436,11.837,6.585L434,483.641l-49.96-38.526,35.553-6.585" transform="translate(138.862 -221.566)" fill="#263238" stroke="#263238" stroke-linejoin="round" stroke-width="1"/>
      <path id="Path_795" data-name="Path 795" d="M210.183,366.5s-16.922-19.27-23.077-19.27-24.661,4.932-29.579,7.391-17.255,33.274-20.951,35.747-36.984,32.038-43.069,38.207S70,444.594,70,451.985s11.115,14.8,11.115,14.8H198.193s35.747-34.511,38.207-46.834S210.183,366.5,210.183,366.5Z" transform="translate(16.597 -257.112)" fill="#b6b6b6" stroke="#263238" stroke-linejoin="round" stroke-width="1"/>
      <path id="Path_796" data-name="Path 796" d="M344.716,381.641s-87.305-31.177-94.724-34.483-57.963,8.989-57.963,8.989-41.9,19.715-48.071,28.342-4.918,14.8-1.223,19.715,149.131,50.544,163.941,51.766,54.184-7.391,64.09-27.106S344.716,381.641,344.716,381.641Z" transform="translate(43.713 -257.36)" fill="#b6b6b6" stroke="#263238" stroke-linejoin="round" stroke-width="1"/>
      <path id="Path_797" data-name="Path 797" d="M240.379,390.476l-6.141,4.293s-26.981-11.031-25.133-6.127,41.082,36.123,41.68,41.68,1.07,10.267,9.128,13.407,17.242,6.836,23.382,3.154,12.879-4.293,12.879-11.656-3.07-23.3-3.07-23.3S244.672,388.642,240.379,390.476Z" transform="translate(70.719 -241.478)" fill="#263238" stroke="#263238" stroke-linejoin="round" stroke-width="1"/>
      <path id="Path_798" data-name="Path 798" d="M232.89,398.26l38.179,28.3,3.96,3.293,13.157-8.558Z" transform="translate(80.015 -237.244)" fill="#263238" stroke="#263238" stroke-linejoin="round" stroke-width="1"/>
      <path id="Path_799" data-name="Path 799" d="M438.281,411.684c-4.168,11.587-7.391,24.647-18.492,32.038s-41.9,22.229-51.766,22.229-80.109-19.715-88.737-25.883-38.207-17.255-46.834-27.106,1.236-32.052,1.236-32.052,28.342-20.951,36.831-20.673,72.856-6.446,82.721-3.973,82.568,30.815,82.568,30.815a29.176,29.176,0,0,1,2.473,24.605Z" transform="translate(78.467 -253.808)" fill="#b6b6b6" stroke="#263238" stroke-linejoin="round" stroke-width="1"/>
      <path id="Path_800" data-name="Path 800" d="M278.606,422.544s-32.038-30.815-39.443-36.97-44.361-3.71-51.753-1.237-28.356,17.228-33.233,23.41S135.7,444.732,135.7,444.732l13.56,19.715s50.53,4.932,69.008,4.932,51.766-1.237,51.766-1.237,13.56-11.115,18.492-22.229S278.606,422.544,278.606,422.544Z" transform="translate(42.176 -243.69)" fill="#b6b6b6" stroke="#263238" stroke-linejoin="round" stroke-width="1"/>
      <path id="Path_801" data-name="Path 801" d="M215.431,410.512c12.5,17.464,25.105,22.924,21.826,27.787s-13.1,2.181-19.1,1.626-11.462,10.378-14.741,15.283a142.625,142.625,0,0,0-7.614,13.06c18.659,0,50.78-1.236,50.78-1.236s13.56-11.115,18.492-22.229-9.864-23.41-9.864-23.41-32.038-30.815-39.443-36.97C215.765,384.517,202.872,393.048,215.431,410.512Z" transform="translate(65.575 -242.633)" fill="#263238" stroke="#263238" stroke-linejoin="round" stroke-width="1"/>
      <path id="Path_802" data-name="Path 802" d="M123.389,442.155l30.565-26.4,25.008-4.168s51.405-5.557,56.963,1.389,20.84,27.787,20.84,27.787l-11.115,26.4s-1.389,15.283-11.115,20.84-54.184,22.229-54.184,22.229H145.619S122,494.949,122,486.614,123.389,442.155,123.389,442.155Z" transform="translate(36.842 -232.874)" fill="#b6b6b6" stroke="#263238" stroke-linejoin="round" stroke-width="1"/>
      <path id="Path_803" data-name="Path 803" d="M255.282,440.176s-15.283-20.84-20.84-27.787A5.237,5.237,0,0,0,232.4,411l-.139.792-.542,2.779s1.1,25.578,3.265,31.024,7.072,14.143,3.265,17.95-11.42,11.976-16.866,16.867-19.59,9.253-25.008,9.795-10.337-2.779-20.131-3.265-13.06-.542-17.408,1.1a87.914,87.914,0,0,0-11.976,6.53s-7.614-4.363-9.253-10.351-5.988-11.42-7.614-11.42-3.265,13.6-3.807,20.131a13.5,13.5,0,0,1-.375,2.07c6.933,7.266,18.325,14.644,18.325,14.644h34.733s44.459-16.672,54.184-22.229,11.115-20.84,11.115-20.84Z" transform="translate(38.325 -232.284)" fill="#263238" stroke="#263238" stroke-linejoin="round" stroke-width="1"/>
      <path id="Path_804" data-name="Path 804" d="M173.848,516.811l1-5.78V495.749c0-4.168,11.115-31.955,11.115-40.291S167.9,426.283,163.733,423.5,142.893,411,138.725,411s-23.619,2.779-34.733,8.336S73.427,442.955,63.7,451.291,7.67,518.437,7.67,518.437" transform="translate(-7.67 -232.284)" fill="#b6b6b6" stroke="#263238" stroke-linejoin="round" stroke-width="1"/>
      <path id="Path_805" data-name="Path 805" d="M450.3,454.716c-2.9-2.9-8.989-8.016-15.06-12.962a136.338,136.338,0,0,0-11.115-8.878l-5.78-4.557h-.639c-3.057-2.1-5.738-3.89-7.544-5.1-7.391-4.932-33.274-22.229-43.139-20.951s-55.462,2.459-59.158,8.628-78.872,49.293-78.872,49.293h1.056l-8.989,4.251L203,490.839s18.061,12.5,22.229,12.5,27.356-1.876,37.081-3.265c8.739-1.25,68.23,11.976,80.192,14.657a29.237,29.237,0,0,0,4.265.639L421,521.084a29.538,29.538,0,0,0,17.13-3.89l19.117-11.073s9.725-5.557,15.283-9.725,5.557-13.893,5.557-18.061S457.247,461.663,450.3,454.716Z" transform="translate(68.378 -235.71)" fill="#b6b6b6" stroke="#263238" stroke-linejoin="round" stroke-width="1"/>
      <path id="Path_806" data-name="Path 806" d="M446.053,441.09c-1.042-1.042-2.515-2.39-4.237-3.89l-5.363,3.89s5.932,12.5,9.878,14.491,9.878,9.864,9.878,9.864,2.626,9.225-1.987,14.491-30.94,13.824-39.485,15.144a174.159,174.159,0,0,1-21.076,1.306s11.851-2.626,23.049-4.6,20.409-4.613,23.035-7.252,5.266-7.238,3.293-6.572a142.839,142.839,0,0,1-15.8,4.6c-8.558,1.973-20.409,3.96-28.315,3.96s-23.035,1.306-27.648,1.306-61.881-8.558-65.173-9.211a26.245,26.245,0,0,1-5.919-1.973s-3.946,3.946,5.919,5.919,9.225,4.613,29.634,7.252,40.8,6.572,37.512,7.238-12.5,1.306-26.4-1.389-22.382-1.973-30.273-5.266a183.773,183.773,0,0,0-23.049-7.905c-11.115-3.293-16.45-4.6-28.968-5.266s-17.117-.653-22.382-.653-10.531,7.238-17.77,8.558c-2.779.514-6.766,1.125-10.5,1.681,3.043,1.681,5.7,2.9,6.947,2.9,4.168,0,27.356-1.876,37.081-3.265,8.739-1.25,68.23,11.976,80.192,14.657a29.244,29.244,0,0,0,4.265.639l74.232,5.71a29.537,29.537,0,0,0,17.13-3.89L453,492.5s9.725-5.557,15.283-9.725,5.557-13.893,5.557-18.061S453,448.037,446.053,441.09Z" transform="translate(72.625 -222.084)" fill="#263238" stroke="#fff" stroke-linejoin="round" stroke-width="1"/>
      <path id="Path_807" data-name="Path 807" d="M347.893,318.023S334,330.527,334,336.085s8.336,29.176,8.336,33.344,20.84,59.741,25.008,73.634,9.725,27.787,12.5,31.955,9.725,15.283,9.725,15.283l11.879,8.669a53.724,53.724,0,0,0,28.565,10.239l18.728,1.084a33.427,33.427,0,0,0,29.885-15.019l9.934-15.116a33.038,33.038,0,0,0,5.557-19.631c-.306-6.349-2.5-11.212-11.476-23.021-5.877-7.752-77.8-81.97-86.138-90.306S356.229,312.466,347.893,318.023Z" transform="translate(119.38 -268.779)" fill="#b6b6b6" stroke="#263238" stroke-linejoin="round" stroke-width="1"/>
      <path id="Path_808" data-name="Path 808" d="M401,457c11.115,8.336,19.451,20.84,34.733,20.84,13.893,0,34.733,0,36.776,18.311" transform="translate(145.465 -214.375)" fill="none" stroke="#263238" stroke-linejoin="round" stroke-width="1"/>
      <path id="Path_809" data-name="Path 809" d="M390,461.17c-2.89,1.264-5.557,2.348-6.808,2.779-3.946,1.32-17.117,3.293-36.859,3.293H298.28" transform="translate(105.473 -212.752)" fill="none" stroke="#263238" stroke-linejoin="round" stroke-width="1"/>
      <path id="Path_810" data-name="Path 810" d="M375.345,457l-6.155,2.779" transform="translate(133.08 -214.375)" fill="none" stroke="#263238" stroke-linejoin="round" stroke-width="1"/>
      <path id="Path_811" data-name="Path 811" d="M351,458.758a162.625,162.625,0,0,0,16.936-8.1l-6.572-5.919" transform="translate(125.998 -219.148)" fill="none" stroke="#263238" stroke-linejoin="round" stroke-width="1"/>
      <path id="Path_812" data-name="Path 812" d="M266.05,459.845c5.432-.083,10.337-.139,13.185-.139,9.211,0,65.826,1.973,82.276.653a65.3,65.3,0,0,0,15.283-3.529" transform="translate(92.925 -214.441)" fill="none" stroke="#263238" stroke-linejoin="round" stroke-width="1"/>
      <path id="Path_813" data-name="Path 813" d="M246.63,459.446l11.851-.236" transform="translate(85.364 -213.515)" fill="none" stroke="#263238" stroke-linejoin="round" stroke-width="1"/>
      <path id="Path_814" data-name="Path 814" d="M383.987,435.357c-4.029-3.821-8.947-8.2-8.947-8.2" transform="translate(135.358 -225.993)" fill="none" stroke="#263238" stroke-linejoin="round" stroke-width="1"/>
      <path id="Path_815" data-name="Path 815" d="M445.873,402.19a143.638,143.638,0,0,0,6.947,12.962c3.334,5.266,6.433,18.061,3.376,24.341s-9.295,17.13-18.52,20.423-20.4,6.585-25.661,3.96-25.008-11.2-26.995-13.824" transform="translate(139.244 -235.714)" fill="none" stroke="#263238" stroke-linejoin="round" stroke-width="1"/>
      <path id="Path_816" data-name="Path 816" d="M466.933,447.032c-3.529,4.362-3.932,6.947-8,9.92s-25.8,7.6-25.8,7.6l-19.756,3.96-18.422-8.558-23.7-13.171s13.157,12.5,17.117,15.8,11.851,7.238,14.477,8.558,15.8,3.946,19.756,3.946c3.529,0,14.393.528,21.368.639a33.344,33.344,0,0,0,20.173-14.143l9.934-15.116a33.038,33.038,0,0,0,5.557-19.631c-.306-6.349-2.5-11.212-11.476-23.021l.5,14S470.448,442.67,466.933,447.032Z" transform="translate(133.882 -235.083)" fill="#263238" stroke="#263238" stroke-linejoin="round" stroke-width="1"/>
      <path id="Path_817" data-name="Path 817" d="M237.363,388.87s-1.626,3.265,3.265,7.627,19.048,10.878,19.048,10.878" transform="translate(81.655 -240.9)" fill="none" stroke="#263238" stroke-linejoin="round" stroke-width="1"/>
      <line id="Line_238" data-name="Line 238" x2="9.253" y2="4.349" transform="translate(346.235 168.657)" fill="none" stroke="#263238" stroke-linejoin="round" stroke-width="1"/>
      <line id="Line_239" data-name="Line 239" x2="31.024" y2="14.685" transform="translate(327.729 165.934)" fill="none" stroke="#263238" stroke-linejoin="round" stroke-width="1"/>
      <path id="Path_818" data-name="Path 818" d="M439.685,423.023S381,478.6,381,481.375s6.947,17.617,6.947,17.617,27.328,6.488,31.955,6.488,18.52-2.779,24.077-7.419,22.229-5.557,25.008-18.52,11.115-17.255,6.5-30.385S465.027,412.853,439.685,423.023Z" transform="translate(137.678 -228.58)" fill="#b6b6b6" stroke="#263238" stroke-linejoin="round" stroke-width="1"/>
      <path id="Path_819" data-name="Path 819" d="M450.008,437.67c-.667,8.753,2.918,18.951-.542,27.356-4.126,9.989-16.13,13.393-24.466,18.95" transform="translate(154.809 -221.901)" fill="none" stroke="#263238" stroke-linejoin="round" stroke-width="1"/>
      <path id="Path_820" data-name="Path 820" d="M444.317,453.71c-6.947,8.447-14.366,16.214-24.647,20.312" transform="translate(152.734 -215.656)" fill="none" stroke="#263238" stroke-linejoin="round" stroke-width="1"/>
      <path id="Path_821" data-name="Path 821" d="M389,475s16.672,2.779,23.16,3.71,21.3-2.779,21.3-2.779" transform="translate(140.793 -207.367)" fill="none" stroke="#263238" stroke-linejoin="round" stroke-width="1"/>
      <path id="Path_822" data-name="Path 822" d="M155.81,509.764l1-5.78V488.7c0-4.168,11.115-31.955,11.115-40.291,0-4.432-5.113-12.407-10.517-19.312.417,3.446,1.723,14.352,1.723,17.464,0,3.7-9.267,22.229-14.824,23.146s-28.717-2.779-28.717-2.779-25.008-1.848-30.565,7.419-15.741,25.008-15.741,25.008L54,510.473Z" transform="translate(10.368 -225.237)" fill="#263238" stroke="#fff" stroke-linejoin="round" stroke-width="1"/>
      <path id="Path_823" data-name="Path 823" d="M152.984,458c-5.224,3.459-8.794,6.127-8.794,6.127" transform="translate(45.481 -213.986)" fill="none" stroke="#263238" stroke-linejoin="round" stroke-width="1"/>
      <path id="Path_824" data-name="Path 824" d="M213.426,447l-22.688,11.045s-15.949.611-19.631.611c-2.668,0-8.558-1.292-14.157-.361" transform="translate(50.449 -218.268)" fill="none" stroke="#263238" stroke-linejoin="round" stroke-width="1"/>
      <path id="Path_825" data-name="Path 825" d="M126,441.076a55.96,55.96,0,0,0,.764-6.446" transform="translate(38.399 -223.084)" fill="none" stroke="#263238" stroke-linejoin="round" stroke-width="1"/>
      <path id="Path_826" data-name="Path 826" d="M103.14,457.371s15.283,2.459,19.631,0,9.2-11.031,10.42-12.879a7.949,7.949,0,0,0,.792-2.112" transform="translate(29.499 -220.067)" fill="none" stroke="#263238" stroke-linejoin="round" stroke-width="1"/>
      <path id="Path_827" data-name="Path 827" d="M107.51,449.12c-3.07.069-6.085.111-8.558.111-9.2,0-17.172.611-20.229,4.9s-6.141,15.283-6.752,19.02a56.958,56.958,0,0,0-.611,7.961" transform="translate(17.126 -217.443)" fill="none" stroke="#263238" stroke-linejoin="round" stroke-width="1"/>
      <path id="Path_828" data-name="Path 828" d="M112,448.76l-8,.333" transform="translate(29.834 -217.583)" fill="none" stroke="#263238" stroke-linejoin="round" stroke-width="1"/>
    </g>
    <g id="freepik--Character--inject-2" transform="translate(214.736 135.582)">
      <path id="Path_829" data-name="Path 829" d="M166.34,404.884s47.348,5.377,53.948,5.377,19.77.6,22.771-.6,12.587-8.336,12.587-8.336l16.186-2.4a50.855,50.855,0,0,1,7.794-3.584c2.39-.611,16.783,1.195,16.783,1.195l25.175,2.39s20.979-16.783,23.966-20.368-4.168-46.765-4.168-49.752,6-21.576,7.2-26.4S350.954,288,350.954,288l-53.35,6.6s-12.587,20.979-14.991,26.4a23.993,23.993,0,0,0-2.39,11.393,110.366,110.366,0,0,1-1.195,12.587c-.6,4.168-6.6,8.989-8.989,10.184s-14.393,5.988-14.393,5.988-2.39,10.2-2.39,13.2a25.092,25.092,0,0,0,1.195,6.585s-10.2,5.391-13.185,7.2-13.8,4.793-21.576,5.988-25.786,2.4-32.371,4.168S166.34,404.884,166.34,404.884Z" transform="translate(-152.961 -36.355)" fill="#263238"/>
      <path id="Path_830" data-name="Path 830" d="M213.788,128.117a36.512,36.512,0,0,0-8.225,14.338c-2.39,8.489,2.654,12.2,6.627,15.38s3.459,5.043,1.389,8.489a5.057,5.057,0,0,0,2.39,7.433c2.112.792,5.307.528,4.168,4.779s-1.848,6.627.792,7.433,7.7,2.376,6.377,5.557-.528,7.419,1.32,7.683,4.251-1.848,4.251,1.07-3.723,5.307.264,7.7,6.363,1.848,6.1,3.182-1.862,2.918-1.056,5.043,3.71,1.848,3.973,3.182-1.389,2.39-.792,5.043,1.584,2.918,4.237,3.446,2.654.528,2.654,2.654-.528,2.39,2.39,2.654,5.835-.528,9.559-3.446,7.7-17.255,9.017-23.091,3.987-14.06.264-24.411-20.687-43.25-25.994-49.349a27.384,27.384,0,0,0-19.1-8.753C219.1,124.116,213.788,128.117,213.788,128.117Z" transform="translate(-137.93 -100.155)" fill="#263238" stroke="#fff" stroke-miterlimit="10" stroke-width="1"/>
      <path id="Path_831" data-name="Path 831" d="M245.767,225.373s.445,1.792-2.9,3.807-4.474.889-4.7,3.793-.222,3.807-.667,4.474-6.044,3.584-8.5,4.474a15.741,15.741,0,0,0-4.474,2.681l-.445,8.947a44.056,44.056,0,0,0,10.74-1.389,65.293,65.293,0,0,1,9.392-2.015s2.223,1.57,4.682-8.711S249.13,222.914,245.767,225.373Z" transform="translate(-130.481 -60.909)" fill="gray" stroke="#263238" stroke-linecap="round" stroke-linejoin="round" stroke-width="1"/>
      <path id="Path_832" data-name="Path 832" d="M235.072,242.3c.278-3.96-1.32-5.557-2.529-6.266a37.982,37.982,0,0,1-3.515,1.57,15.741,15.741,0,0,0-4.474,2.681l-.445,8.947a47.415,47.415,0,0,0,9.725-1.07,20.671,20.671,0,0,0,1.237-5.863Z" transform="translate(-130.469 -56.589)" fill="#fff" stroke="#263238" stroke-linejoin="round" stroke-width="1"/>
      <path id="Path_833" data-name="Path 833" d="M239.006,217.567s2.918,16.186-1.584,23.883-2.126,17.242.264,20.423,5.307,2.654,6.947.528,5.557-13.254,4.779-28.384S240.6,212.788,239.006,217.567Z" transform="translate(-126.276 -64.398)" fill="gray" stroke="#263238" stroke-linecap="round" stroke-linejoin="round" stroke-width="1"/>
      <path id="Path_834" data-name="Path 834" d="M249.811,179.88s-14.324,38.735-14.06,49.085,9.559,19.9,10.087,21.757-.528,15.644-2.126,20.159-4.779,13-4.779,13a46.279,46.279,0,0,0,22.021,7.377,67.2,67.2,0,0,0,22.3-2.918l5.293-3.446s-7.683-19.631-12.5-35.817-6.947-51.211-6.363-63.409,1.056-16.45-3.459-16.672S251.937,176.156,249.811,179.88Z" transform="translate(-125.938 -82.687)" fill="#b6c1ff" stroke="#263238" stroke-miterlimit="10" stroke-width="1"/>
      <path id="Path_835" data-name="Path 835" d="M262.5,252.51s-28.954,1.236-48.988,8.628-30.19,10.781-30.5,21.562,15.408,50.224,15.408,50.224,16.672,45.6,17.242,48.376a10.309,10.309,0,0,1-.306,6.474c-.611.917,2.167,7.7,8.628,7.7s11.115-4.932,12.018-11.712-3.39-12.323-5.557-23.41-6.169-36.053-6.169-44.986-3.07-20.34-3.07-20.34,23.716,8.016,36.664,12.018,51.141,3.084,58.227,1.848,6.474-10.476.32-24.035-25.578-22.8-32.357-25.869S262.5,252.51,262.5,252.51Z" transform="translate(-146.468 -50.173)" fill="#a8a8a8" stroke="#263238" stroke-linecap="round" stroke-linejoin="round" stroke-width="1"/>
      <path id="Path_836" data-name="Path 836" d="M284.081,258.984C277.3,255.9,262.5,252.51,262.5,252.51s-28.954,1.237-48.988,8.628-30.19,10.781-30.5,21.562,15.408,50.224,15.408,50.224,8.572,23.507,13.629,37.79a33.024,33.024,0,0,0,18.478-10.073,2.221,2.221,0,0,1-.069-.292c-2.126-10.906-6.169-36.053-6.169-44.986s-3.07-20.34-3.07-20.34,23.716,8.016,36.664,12.018,51.141,3.084,58.227,1.848,6.474-10.476.32-24.035S290.861,262.055,284.081,258.984Z" transform="translate(-146.468 -50.173)" fill="#263238" stroke="#fff" stroke-miterlimit="10" stroke-width="1"/>
      <path id="Path_837" data-name="Path 837" d="M214.557,352.9s-.834-2.779-2.237-.556-1.389,5.877-2.529,6.947-3.64,6.169-9.809,9.253-11.768,4.765-12.337,6.947,3.376,4.168,9.531,4.488,18.506.556,23.827-.834,8.419-4.765,14.3-6.738,9.809-2.237,10.934-4.765-3.918-15.686-6.169-18.214-3.362-6.169-5.557-6.169-2.779,2.779-3.084,5.043-.57,5.335-6.169,6.724S214.557,352.9,214.557,352.9Z" transform="translate(-144.687 -14.841)" fill="#fff" stroke="#263238" stroke-linejoin="round" stroke-width="1"/>
      <path id="Path_838" data-name="Path 838" d="M214.219,371.615c-8.836,2.042-21.9-.5-26.564-1.542a.652.652,0,0,0,0,.139c-.556,2.251,3.376,4.168,9.531,4.488s18.506.556,23.827-.834,8.419-4.765,14.3-6.738,9.809-2.237,10.934-4.765c.375-.834,0-2.848-.6-5.252-1.5.6-3.376,1.389-5.557,2.459C234.128,362.362,225.153,369.1,214.219,371.615Z" transform="translate(-144.683 -9.449)" fill="#0129ff" stroke="#263238" stroke-miterlimit="10" stroke-width="1"/>
      <path id="Path_839" data-name="Path 839" d="M270.59,253.169s-25.272,6.474-40.374,10.17-25.258,6.78-26.189,17.561-11.392,85.958-13.24,91.2-5.557,20.034-5.557,23.73a8.656,8.656,0,0,0,8.336,8.628c5.863.611,8.933-2.153,9.864-4.932s3.7-10.476,7.086-21.562,16.672-30.565,20.034-46.529a114.147,114.147,0,0,0,1.848-31.121,182.874,182.874,0,0,1,25.008,5.863c12.629,4,47.751,4.918,67.48,3.376s25.258-12.629,25.578-21.562-8.628-24.341-13.893-29.579-14.8-6.474-32.357-6.78a287.474,287.474,0,0,0-33.622,1.542Z" transform="translate(-145.606 -50.526)" fill="#a8a8a8" stroke="#263238" stroke-linecap="round" stroke-linejoin="round" stroke-width="1"/>
      <path id="Path_840" data-name="Path 840" d="M349.206,287.985c.306-8.933-8.628-24.341-13.893-29.579s-14.8-6.474-32.357-6.78a287.463,287.463,0,0,0-33.58,1.542S244.1,259.643,229,263.338s-25.258,6.78-26.189,17.561-11.392,85.958-13.24,91.2c-.375,1.056-.82,2.487-1.292,4.168a42.43,42.43,0,0,0,19.826,5.557c.375-1.223.778-2.5,1.181-3.821,3.39-11.115,16.672-30.565,20.034-46.529a114.148,114.148,0,0,0,1.848-31.121,182.864,182.864,0,0,1,25.008,5.863c12.629,4,47.751,4.918,67.48,3.376S348.886,296.919,349.206,287.985Z" transform="translate(-144.419 -50.526)" fill="#263238" stroke="#fff" stroke-miterlimit="10" stroke-width="1"/>
      <path id="Path_841" data-name="Path 841" d="M196,351.463s-.653-.959-3.251,1.931a47.7,47.7,0,0,1-16.269,11.518c-7.822,3.2-16.283,4.168-18.561,6.71s-.639,6.085,0,7.044,22.785,3.2,33.844,3.2,24.411-.32,26.689-1.278,2.6-7.044,2.279-10.878-1.945-6.085-1.945-8,.973-5.113,0-6.391-5.21,2.556-7.488,4.168-10.42,1.278-12.046-.32S197.236,351.463,196,351.463Z" transform="translate(-156.695 -11.707)" fill="#fff" stroke="#263238" stroke-linejoin="round" stroke-width="1"/>
      <path id="Path_842" data-name="Path 842" d="M193.986,371.019c-13.435,0-30.426-1.751-37.276-2.529a7.822,7.822,0,0,0,1.153,3.487c.653.959,22.785,3.2,33.844,3.2s24.411-.32,26.689-1.278c1.237-.528,1.9-2.556,2.2-4.918a184.067,184.067,0,0,1-26.606,2.042Z" transform="translate(-156.71 -5.018)" fill="#0129ff" stroke="#263238" stroke-miterlimit="10" stroke-width="1"/>
      <path id="Path_843" data-name="Path 843" d="M219.033,134.007s-5.557,7.961-5.043,14.074,2.654,7.683,4.251,9.545a10.684,10.684,0,0,1,2.654,9.281c-.806,4.515-2.126,5.307-1.389,7.169s6.1,2.39,6.1,2.39a130.74,130.74,0,0,0,9.295,9.545c2.918,2.39,5.557,3.723,8.489,1.862a54.932,54.932,0,0,0,6.627-4.779c.806-.792,6.947,7.961,7.961,13.532s-3.182,11.684-.792,12.5,6.363-6.1,9.017-13,5.307-8.225,5.307-8.225-15.116-31.038-24.938-44.042-19.631-14.588-23.077-13.532A7.141,7.141,0,0,0,219.033,134.007Z" transform="translate(-134.422 -97.847)" fill="#fff" stroke="#263238" stroke-linecap="round" stroke-linejoin="round" stroke-width="1"/>
      <path id="Path_844" data-name="Path 844" d="M227.73,164.567s5.043-1.389,5.557-5.307" transform="translate(-129.06 -86.478)" fill="none" stroke="#263238" stroke-linecap="round" stroke-linejoin="round" stroke-width="1"/>
      <path id="Path_845" data-name="Path 845" d="M218.76,151.683s3.446,5.557,6.1,6.1,7.155-1.056,7.961-4.765-1.6-7.7-1.6-7.7S223.261,146.9,218.76,151.683Z" transform="translate(-132.552 -91.905)" fill="none" stroke="#263238" stroke-linecap="round" stroke-linejoin="round" stroke-width="1"/>
      <path id="Path_846" data-name="Path 846" d="M219.951,149.9l-4.251,3.182a6.2,6.2,0,0,0,3.987,3.723" transform="translate(-133.743 -90.122)" fill="none" stroke="#263238" stroke-linecap="round" stroke-linejoin="round" stroke-width="1"/>
      <line id="Line_240" data-name="Line 240" y1="5.571" x2="14.324" transform="translate(98.67 47.844)" fill="none" stroke="#263238" stroke-linecap="round" stroke-linejoin="round" stroke-width="1"/>
      <path id="Path_847" data-name="Path 847" d="M225.875,151.79c.681,1.32.834,2.6.333,2.862s-1.459-.6-2.14-1.917-.847-2.612-.347-2.862S225.18,150.47,225.875,151.79Z" transform="translate(-130.733 -90.15)" fill="#263238"/>
      <path id="Path_848" data-name="Path 848" d="M219.14,148.206a6.21,6.21,0,0,1,6.1-3.459" transform="translate(-132.404 -92.137)" fill="none" stroke="#263238" stroke-linecap="round" stroke-linejoin="round" stroke-width="1"/>
      <path id="Path_849" data-name="Path 849" d="M220.507,140.921a3.529,3.529,0,0,0,2.654,4.237c3.446,1.07,7.169-.264,6.627,3.723s-2.918,5.835,1.862,6.627,6.641,0,6.641,5.307-3.459,7.169,2.112,8.489,8.489.528,7.7,6.363-3.973,7.961.264,9.559,7.433-.792,7.433,3.71,0,7.169,2.654,7.7,4.779-2.918,5.307.792.792,5.557,2.918,5.835,2.654-2.112,5.557-1.32,14.324-4.779,17.77-8.489,9.295-2.918,13.8,3.182,13.8,25.994,14.338,29.982,1.32,4.779,4.5.264,5.835-9.017,3.182-13.532-4.5-3.71-2.654-8.753,5.557-7.169,1.862-11.67-4.779-3.459-3.973-9.559,2.112-6.947-1.862-9.281-5.307-2.654-5.307-6.641,1.862-6.627-1.862-8.753-4.765-1.584-4.765-5.043.792-4.765-1.862-6.627-5.043-3.182-5.043-6.627,0-3.723-2.39-5.557a10.253,10.253,0,0,1-4.237-6.627c-.264-2.39-1.6-4.779-3.459-5.307s-3.182,1.07-4.5-2.126-2.126-4.765-4.515-5.029a9.975,9.975,0,0,1-6.627-3.723c-1.6-2.126-2.654-3.182-4.779-2.39s-7.169,1.07-9.281-.792-5.557-2.918-8.225-.792a7.961,7.961,0,0,1-7.669,1.778c-2.39-.792-4.779-.792-6.363.806s-1.389,2.654-4.515,1.848-6.1-.792-7.7,1.6a11.962,11.962,0,0,1-5.043,4.251c-1.584.792-5.307,1.584-5.835,4.5s-.264,4.251-1.584,5.307-3.459,3.71-3.459,5.557,3.182,5.307,6.377,5.835" transform="translate(-135.896 -106.873)" fill="#263238" stroke="#fff" stroke-miterlimit="10" stroke-width="1"/>
      <path id="Path_850" data-name="Path 850" d="M254.407,181.014s-1.32,36.345-2.39,54.656,4.515,24.938,7.961,29.44,35.817,47.237,37.679,51.739,3.71,12.5,4.515,13.268,8.753-.264,14.588-1.862,9.281-7.419,9.281-7.419,1.6-7.169-2.376-18.575-9.031-18.839-9.559-26.8-4.515-35.289-5.835-48.015a240.659,240.659,0,0,0-7.7-36.887c-2.39-8.225-4.779-14.06-8.753-17.77a39.943,39.943,0,0,0-9.017-6.1Z" transform="translate(-119.656 -83.585)" fill="gray" stroke="#263238" stroke-linecap="round" stroke-linejoin="round" stroke-width="1"/>
      <path id="Path_851" data-name="Path 851" d="M294.474,264.48l-4.237,27.592-7.7-15.922S292.085,264.744,294.474,264.48Z" transform="translate(-107.721 -45.512)" fill="#575757" stroke="#263238" stroke-linecap="round" stroke-linejoin="round" stroke-width="1"/>
      <path id="Path_852" data-name="Path 852" d="M257.14,236.79s24.674,21.493,35.025,28.926,12.2,9.545,12.2,9.545-14.074,20.965-14.852,20.965-5.557-11.406-10.878-20.173S257.668,241.041,257.14,236.79Z" transform="translate(-117.61 -56.293)" fill="gray" stroke="#263238" stroke-linecap="round" stroke-linejoin="round" stroke-width="1"/>
      <path id="Path_853" data-name="Path 853" d="M280.526,160.79,251.6,178.824l3.723,9.823,31.038-20.437Z" transform="translate(-119.767 -85.882)" fill="gray" stroke="#263238" stroke-linecap="round" stroke-linejoin="round" stroke-width="1"/>
      <path id="Path_854" data-name="Path 854" d="M194.63,262.191l30.857,10.948,45.612-18.1-28.9-8.656Z" transform="translate(-141.947 -52.559)" fill="#0129ff" stroke="#263238" stroke-linejoin="round" stroke-width="1"/>
      <path id="Path_855" data-name="Path 855" d="M229.424,257.848l-4-1.278L220.63,258.5l4.2,1.362Z" transform="translate(-131.824 -48.592)" fill="#fff" stroke="#263238" stroke-linejoin="round" stroke-width="0.5"/>
      <path id="Path_856" data-name="Path 856" d="M221,255.288l7.461-2.779-2.223-.639-7.461,2.7Z" transform="translate(-132.544 -50.422)" fill="#fff" stroke="#263238" stroke-linejoin="round" stroke-width="0.5"/>
      <path id="Path_857" data-name="Path 857" d="M213.58,256.218l2.32.736,5.015-1.862-2.251-.722Z" transform="translate(-134.569 -49.449)" fill="#fff" stroke="#263238" stroke-linejoin="round" stroke-width="0.5"/>
      <path id="Path_858" data-name="Path 858" d="M210.29,255.154l2.4.778,5.1-1.848-2.376-.764Z" transform="translate(-135.85 -49.857)" fill="#fff" stroke="#263238" stroke-linejoin="round" stroke-width="0.5"/>
      <path id="Path_859" data-name="Path 859" d="M212.335,255.991l-2.7-.861-3.89,1.07,3.14,1.042Z" transform="translate(-137.617 -49.153)" fill="#fff" stroke="#263238" stroke-linejoin="round" stroke-width="0.5"/>
      <path id="Path_860" data-name="Path 860" d="M224.865,256.551l7.336-2.959-2.723-.792-7.558,2.806Z" transform="translate(-131.322 -50.06)" fill="#fff" stroke="#263238" stroke-linejoin="round" stroke-width="0.5"/>
      <path id="Path_861" data-name="Path 861" d="M219.627,258.374l-3.376-1.084-3.5,1.306,3.473,1.153Z" transform="translate(-134.892 -48.312)" fill="#fff" stroke="#263238" stroke-linejoin="round" stroke-width="0.5"/>
      <path id="Path_862" data-name="Path 862" d="M206.931,260.294l4.849-1.792-2.39-.792-4.89,1.765Z" transform="translate(-138.104 -48.148)" fill="#fff" stroke="#263238" stroke-linejoin="round" stroke-width="0.5"/>
      <path id="Path_863" data-name="Path 863" d="M224.848,256.363l-3.043-.973-5.015,1.862,3.265,1.056Z" transform="translate(-133.319 -49.051)" fill="#fff" stroke="#263238" stroke-linejoin="round" stroke-width="0.5"/>
      <path id="Path_864" data-name="Path 864" d="M209.54,257.514l2.348.792,3.473-1.292-2.348-.764Z" transform="translate(-136.142 -48.717)" fill="#fff" stroke="#263238" stroke-linejoin="round" stroke-width="0.5"/>
      <path id="Path_865" data-name="Path 865" d="M209.005,257.519l-3.432-1.139-5.543,1.514,4.112,1.389Z" transform="translate(-139.844 -48.666)" fill="#fff" stroke="#263238" stroke-linejoin="round" stroke-width="0.5"/>
      <path id="Path_866" data-name="Path 866" d="M221.165,261.67l-4.515,1.973,1.876.625,4.918-1.834Z" transform="translate(-133.374 -46.606)" fill="#fff" stroke="#263238" stroke-linejoin="round" stroke-width="0.5"/>
      <path id="Path_867" data-name="Path 867" d="M232.953,253.82l-7.433,3,3.918,1.264L236.7,254.9Z" transform="translate(-129.92 -49.663)" fill="#fff" stroke="#263238" stroke-linejoin="round" stroke-width="0.5"/>
      <path id="Path_868" data-name="Path 868" d="M217.878,254.252l7.363-2.654-2.417-.709L215.53,253.5Z" transform="translate(-133.81 -50.803)" fill="#fff" stroke="#263238" stroke-linejoin="round" stroke-width="0.5"/>
      <path id="Path_869" data-name="Path 869" d="M229.78,258.249l3.557,1.139,8.2-3.084-4.4-1.264Z" transform="translate(-128.262 -49.188)" fill="#fff" stroke="#263238" stroke-linejoin="round" stroke-width="0.5"/>
      <path id="Path_870" data-name="Path 870" d="M221.034,261.617l-4.446-1.487-4.668,1.889,4.613,1.556Z" transform="translate(-135.215 -47.206)" fill="#fff" stroke="#263238" stroke-linejoin="round" stroke-width="0.5"/>
      <path id="Path_871" data-name="Path 871" d="M224.435,259.925l-4.293-1.375-3.432,1.389,4.362,1.459Z" transform="translate(-133.35 -47.821)" fill="#fff" stroke="#263238" stroke-linejoin="round" stroke-width="0.5"/>
      <path id="Path_872" data-name="Path 872" d="M212.609,258.79l-4.849,1.792,3.765,1.278,4.654-1.889Z" transform="translate(-136.835 -47.728)" fill="#fff" stroke="#263238" stroke-linejoin="round" stroke-width="0.5"/>
      <path id="Path_873" data-name="Path 873" d="M227.452,260.9l-2.793-.9-3.39,1.487,2.445.82Z" transform="translate(-131.575 -47.257)" fill="#fff" stroke="#263238" stroke-linejoin="round" stroke-width="0.5"/>
      <path id="Path_874" data-name="Path 874" d="M225.09,259.965l2.973.945,5-1.876-3.376-1.084Z" transform="translate(-130.088 -48.055)" fill="#fff" stroke="#263238" stroke-linejoin="round" stroke-width="0.5"/>
      <path id="Path_875" data-name="Path 875" d="M232.378,280.863l-21.465-49.182L176.93,226.54l18.978,42.388Z" transform="translate(-148.838 -60.284)" fill="#0129ff" stroke="#263238" stroke-linejoin="round" stroke-width="1"/>
      <path id="Path_876" data-name="Path 876" d="M263.153,192.536s-4.251,10.878-3.459,19.631,8.225,27.328,9.295,32.635a15.783,15.783,0,0,1-.264,8.489s-1.389-1.6-2.39,1.32-4.251,10.878-4.251,10.878l-2.654,1.389L270.308,287.3l3.446,5.835s7.961-3.973,10.878-6.627,10.615-4.779,13.8-8.753,1.07-3.987,3.459-9.823,3.709-19.1,2.112-23.077-3.182-5.043-3.182-9.031,3.723-10.865.806-21.479-5.043-27.328-9.823-31.843-8.753-3.71-11.406-3.71" transform="translate(-116.718 -78.894)" fill="#fff" stroke="#263238" stroke-linecap="round" stroke-linejoin="round" stroke-width="1"/>
      <path id="Path_877" data-name="Path 877" d="M278.12,243.31a17.716,17.716,0,0,0,3.487,2.084" transform="translate(-109.441 -53.755)" fill="none" stroke="#263238" stroke-miterlimit="10" stroke-width="1"/>
      <path id="Path_878" data-name="Path 878" d="M267.83,235.45s6.224,5.015,11.379,8.822" transform="translate(-113.448 -56.815)" fill="none" stroke="#263238" stroke-miterlimit="10" stroke-width="1"/>
      <path id="Path_879" data-name="Path 879" d="M272.23,235.64s16.186,4.779,15.38,6.377-7.683-1.6-9.017-2.126" transform="translate(-111.735 -56.741)" fill="none" stroke="#263238" stroke-miterlimit="10" stroke-width="1"/>
      <path id="Path_880" data-name="Path 880" d="M268.589,248.63s-24.938,14.324-26.8,14.324-7.7-4.237-9.545-3.71a76.109,76.109,0,0,0-7.169,3.182c-2.39,1.056-6.947-.264-7.169,1.6s1.862,3.182,1.862,3.182-5.307,1.056-6.363,1.056-2.39,2.126,0,3.987,6.627,2.112,7.419,2.39,5.307,2.654,9.031,2.654,11.406-3.987,16.45-5.307,31.038-8.5,31.038-8.5S272.562,248.63,268.589,248.63Z" transform="translate(-135.158 -51.683)" fill="#fff" stroke="#263238" stroke-miterlimit="10" stroke-width="1"/>
      <path id="Path_881" data-name="Path 881" d="M217.61,262.074a22.549,22.549,0,0,0,9.559-.264" transform="translate(-133 -46.552)" fill="#fff" stroke="#263238" stroke-miterlimit="10" stroke-width="1"/>
      <path id="Path_882" data-name="Path 882" d="M266.026,240.005s8.225,12.726,13,21.215,3.182,9.031,1.862,10.35-11.115,2.918-14.324,3.446a5.224,5.224,0,0,1-6.377-4.765c0-3.182-3.973-11.406-5.557-14.324s-3.973-2.39-3.973-4.779,5.307-5.557,7.7-7.7S264.178,239.8,266.026,240.005Z" transform="translate(-120.132 -55.049)" fill="gray" stroke="#263238" stroke-linecap="round" stroke-linejoin="round" stroke-width="1"/>
      <path id="Path_883" data-name="Path 883" d="M219.541,233.62s7.377,3.348,9.836,4.918,6.266,3.126,6.03,4.918-4.918,7.377-6.947,7.822-6.266-2.681-8.947-2.681-5.141-7.155-4.251-9.614S217.749,233.842,219.541,233.62Z" transform="translate(-133.986 -57.527)" fill="#fff" stroke="#263238" stroke-linejoin="round" stroke-width="1"/>
      <path id="Path_884" data-name="Path 884" d="M212,240.6s-2.237,2.015-2.237,3.793,1.125,7.155,2.459,8.336,2.015-.445,2.015-1.792-2.015-2.459-1.125-4.251,2.015-4.7,2.015-4.7S213.789,239.709,212,240.6Z" transform="translate(-136.056 -54.891)" fill="#fff" stroke="#263238" stroke-linejoin="round" stroke-width="1"/>
      <path id="Path_885" data-name="Path 885" d="M216.042,238.463a4.89,4.89,0,0,0-4.474,1.778c-1.57,2.237-.222,4.7,1.111,7.155a6.947,6.947,0,0,0,5.377,3.585c1.778.222,2.681-.445,1.111-2.459a23.259,23.259,0,0,1-2.9-6.266A25.872,25.872,0,0,1,216.042,238.463Z" transform="translate(-135.627 -55.659)" fill="#fff" stroke="#263238" stroke-linejoin="round" stroke-width="1"/>
      <path id="Path_886" data-name="Path 886" d="M218.031,234.42s-4.251,2.459-4.251,4.474a29.774,29.774,0,0,0,2.015,9.17c1.125,2.459,4.474,5.557,4.918,4.474s-.445-4.029-.889-6.266-1.125-10.5-1.125-10.5a.834.834,0,0,0-.667-1.348Z" transform="translate(-134.491 -57.216)" fill="#fff" stroke="#263238" stroke-linejoin="round" stroke-width="1"/>
      <path id="Path_887" data-name="Path 887" d="M222.016,236.933s-2.015-3.793-4.474-3.793-.889,2.681-.667,7.822,1.389,10.281,2.9,12.073,2.459.445,2.015-2.681-.667-7.822-.667-8.5V240.3" transform="translate(-133.557 -57.714)" fill="#fff" stroke="#263238" stroke-linejoin="round" stroke-width="1"/>
      <path id="Path_888" data-name="Path 888" d="M226,241.618a10.669,10.669,0,0,1-1.792,4.474c-1.389,1.556-2.9,4.237-1.792,4.918s2.237,0,3.362-1.389,4.015-3.793,5.363-6.252a3.751,3.751,0,0,0-2.015-5.377,21.182,21.182,0,0,0-2.681-.222" transform="translate(-131.278 -55.911)" fill="#fff" stroke="#263238" stroke-linejoin="round" stroke-width="1"/>
      <path id="Path_889" data-name="Path 889" d="M262.63,371.791s14.56,18.395,28.551,18.395,26.828-2.334,36.123-2.334,32.663-3.5,39.665-6.947,3.5-6.947-2.334-10.489-35-17.506-35-17.506Z" transform="translate(-115.472 -11.084)" fill="#263238" stroke="#263238" stroke-linejoin="round" stroke-width="1"/>
      <path id="Path_890" data-name="Path 890" d="M267.953,309.173a354.481,354.481,0,0,1-20.326,29.273c-11.115,14.171-16.95,16.95-19.451,23.41s-1.237,12.643.917,14.185,24.035,5.849,29.579,6.155a59,59,0,0,0,12.018-.917l.611-2.779s-9.85.306-12.323,0-12.323-7.391-15.713-9.559-4.932-3.07-4.932-3.07a284.175,284.175,0,0,1,18.8-21.882,146.933,146.933,0,0,0,17.255-22.229S272.579,306.088,267.953,309.173Z" transform="translate(-129.423 -28.269)" fill="#a8a8a8" stroke="#263238" stroke-miterlimit="10" stroke-width="1"/>
      <path id="Path_891" data-name="Path 891" d="M236.251,349.87s-4,5.557-4,7.7" transform="translate(-127.3 -12.268)" fill="#fff" stroke="#263238" stroke-linejoin="round" stroke-width="1"/>
      <path id="Path_892" data-name="Path 892" d="M306.31,286.924s-28.037,5.557-34.511,6.78-9.239,3.084-12.629,10.781-5.238,10.781-3.7,18.186,2.153,33.886,2.153,45.292-2.473,19.1-.625,22.8,7.086,5.849,8.628,7.086,13.893,5.557,17.561,6.474,8.947,4.932,13.56,4.932,15.1-3.71,22.229-6.78,17.561-2.473,22.8-4.932,7.711-4.321,6.474-10.781-6.169-10.8-7.086-18.186-.306-18.478-1.848-24.035-5.238-12.018-6.169-21.562.625-22.229-2.779-26.814-2.167-3.7-8.016-5.849S311.547,284.159,306.31,286.924Z" transform="translate(-118.472 -37.141)" fill="#a8a8a8" stroke="#263238" stroke-miterlimit="10" stroke-width="1"/>
      <path id="Path_893" data-name="Path 893" d="M299.209,300.789c13.893-3.084,17.255-4.307,22.229-6.78s7.1.306,7.1.306l.347-.208c-1.681-2.32-1.751-2.042-6.516-3.793-5.849-2.153-10.781-6.155-16.019-3.39,0,0-28.037,5.557-34.511,6.78s-9.239,3.084-12.629,10.781-5.238,10.781-3.7,18.186,2.153,33.886,2.153,45.292-2.473,19.1-.625,22.8,7.086,5.849,8.628,7.086a42.125,42.125,0,0,0,6.947,2.959.709.709,0,0,0-.125-.806c-2.153-2.459.931-12.323,2.779-25.564s1.237-34.831-.611-40.985-5.557-13.254-3.084-20.034S285.343,303.873,299.209,300.789Z" transform="translate(-118.457 -37.141)" fill="#fff" stroke="#263238" stroke-miterlimit="10" stroke-width="1"/>
      <path id="Path_894" data-name="Path 894" d="M277.2,333.207s-1.237,35.428-2.153,43.069-2.153,8.933-1.237,10.476,10.476,5.238,13.893,5.238,4.626.32,4.932-3.7-2.779-32.663-2.459-39.429,2.153-13.56-1.542-15.713S280.9,325.8,277.2,333.207Z" transform="translate(-111.245 -20.251)" fill="#fff" stroke="#263238" stroke-miterlimit="10" stroke-width="1"/>
      <path id="Path_895" data-name="Path 895" d="M321.553,318.315s-18.172,6.169-29.579,9.864-15.408,3.39-16.019,7.086,0,3.7,1.542,4.321a12.7,12.7,0,0,1,6.155,7.7c1.542,4.626,3.084,8.336,5.238,8.336s33.9-4.932,39.137-7.086,7.391-2.779,6.78-6.169-.931-9.239-2.167-16.325S326.486,316.467,321.553,318.315Z" transform="translate(-110.375 -24.782)" fill="#fff" stroke="#263238" stroke-linejoin="round" stroke-width="1"/>
      <path id="Path_896" data-name="Path 896" d="M290.36,339.555l2.765,23.118,4.626-1.542-3.376-22.771Z" transform="translate(-104.676 -16.749)" fill="#263238" stroke="#263238" stroke-linejoin="round" stroke-width="1"/>
      <path id="Path_897" data-name="Path 897" d="M310.6,335.8l4.224,21.66,4-1.237-4-21.882Z" transform="translate(-96.796 -18.314)" fill="#263238" stroke="#263238" stroke-linejoin="round" stroke-width="1"/>
      <path id="Path_898" data-name="Path 898" d="M274.17,311.538s10.156-2.153,22.493-5.238,23.716-6.78,23.716-6.78v3.445s-13.893,4.321-21.257,5.863-14.477,2.459-15.713,2.779-4.932,1.237-6.78,1.848l-1.848.625Z" transform="translate(-110.979 -31.87)" fill="#fff" stroke="#263238" stroke-linejoin="round" stroke-width="1"/>
    </g>
  </g>
</svg>
