<?xml version="1.0" standalone="no"?>
<!DOCTYPE svg PUBLIC "-//W3C//DTD SVG 20010904//EN"
 "http://www.w3.org/TR/2001/REC-SVG-20010904/DTD/svg10.dtd">
<svg version="1.0" xmlns="http://www.w3.org/2000/svg"
 width="514.000000pt" height="483.000000pt" viewBox="0 0 514.000000 483.000000"
 preserveAspectRatio="xMidYMid meet">

<g transform="translate(0.000000,483.000000) scale(0.100000,-0.100000)"
fill="#000000" stroke="none">
<path d="M307 4480 c-14 -11 -31 -36 -37 -55 -15 -47 11 -104 58 -124 l32 -15
0 -1052 c0 -712 3 -1069 11 -1103 14 -64 58 -125 110 -152 34 -17 55 -20 109
-17 86 5 138 38 175 111 23 46 25 62 25 178 l0 126 83 -33 82 -33 5 -568 c5
-561 5 -569 28 -624 50 -124 140 -214 260 -260 77 -29 214 -31 288 -2 l51 20
59 -49 c68 -56 194 -120 274 -139 76 -17 222 -15 299 5 174 45 334 172 409
327 46 93 72 181 72 245 l0 42 98 4 c74 3 112 10 158 29 l61 26 6 -136 c4
-102 11 -151 26 -196 89 -251 366 -374 612 -271 14 6 17 -7 22 -96 8 -141 32
-206 106 -279 76 -76 145 -102 256 -97 141 6 238 71 299 198 l31 65 3 879 3
879 26 31 c14 17 35 31 47 31 16 0 21 6 21 26 0 17 5 26 17 26 10 1 16 -2 13
-8 -8 -11 6 -12 24 0 10 6 5 11 -19 16 -38 8 -24 23 20 20 25 -1 28 1 19 16
-15 29 -11 44 7 28 15 -12 16 -11 10 11 -5 17 -4 21 2 11 6 -9 12 -10 16 -3 4
6 13 9 21 6 15 -6 15 12 1 35 -6 10 -5 12 2 7 7 -4 12 -1 12 8 0 9 4 16 10 16
5 0 7 6 4 14 -3 8 -1 24 6 35 9 18 8 21 -10 21 -17 0 -20 4 -15 21 5 16 4 19
-5 14 -9 -6 -11 -4 -6 4 5 7 14 10 22 7 16 -6 19 10 4 19 -6 4 -8 10 -5 15 3
5 -3 11 -12 13 -14 4 -13 5 5 6 12 0 22 -3 22 -9 0 -5 7 -10 15 -10 12 0 12 3
-2 19 -9 11 -20 18 -25 15 -4 -3 -8 0 -8 5 0 6 6 11 14 11 8 0 18 5 21 10 10
16 -4 30 -22 23 -15 -6 -14 -7 3 -14 16 -6 16 -8 2 -8 -26 -1 -32 18 -13 39
16 18 12 46 -5 35 -5 -3 -11 -1 -15 5 -4 6 -11 7 -17 4 -7 -4 -8 -2 -4 4 4 6
14 9 24 6 14 -5 14 -3 -2 10 -11 9 -14 16 -8 16 7 0 12 6 12 14 0 8 8 17 18
19 16 4 16 5 -1 6 -10 0 -16 5 -13 10 4 5 -4 7 -16 4 -20 -5 -21 -4 -8 8 8 8
13 13 11 12 -5 -3 -31 46 -31 59 0 5 -6 16 -14 24 -11 10 -15 11 -19 1 -5 -15
-6 -14 -41 55 -57 116 -135 181 -253 214 l-63 17 0 41 c-1 167 -95 336 -225
404 -43 23 -63 27 -136 27 -79 0 -90 -2 -137 -32 -48 -30 -52 -31 -52 -12 0
30 -45 111 -82 148 -106 104 -335 138 -460 68 -21 -11 -39 -19 -41 -16 -32 47
-109 125 -149 152 -130 86 -303 89 -416 7 l-41 -30 -37 25 c-55 37 -127 56
-234 62 -172 9 -340 -46 -435 -144 l-48 -49 -51 18 c-92 31 -195 18 -325 -43
-253 -117 -429 -376 -431 -631 l0 -67 -53 -40 c-73 -53 -150 -142 -191 -221
-35 -66 -66 -188 -66 -258 0 -56 35 -186 64 -234 26 -44 113 -138 127 -138 5
0 9 -64 9 -143 0 -141 0 -144 -29 -190 -52 -81 -167 -116 -247 -74 -43 22 -91
80 -103 124 -7 25 -11 391 -11 1106 0 971 1 1067 16 1067 9 0 31 15 50 34 49
49 45 114 -10 158 -29 24 -97 23 -129 -2z m103 -5 c35 -18 50 -43 50 -85 0
-33 -38 -80 -65 -80 -22 0 -19 33 5 48 28 17 26 58 -4 77 -29 19 -61 8 -71
-25 -7 -21 10 -60 25 -60 6 0 10 -9 10 -20 0 -46 -65 1 -76 56 -6 33 23 79 60
94 30 12 33 12 66 -5z m1921 -314 c68 -26 133 -80 162 -135 29 -55 31 -174 3
-226 -10 -19 -79 -93 -153 -165 -138 -133 -183 -188 -206 -248 -8 -22 -50 -67
-123 -133 -168 -149 -184 -162 -184 -150 0 6 -5 4 -10 -4 -8 -12 -10 -11 -10
8 0 12 -4 22 -9 22 -5 0 -7 -9 -4 -20 3 -12 0 -20 -8 -20 -7 0 -10 3 -6 6 3 4
-1 13 -10 22 -11 11 -19 13 -32 5 -18 -11 -44 -6 -36 8 4 5 0 6 -7 4 -9 -4
-14 2 -15 16 -2 18 0 19 15 7 15 -12 16 -11 3 5 -7 9 -21 17 -31 17 -12 0 -17
6 -16 18 2 9 -4 20 -12 23 -8 3 -16 13 -18 22 -1 9 3 14 11 11 7 -3 15 2 18
10 4 11 1 16 -11 16 -16 1 -16 1 1 11 9 5 17 17 17 26 0 8 27 44 59 79 167
178 197 232 189 339 -5 51 -3 65 8 65 8 0 14 4 14 9 0 5 -10 7 -22 4 -22 -4
-22 -4 -5 10 15 12 15 16 3 20 -8 3 -17 1 -20 -6 -2 -7 -5 -4 -5 6 -1 9 5 17
12 17 9 0 9 2 0 8 -6 4 -10 19 -10 34 1 14 5 24 10 21 4 -2 7 1 7 7 0 6 -11
15 -25 20 -14 5 -25 12 -25 16 0 3 7 4 15 0 8 -3 15 -1 15 4 0 6 -4 10 -9 10
-5 0 -8 8 -7 18 1 11 -5 16 -18 14 -11 -2 -15 1 -11 7 3 6 18 9 33 6 27 -5 26
-5 -3 9 -16 9 -25 15 -20 16 6 0 3 5 -5 10 -13 9 -13 10 0 10 11 0 10 3 -4 11
-14 9 -20 8 -27 -2 -6 -9 -9 -10 -9 -2 0 28 106 82 205 103 22 5 92 8 155 6
88 -2 128 -8 171 -25z m511 -4 c104 -51 213 -188 259 -324 64 -192 38 -383
-74 -545 -22 -32 -41 -58 -43 -58 -1 0 -8 24 -14 53 -20 98 -61 158 -145 212
-165 107 -399 79 -608 -72 -119 -84 -45 21 143 207 104 102 152 156 161 183 7
20 19 37 27 37 12 0 12 3 1 17 -12 14 -12 15 -1 9 11 -7 12 -4 3 12 -15 28
-14 33 5 30 10 -2 19 3 22 11 3 10 -1 12 -17 8 -28 -7 -27 8 2 28 18 13 20 17
7 25 -8 5 -17 7 -21 4 -4 -2 -7 4 -6 15 1 12 6 17 17 13 13 -5 13 -3 1 11 -12
16 -12 17 5 10 17 -6 17 -5 5 10 -12 15 -12 17 3 11 24 -9 20 11 -6 30 -23 15
-22 15 7 6 25 -8 27 -8 15 2 -8 7 -15 20 -15 28 0 8 -5 14 -12 13 -6 -1 -14 4
-17 13 -3 8 -2 13 3 10 4 -3 17 1 27 10 15 12 40 14 116 11 79 -3 106 -9 150
-30z m-1158 -163 c116 -58 196 -155 211 -256 13 -88 -19 -144 -181 -320 -119
-130 -148 -185 -142 -269 4 -51 9 -65 36 -92 29 -28 38 -32 90 -32 84 1 128
28 287 176 166 155 244 215 345 268 106 55 185 74 296 69 107 -4 172 -31 246
-102 66 -64 91 -135 86 -241 -7 -135 -34 -177 -200 -307 -160 -126 -212 -210
-212 -341 l0 -79 -30 6 c-17 3 -86 8 -154 12 l-123 7 2 206 c1 190 3 207 20
219 23 16 25 55 3 76 -20 21 -43 20 -66 -1 -24 -21 -23 -49 2 -70 19 -16 20
-30 20 -224 l0 -207 -52 -7 c-87 -11 -279 -45 -339 -60 -31 -8 -59 -15 -63
-15 -3 0 8 19 23 43 89 131 60 305 -62 370 -39 21 -55 22 -247 23 -224 2 -294
13 -383 62 -67 36 -141 120 -167 188 -41 112 -43 295 -4 434 63 223 269 419
514 489 19 6 69 9 111 7 59 -2 87 -9 133 -32z m1656 26 c78 -15 166 -58 204
-100 79 -88 97 -211 62 -435 -23 -142 -23 -338 -2 -428 32 -137 102 -224 215
-269 48 -19 75 -22 186 -22 118 -1 137 2 210 28 101 36 162 66 248 123 37 25
71 42 75 39 13 -14 5 -242 -12 -316 -71 -321 -399 -594 -739 -617 l-88 -6 2
129 c1 114 3 130 20 142 27 19 24 58 -5 77 -29 19 -61 8 -71 -25 -7 -21 10
-60 25 -60 6 0 10 -53 10 -130 0 -150 11 -139 -116 -115 -103 20 -188 48 -302
101 l-94 43 65 56 c168 142 267 343 267 541 0 111 -14 173 -62 274 -33 68 -56
100 -117 160 -62 60 -169 137 -213 152 -4 2 3 37 16 78 13 41 27 110 31 153 4
47 11 77 18 77 7 0 4 5 -6 11 -14 8 -16 14 -6 25 6 8 8 14 3 14 -5 0 0 7 10
15 11 9 14 15 7 15 -9 0 -8 5 3 16 21 20 21 48 1 40 -8 -3 -15 -2 -16 2 0 4
-2 15 -4 24 -3 15 0 16 18 6 22 -11 22 -11 3 11 -20 22 -20 22 0 15 17 -7 18
-6 5 10 -13 16 -12 17 12 11 18 -5 27 -3 27 5 0 6 -5 8 -12 4 -7 -5 -9 -2 -5
9 4 11 2 14 -8 11 -10 -4 -13 2 -11 20 2 15 -1 29 -6 32 -5 3 -6 15 -3 27 5
17 4 19 -4 7 -9 -13 -11 -13 -11 2 0 28 76 36 170 18z m-176 -60 c-6 -6 -10
-3 -10 10 0 13 4 16 10 10 7 -7 7 -13 0 -20z m783 -171 c37 -18 77 -47 99 -72
44 -51 91 -146 100 -206 7 -42 6 -43 -16 -36 -21 7 -22 5 -18 -24 5 -33 -1
-38 -20 -19 -9 9 -12 7 -12 -12 0 -18 -3 -21 -9 -12 -4 8 -12 14 -17 15 -5 1
-8 5 -6 10 3 11 -26 9 -33 -3 -3 -5 -2 -10 4 -10 12 0 3 -29 -15 -47 -6 -7
-14 -10 -17 -7 -2 3 -8 -7 -11 -21 -5 -19 -12 -25 -22 -21 -8 3 -12 1 -9 -4 3
-5 -5 -15 -19 -21 -14 -7 -23 -16 -20 -21 3 -5 16 -2 28 6 13 8 56 24 95 37
143 43 278 11 377 -88 50 -50 107 -151 118 -211 5 -30 2 -35 -53 -76 -84 -61
-212 -122 -311 -147 -120 -30 -273 -24 -352 14 -150 74 -216 225 -204 472 3
66 11 145 17 175 6 30 11 66 11 80 0 14 2 19 5 12 2 -6 10 -9 15 -6 7 4 8 2 4
-4 -4 -7 -5 -12 -2 -12 2 0 12 -3 21 -7 16 -6 16 -4 1 19 -14 22 -14 26 -3 31
8 3 20 0 26 -6 8 -8 11 -8 11 1 0 6 -7 15 -16 20 -14 8 -14 11 -3 18 8 5 17 9
22 10 4 1 10 2 14 3 3 0 -2 10 -12 21 -10 11 -22 17 -26 14 -5 -3 -9 5 -9 17
0 22 1 22 14 4 13 -18 14 -18 25 4 11 19 10 25 -6 37 -17 14 -17 14 3 5 17 -8
25 -7 35 6 11 13 11 15 1 9 -14 -8 -42 10 -42 27 0 6 7 2 15 -9 16 -21 16 -21
19 41 1 15 10 21 36 26 54 8 100 0 167 -32z m118 -398 c3 -5 2 -12 -3 -15 -5
-3 -9 1 -9 9 0 17 3 19 12 6z m-915 -78 c0 12 80 -42 130 -87 98 -89 168 -203
191 -315 6 -32 9 -102 7 -166 -4 -92 -10 -123 -35 -186 -48 -123 -141 -247
-246 -331 l-49 -38 -52 27 -51 28 -2 190 c-1 176 0 190 18 203 23 16 25 55 3
76 -20 21 -43 20 -66 -1 -24 -21 -23 -49 2 -70 19 -16 20 -30 20 -201 l0 -183
-127 68 c-71 37 -171 83 -222 103 -89 34 -95 38 -104 70 -20 79 19 193 95 276
23 26 79 75 124 110 83 65 154 136 154 154 0 6 8 10 18 11 10 0 12 3 4 6 -9 3
-7 9 6 21 10 10 11 13 3 7 -10 -7 -8 -1 4 17 17 24 40 34 68 29 9 -1 9 12 1
34 -5 13 -8 14 -15 3 -7 -10 -9 -9 -9 5 0 19 26 23 33 5 5 -12 11 36 8 57 -1
6 10 -2 24 -17 27 -29 42 -37 29 -16 -14 22 -11 48 5 48 14 0 14 2 1 10 -11 7
-11 10 -2 10 7 0 12 8 11 18 -1 9 -1 24 0 32 1 13 2 13 11 0 5 -8 10 -12 10
-7z m-2365 -143 c-2 -4 6 -10 20 -12 13 -3 26 0 28 5 2 6 6 4 10 -5 4 -13 1
-16 -16 -13 -19 4 -20 2 -7 -8 20 -16 25 -41 7 -34 -10 4 -13 0 -10 -13 4 -14
12 -17 35 -15 25 4 28 2 18 -11 -11 -12 -10 -13 4 -8 9 4 16 3 15 -2 -4 -21 2
-26 16 -14 9 7 18 10 22 6 3 -3 0 -6 -7 -6 -16 0 99 -107 149 -138 95 -59 129
-65 381 -71 223 -6 237 -7 275 -29 67 -40 93 -92 94 -187 1 -72 -29 -143 -81
-193 -26 -25 -59 -39 -139 -63 -194 -56 -395 -72 -549 -45 l-65 11 -3 176 c-2
165 -1 177 18 194 26 23 25 47 0 70 -16 15 -26 17 -48 9 -35 -12 -44 -67 -13
-83 18 -10 20 -22 21 -182 l1 -172 -32 7 c-55 11 -155 65 -206 110 -142 128
-174 375 -72 566 34 65 120 171 131 164 5 -3 6 -9 3 -14z m885 -14 c0 -2 -7
-7 -16 -10 -8 -3 -12 -2 -9 4 6 10 25 14 25 6z m87 -58 c-3 -8 -6 -5 -6 6 -1
11 2 17 5 13 3 -3 4 -12 1 -19z m-42 2 c7 -12 -2 -12 -30 0 -19 8 -19 9 2 9
12 1 25 -3 28 -9z m2835 -40 c0 -5 -5 -10 -11 -10 -5 0 -7 5 -4 10 3 6 8 10
11 10 2 0 4 -4 4 -10z m10 -35 c7 -9 8 -15 2 -15 -5 0 -12 7 -16 15 -3 8 -4
15 -2 15 2 0 9 -7 16 -15z m37 -81 c-3 -3 -12 -4 -19 -1 -8 3 -5 6 6 6 11 1
17 -2 13 -5z m-12 -264 c3 -5 1 -10 -4 -10 -6 0 -11 5 -11 10 0 6 2 10 4 10 3
0 8 -4 11 -10z m32 -62 c-3 -8 -6 -5 -6 6 -1 11 2 17 5 13 3 -3 4 -12 1 -19z
m-2395 -505 c4 -334 6 -362 26 -424 57 -171 195 -307 364 -357 l74 -22 -8 -76
c-15 -144 -82 -269 -201 -379 -146 -136 -346 -191 -542 -150 -88 18 -215 81
-278 137 l-48 43 54 42 c58 45 116 124 145 195 15 39 18 108 22 663 l5 620 55
12 c50 12 200 37 275 46 17 2 35 5 42 6 8 1 12 -92 15 -356z m346 327 c46 -11
92 -25 103 -30 18 -10 19 -27 19 -545 0 -294 -4 -535 -8 -535 -5 0 -33 7 -63
16 -160 47 -298 181 -351 343 -20 62 -22 88 -26 425 l-4 359 124 -6 c68 -4
160 -16 206 -27z m1902 -40 c0 -5 -7 -10 -16 -10 -8 0 -12 5 -9 10 3 6 10 10
16 10 5 0 9 -4 9 -10z m-2676 -1255 c-9 -27 -27 -69 -41 -91 -30 -52 -126
-144 -150 -144 -41 0 -134 182 -154 298 -5 32 -9 289 -9 572 l0 515 183 51
182 50 3 -600 c2 -535 0 -606 -14 -651z m1090 1165 l136 -73 0 -426 0 -426
-57 -23 c-68 -27 -182 -45 -229 -36 l-34 6 0 530 0 530 24 -4 c13 -3 85 -38
160 -78z m-1607 -26 l142 5 4 -547 c3 -520 4 -550 23 -607 26 -75 57 -137 99
-196 l33 -47 -24 -11 c-13 -6 -53 -16 -90 -23 -182 -33 -363 64 -448 242 l-31
65 -3 571 -3 570 78 -14 c54 -9 121 -12 220 -8z m3072 -1732 c-14 -71 -86
-165 -155 -204 -171 -95 -380 -27 -462 150 -21 46 -26 75 -30 173 -4 112 -4
117 16 123 32 10 125 107 155 161 55 97 57 124 57 614 l0 451 28 12 c165 69
303 151 368 219 l29 30 3 -838 c1 -577 -1 -854 -9 -891z m-1180 1608 l121 -61
0 -167 c0 -107 -5 -185 -14 -217 -28 -108 -106 -224 -189 -283 l-47 -33 0 410
c0 226 2 411 4 411 1 0 58 -27 125 -60z m261 -110 c52 -17 130 -37 172 -43
l78 -11 0 -602 0 -603 -57 -21 c-41 -16 -81 -22 -138 -23 -132 -1 -234 41
-324 134 -90 94 -121 189 -121 380 l0 116 41 28 c101 71 197 217 219 334 6 29
10 121 10 203 0 116 3 148 13 144 6 -2 55 -19 107 -36z m490 -442 c0 -227 -5
-444 -10 -483 -15 -99 -58 -184 -129 -256 -33 -32 -64 -59 -70 -59 -8 0 -11
176 -11 595 l0 595 58 1 c31 0 75 4 97 8 22 5 46 9 53 10 9 1 12 -87 12 -411z"/>
<path d="M1902 3891 c-11 -7 -11 -9 2 -14 10 -4 16 -1 16 8 0 17 -1 17 -18 6z"/>
<path d="M3168 3693 c7 -3 16 -2 19 1 4 3 -2 6 -13 5 -11 0 -14 -3 -6 -6z"/>
<path d="M3655 3510 c3 -5 11 -10 16 -10 6 0 7 5 4 10 -3 6 -11 10 -16 10 -6
0 -7 -4 -4 -10z"/>
<path d="M3000 3096 c0 -9 5 -16 10 -16 6 0 10 4 10 9 0 6 -4 13 -10 16 -5 3
-10 -1 -10 -9z"/>
</g>
</svg>
