<svg id="Capa_1" data-name="Capa 1" xmlns="http://www.w3.org/2000/svg" viewBox="0 0 1000 1000"><title>icons</title><path d="M418.14,420.2c5.58-1.82,12.41-1.18,17.34-3.74,6.07-3.17,5.8-9.16,7.83-14.09,3.38-8.28,14-14.44,18.59-22.45a11.09,11.09,0,0,0,1.59-4.87c.22-5.35-5.64-9.76-12.42-11.5-8.32-2.15-17.07-.72-25.78-1-4.74-.13-9.79-1.57-14.58-.13-7.43,2.22-6.09,7.32-11.26,10.38-4.49,2.65-11.7.63-15.6,4.25-2.76,2.54-.76,6,2.33,7.79s7.2,2.88,9.53,5.21c3.79,3.75,1.7,9.34-1.42,13.92s-7.33,9.21-7.26,14a10.94,10.94,0,0,0,2.54,6.37,10.4,10.4,0,0,0,6.67,4.19c4,.65,8.34-1,11.69-2.91S414.25,421.46,418.14,420.2Z"/><path d="M733.46,530.15c2,1.44,4.86,2.28,7.69,3,3.42.82,7.51,1.46,10.16.27,1.81-.81,7.12-6.35,7.3-7.55.33-2.31-.91-2.18-4.82-2.64C747.46,522.44,725.08,523.95,733.46,530.15Z"/><path d="M750.71,556.38c-6,.85-6.38,5.72-4.17,9.35s6,7.43,4.41,10.9c-.32.7-.86,1.38-.68,2.13s1.47,1.68,2.84,2.22c6.35,2.48,14.16.69,20-1.29s13-4.12,19.82-2.14c7.34,2.12,9.42,7.49,14.64,11.22C812.24,592,821,594,826.2,591.9a12.34,12.34,0,0,0,4-2.84q3.38-3.23,6.73-6.47c2.93-2.85,5.92-5.89,5.54-9.46-.75-6.88-12.91-12.39-23.55-16.59a17.49,17.49,0,0,0-4.79-6.36c-4.89-3.82-12.72-4.21-9.09,1.2-6,.13-12.39-5.18-19.25-5.69A33.86,33.86,0,0,0,764.36,552c-2,1.6-3.85,3.55-7.28,4.06C755,556.37,752.75,556.09,750.71,556.38Z"/><path d="M705.9,535.38c9.4,9.72,25.45,17.95,40.5,15.35,3,0,2.7-3.42-.07-4.06-4.39-1-8.7-2.93-13.1-3.93s-8.82-2.51-11.76-5a40.22,40.22,0,0,1-3.18-3.36c-2.49-2.69-10.58-7.59-16.4-8.46a1.61,1.61,0,0,0-1.4,2.6A84,84,0,0,0,705.9,535.38Z"/><path d="M285.32,387.26a21.5,21.5,0,1,0-21.5-21.5A21.52,21.52,0,0,0,285.32,387.26Zm0-37.42a15.92,15.92,0,1,1-15.92,15.92A15.94,15.94,0,0,1,285.32,349.84Z"/><path d="M648,371.36a21.5,21.5,0,1,0,21.5,21.5A21.52,21.52,0,0,0,648,371.36Zm0,37.42a15.92,15.92,0,1,1,15.92-15.92A15.94,15.94,0,0,1,648,408.78Z"/><path d="M761,405.44a21.5,21.5,0,1,0,21.5,21.5A21.52,21.52,0,0,0,761,405.44Zm0,37.42a15.92,15.92,0,1,1,15.92-15.92A15.94,15.94,0,0,1,761,442.86Z"/><path d="M533.83,369.77a21.5,21.5,0,1,0-21.5-21.5A21.52,21.52,0,0,0,533.83,369.77Zm0-37.42a15.92,15.92,0,1,1-15.92,15.92A15.94,15.94,0,0,1,533.83,332.35Z"/><path d="M350.52,469.63h0a21.5,21.5,0,0,0,0,43h0a21.5,21.5,0,0,0,0-43Zm-15.92,21.5A15.92,15.92,0,1,1,350.51,507,15.94,15.94,0,0,1,334.59,491.13Z"/><path d="M549.8,458.31a21.5,21.5,0,1,0,21.5,21.5A21.52,21.52,0,0,0,549.8,458.31Zm0,37.42a15.92,15.92,0,1,1,15.92-15.92A15.94,15.94,0,0,1,549.8,495.73Z"/><path d="M958.42,650.32,833.66,372.78H820L802.83,334.6a2.79,2.79,0,0,0-2.54-1.65h0l-222.4,1.51c-.07-.24-.13-.49-.2-.73a43.7,43.7,0,0,0-5.16-10.95,45.4,45.4,0,0,0-4.07-5.32c-.88-1-1.82-2-2.8-2.89q-1-.92-2-1.78c-1-.85-2.09-1.68-3.2-2.44q-1.1-.77-2.25-1.47a43.53,43.53,0,0,0-9.81-4.44,49.69,49.69,0,0,0-13.64-2.25h-.9a45.14,45.14,0,0,0-27.3,9,46.24,46.24,0,0,0-16.83,23.87L321,336.2c-.35-.42-.68-.85-1-1.26-.89-1-1.84-2-2.8-2.88q-1-.92-2-1.78c-1-.86-2.11-1.68-3.2-2.44q-1.1-.77-2.25-1.47a43.5,43.5,0,0,0-9.81-4.44,49.68,49.68,0,0,0-13.64-2.25h-.9a45.14,45.14,0,0,0-27.3,9,45.82,45.82,0,0,0-8.39,8l-51.77.35a2.79,2.79,0,0,0-2.52,1.63l-15.5,34.12h-13.1L39.37,651.25A4.08,4.08,0,0,0,43.08,657h911A4.76,4.76,0,0,0,958.42,650.32ZM509.85,315.66a39.62,39.62,0,0,1,24-7.9h.79a44.13,44.13,0,0,1,12.11,2,38,38,0,0,1,8.55,3.87c.67.41,1.33.84,2,1.28,1,.67,1.91,1.39,2.8,2.14.6.5,1.19,1,1.76,1.56.86.81,1.68,1.66,2.46,2.54a39.7,39.7,0,0,1,3.57,4.67,38,38,0,0,1,4.5,9.54h0a41.06,41.06,0,0,1-6.07,37.17l-32.45,41.6-32.42-41.56a40.13,40.13,0,0,1-8.1-24.31A40.62,40.62,0,0,1,509.85,315.66ZM261.34,333.15a39.62,39.62,0,0,1,24-7.9h.79a44.12,44.12,0,0,1,12.11,2,37.89,37.89,0,0,1,8.55,3.87c.67.41,1.33.84,2,1.28,1,.67,1.9,1.39,2.8,2.14q.9.75,1.76,1.56c.85.8,1.67,1.65,2.46,2.53a39.73,39.73,0,0,1,3.57,4.67,38,38,0,0,1,4.5,9.54h0A41.06,41.06,0,0,1,317.76,390l-32.45,41.6L252.9,390.07a40.12,40.12,0,0,1-8.1-24.31A40.62,40.62,0,0,1,261.34,333.15ZM350.52,557,318.1,515.43a40.12,40.12,0,0,1-8.1-24.31,40.62,40.62,0,0,1,16.54-32.61,39.63,39.63,0,0,1,24-7.9h.79a44.13,44.13,0,0,1,12.11,2,37.91,37.91,0,0,1,8.55,3.87q1,.61,2,1.28c1,.66,1.89,1.38,2.8,2.14q.9.75,1.76,1.56c.85.8,1.68,1.66,2.46,2.53a39.85,39.85,0,0,1,3.57,4.67,38,38,0,0,1,4.5,9.54h0A41.06,41.06,0,0,1,383,515.39Zm-39.58-42.31a4.18,4.18,0,0,0-.5.92c-3.13.63-8.53.1-9.83-1.51-.93-1.16-1-2.79-3-3.32-1-.28-2.46-.17-3.25-.66-1.29-.81.25-2.27.82-3.48.92-1.94-1-3.77-3.6-4.61s-5.88-.9-9-1-6.39-.14-9-1c-5-1.69-5.93-6.29-2.53-9.8s10.19-5.68,16.21-5.59,11.45,2.8,10.56,6.52c-.23.94,2.17,1,3.61.57a5.27,5.27,0,0,0,2.91-2.34l.1-.19c0,.62-.06,1.25-.06,1.87A45.63,45.63,0,0,0,310.93,514.69ZM199.68,342.59l46-.31a45.86,45.86,0,0,0-4.34,37.36,32.78,32.78,0,0,0-9.68,2.59c-2.53,1.15-1.29,4.13,0,5.52s2.57,5.58-6,5.57a20.41,20.41,0,0,0-4.3.08c-1.49.3-5.67,4-5,5.11.53.84,1.73,1.52,1.32,2.55-.32.82-1.58,1.48-2.78,1.86a33.36,33.36,0,0,0-3.64,1c-7.76,3.43-8.41,8.07-8.41,16.28,0,.91,1.58,1.26,2.87,1.49,2.77.51,6.09.94,8.95-.39,7.5-3.5,16.47-1.74,23.9-.58,2.57.4,5.2,1.07,6.26,2.61,1.42,2.05-.46,4.92-3,7.14s-5.74,4.2-7.7,6.61a15.37,15.37,0,0,0-2.9,7c-.63,2.89-1.22,5.92.53,8.28a9.7,9.7,0,0,1,1,9.2c-1,2.44-3.15,4.83-3.63,7.26-.86,4.4,4,7.68,9.44,9.79,5.71,2.2,10.08,6,10.94,10.37.44,2.21.05,4.56.36,6.79.54,3.88,3.25,7.39,7.62,9.88,3.2,1.82,9.17,2.45,13.73,3,2.37.27,4.95.48,6.51,1.49.72.47,1.17,1.08,1.86,1.57,3.32,2.38,10.87,1.38,14.27,3.73a19.89,19.89,0,0,1,2.14,2.06c2,1.82,5.75,2.83,9.68,2.62-1.34,1.79,1.72,3.89.2,5.65-1.23,1.42-4.07,2-6.17,3.07-3.65,1.78-4.91,4.83-4.13,7.31s3.25,4.53,5.74,6.48c4.67,3.61,10.93,5.35,16.21,8.69,4.93,3.09,5.14,8.11,2.95,12.56s-6.5,8.6-9.88,12.89c-6.37,8-9.48,16.82-6.84,24.87s11.76,15.22,25.37,18.38a7.89,7.89,0,0,0,4.85-.94c1.28-.68,1.74-1.78,1.08-2.6-2.07-2.59-7.8-4-10.66-6.31-.89-.73-.17-2.48.11-3.29.36-1,2.12-1.79,3.47-2.6,2-1.22,3.32-2.81,3.55-4.39s-1-2.94-.66-4.42,2.12-3,4.71-3.53c1.18-.22,2.44-.2,3.59-.47,3.78-.9,3.79-4,6.7-5.67a21,21,0,0,1,4.91-1.61c7.27-1.9,13.59-5.66,14.94-10,1.08-3.48-.42-7.71,4.54-10,4.53-2.1,10.77-.72,16.31-1.24a8.49,8.49,0,0,0,5.11-2.57,4.26,4.26,0,0,0,1.32-3.82c-.23-1.58-1.18-3.13-.69-4.73.68-2.25,3.91-4,6.47-5.8a21,21,0,0,0,6.64-7.22c1.54-3-1.19-6.48-5.44-8s-9.56-1.51-14.63-1.58c-2,0-4-.1-6-.26l8-10.21a46.61,46.61,0,0,0,7-42.2,43.6,43.6,0,0,0-5.16-10.94,45.38,45.38,0,0,0-4.07-5.33c-.89-1-1.83-2-2.8-2.88q-1-.92-2-1.78c-.78-.65-1.59-1.25-2.41-1.84a4.2,4.2,0,0,0,.92-3.65c-.46-1.67-2-3-3.2-4.5a13,13,0,0,1-2.91-6.63c-.26-2.17,0-4.55-1.83-6.24-6-4-9.91-7.84-21.32-7-3.37.23-4.35,3.83-4.29,6.05s1,4.38.39,6.63-3.49,4.76-6.9,4.71a7,7,0,0,1-4.27-1.57c-1.52-1.19-2.58-2.71-4.7-3.42a34.72,34.72,0,0,0-5.48-.8c-6.22-.94-9.39-5.84-6.55-10.08s11-7,16.79-5.57c8.29,1.52,12.31-8.26,10.48-13.23s-8.88-8-16.56-8.22a46.25,46.25,0,0,1-6.69-.28,9.21,9.21,0,0,1-3.56-1.48l4-5.07a46.61,46.61,0,0,0,7-42.2,43.39,43.39,0,0,0-4.27-9.47l163.51-1.11A45.8,45.8,0,0,0,497,376l23.36,30c-3.59.77-6.79,2.22-8.76,4.43-3.07,3.43-2.64,7.89-5.73,11.34-2.42,2.68-6.71,4.42-8.74,7.35a4,4,0,0,0-.75,3.17c.85,3.69,6.48,3,9.28,4.93,1.78,1.22,2.21,3.37,5,3.7a5.07,5.07,0,0,0,4.39-1.56c1.72-2.11.62-4.32.13-6.48-1.17-5.23,2.83-11.68,10.57-12.46a1.77,1.77,0,0,1,1.54,2.82c-.8,1.07-2.35,1.82-3.19,2.88-2.05,2.56,1.54,6.5,6.56,5.23,2.94-.75,5.55.16,5.56,2.28,0,2.89-7.27,1.1-9.58,3.19-1.06,1-.53,2.2-.3,3.41a45.05,45.05,0,0,0-3.88,2.57,45.66,45.66,0,0,0-3.85,3.18c-.48.06-1,.12-1.44.14-4.36.22-8.7-.61-13.06-.34s-17.62,4.85-24.55,9.27c-1.81,1.15-1.61,2.79.42,3.56,2.41.92,5,1.77,4.86,3.46-.08,1.06-1.31,2-2.86,2.38-5,1.29-9.91-1.56-14.74.69-3,1.38-4,3.9-2.92,6.05,1.87,3.6,8.19,5,13.94,4.7,2-.11,4.22-.46,5.55-1.48s1.36-2.33,2-3.5c3.19-5.87,11-8.34,15.72-7.24a19.08,19.08,0,0,1,4.37,2.19,45.89,45.89,0,0,0-2,9.28,11.91,11.91,0,0,0-3.79-.27c-7.91.59-16.13,5.14-23,4.32a8.64,8.64,0,0,0-5.91,1.44c-6,4.4-15.88,6.74-22.06,11.31-7.91,5.78-8.14,14.68-1.42,20.53s19.6,8.59,31.71,7.64c2.77-.22,5.78-.83,8.24,0,9,3.19,23.81,18.19,23.62,21.72-.1,1.83-1.93,3.46-2.81,5.23-4.07,8.07,12.13,14.62,14.66,22.86.69,2.22.67,4.89,3.93,6.14a16.91,16.91,0,0,0,5.2.76c9.28.34,20.93-1.25,22.73-6.47.5-1.47.08-3,.12-4.51.12-4.5,4.72-8.84,11.52-10.88a25.39,25.39,0,0,0,5.32-1.83c3.18-1.89,2.32-5.09.54-7.6s-4.29-5-3.81-7.7c.75-4.29,8.33-6.57,14-9.14,6.3-2.87,11-6.94,13.39-11.49,1.08-2.06-1.9-4.13-5.37-3.7a44,44,0,0,1-9,.28l3.46-4.44a79.74,79.74,0,0,0,21.56-6.53c2.48-1.2,4.91-2.64,5.46-4.6.35-1.24-.31-2.58-1.8-3.49-2-1.22-3.94-.79-5.9-.65a23.21,23.21,0,0,1-10.37-1.86,46,46,0,0,0,1.52-8.51,8.54,8.54,0,0,1,2.94.27,151,151,0,0,0,24.8,4.69,33.05,33.05,0,0,1,6.26,1,21,21,0,0,1,3.76,1.67c10.45,5.59,19.52,17,24.29,24.95,3.88.51,6.15-2.36,6.11-4.74s-.88-5.12,1.65-6.79c2-1.31,5.52-1.5,7.2-3,2.22-1.94.18-5.26,3.36-6.78a8.32,8.32,0,0,1,5.41-.19c7.52,2,24.46,21.74,30.09,26.43,2,1.62,6,.54,4.75-1.29a12.1,12.1,0,0,0-2.54-2.62c-2.72-2.12-5.59-5.29-2.62-6.87,5.1,0,8.11,4.88,13.77,4.58,3.34-.18,5.33-2.06,5-4.14-.55-3.36-5.38-5.76-10.17-7.29-4-2.37.28-6.18,5.26-6.73,6.41-.71,14.15,1,18.29-3.09a5.54,5.54,0,0,0,1.52-5.48c-1.41-5.62-8.24-10-12.9-14.8-1.58-1.64-2.21-3.55-1.36-5.19a3.73,3.73,0,0,1,2.85-1.89l22.21,28.47c-3.93,6.63-6.41,13-1.29,11.81,2.14-.52,4.43-2.06,6.55-3.63,2.57-1.91,5.4-4.38,6.12-6.92.11-.4.35-1.44.62-2.77l30.28-38.82a46.6,46.6,0,0,0,7-42.2,43.5,43.5,0,0,0-5.16-10.94,45.61,45.61,0,0,0-4.07-5.33c-.89-1-1.84-2-2.8-2.88q-1-.92-2-1.78c-1-.86-2.11-1.68-3.2-2.44q-1.1-.77-2.25-1.47a43.6,43.6,0,0,0-8.65-4,23.48,23.48,0,0,0-9.19-7.64c-6.07-3-13.64-3.87-19.54-2.35-1.92.5-3.68,1.23-5.67,1.64a40,40,0,0,1-9.48.33l-17.34-.75c-5.16-.22-10.62-.4-14.78,1.34-3.25,1.35-5.49,3.75-8,5.8-.28-1.19-.58-2.38-1-3.56a43.58,43.58,0,0,0-5.16-10.94,45.49,45.49,0,0,0-4.07-5.33c-.89-1-1.83-2-2.8-2.88q-1-.92-2-1.78c-1-.85-2.09-1.68-3.2-2.45-.74-.51-1.48-1-2.25-1.47a43.53,43.53,0,0,0-9.81-4.44,49.61,49.61,0,0,0-13.64-2.25H648a45.13,45.13,0,0,0-27.3,9,45.93,45.93,0,0,0-16.94,50,8,8,0,0,1-2.14,1.16c-3,1.13-8.09.85-10.88-.74-4.5-2.57-11.15.2-15.38,2.94s-8.69,5.56-13.08,8.34c-3.32,2.09-6.91,4.26-11.41,4.8s-10-1.39-10.18-4.49c3.19-2.09,9.85,1.22,12.35-1.61,1.32-1.5.34-3.49-1.92-4.35s-4.27-1.65-6.44-2.46l26-33.4a46.22,46.22,0,0,0,8.47-35.9l219.32-1.48,133.7,298.21H66ZM549.8,545.67l-32.42-41.56a40.13,40.13,0,0,1-8.1-24.31,40.62,40.62,0,0,1,16.54-32.61,39.63,39.63,0,0,1,24-7.9h.8a44,44,0,0,1,12.11,2,38,38,0,0,1,8.55,3.87q1,.61,2,1.28c1,.66,1.9,1.38,2.8,2.14q.9.75,1.76,1.56c.85.8,1.68,1.65,2.46,2.53a39.65,39.65,0,0,1,3.57,4.67,38,38,0,0,1,4.5,9.54h0a41.07,41.07,0,0,1-6.07,37.17ZM680.42,417.12,648,458.72l-32.42-41.56a40.12,40.12,0,0,1-8.1-24.31A40.62,40.62,0,0,1,624,360.24a39.63,39.63,0,0,1,24-7.9h.8a44,44,0,0,1,12.11,2,37.89,37.89,0,0,1,8.55,3.87c.67.41,1.33.84,2,1.28,1,.67,1.91,1.4,2.8,2.15q.9.76,1.76,1.56c.85.8,1.68,1.66,2.46,2.53a39.74,39.74,0,0,1,3.57,4.67,38.06,38.06,0,0,1,4.5,9.54h0A41.07,41.07,0,0,1,680.42,417.12ZM761,492.81l-32.42-41.56a40.13,40.13,0,0,1-8.1-24.31A40.62,40.62,0,0,1,737,394.32a39.63,39.63,0,0,1,24-7.9h.79a44.08,44.08,0,0,1,12.11,2,37.85,37.85,0,0,1,8.55,3.87q1,.61,2,1.28c1,.67,1.9,1.39,2.8,2.14q.9.75,1.76,1.56c.85.8,1.67,1.65,2.46,2.53a39.66,39.66,0,0,1,3.57,4.67,37.91,37.91,0,0,1,4.5,9.54h0a41.07,41.07,0,0,1-6.07,37.17Z"/><path d="M612.67,568.63H655.4a2.79,2.79,0,1,0,0-5.57H612.67a2.79,2.79,0,1,0,0,5.57Z"/><path d="M220.65,568.63h42.73a2.79,2.79,0,1,0,0-5.57H220.65a2.79,2.79,0,0,0,0,5.57Z"/><path d="M728.4,605H707a2.79,2.79,0,0,0,0,5.57H728.4a2.79,2.79,0,0,0,0-5.57Z"/><path d="M159.9,517.69h21.37a2.79,2.79,0,1,0,0-5.57H159.9a2.79,2.79,0,0,0,0,5.57Z"/><path d="M111.23,609.13h8a2.79,2.79,0,1,0,0-5.57h-8a2.79,2.79,0,0,0,0,5.57Z"/><path d="M457.07,589.06h8a2.79,2.79,0,0,0,0-5.57h-8a2.79,2.79,0,1,0,0,5.57Z"/><path d="M777.49,353.94h-8a2.79,2.79,0,1,0,0,5.57h8a2.79,2.79,0,1,0,0-5.57Z"/><path d="M818.15,507.46h14.68a2.79,2.79,0,1,0,0-5.57H818.15a2.79,2.79,0,1,0,0,5.57Z"/><path d="M448.71,428.76a2.79,2.79,0,0,0,2.79,2.79h19.14a2.79,2.79,0,1,0,0-5.57H451.49A2.79,2.79,0,0,0,448.71,428.76Z"/><path d="M208.4,362.22h8a2.79,2.79,0,0,0,0-5.57h-8a2.79,2.79,0,1,0,0,5.57Z"/></svg>