<svg viewBox="0 0 500 500" xmlns="http://www.w3.org/2000/svg"><g fill="#1a1a1a"><path d="M424.45 74a19.91 19.91 0 00-15.32-5.7 176.79 176.79 0 00-39.5 6.79 3.25 3.25 0 00-.77.22C330.24 86.51 290.58 110.26 257 143l-4.63 4.62a299.76 299.76 0 00-42.94 55.09 3.25 3.25 0 00-.56.92 260.58 260.58 0 00-15.32 29.77c-9.5-.22-37.06 1.47-73.8 24.15-1.8 1.1-3.78 2.35-5.52 3.53a250.22 250.22 0 00-23.3 17.44 10.98 10.98 0 00-3.15 12.7 11.36 11.36 0 002.5 3.8 10.97 10.97 0 008.6 3.16c24.15-1.67 57.47.86 79 22.4s24.07 54.84 22.4 79a10.97 10.97 0 003.16 8.6 11.36 11.36 0 003.8 2.5 10.98 10.98 0 0012.7-3.15 250.26 250.26 0 0017.35-23.17c.72-1.28 2.6-3.58 3.54-5.52 22.75-36.81 24.45-64.43 24.22-73.93 29.97-13.02 59.64-33.11 85.79-58.82 1.6-1.54.74-.65 2.5-2.47l2.12-2.16c32.71-33.56 56.45-73.2 67.66-111.8a3.25 3.25 0 00.26-.88 176.76 176.76 0 006.78-39.45A19.91 19.91 0 00424.45 74zM95.13 283.51c45.82-38.5 82.76-43.2 95.68-43.56-7.87 19.72-12.64 39.45-13.9 58.28-23.57-15.26-53.2-15.33-81.24-13.94a6.6 6.6 0 00-1.42.23 4.75 4.75 0 01.88-1zm121.85 117.32c2.66-27.3-1.7-56.34-16.96-79.28 18.89-1.24 38.69-6 58.47-13.91-.34 12.68-4.9 48.53-41.5 93.19zm-21.53-85.56a87.84 87.84 0 00-5.98-6.78 74.04 74.04 0 00-6.28-5.69c1.11-29.6 11.51-61.8 29.42-92.7l75.73 75.73c-30.95 17.96-63.24 28.36-92.89 29.44zm152.63-75.64a294.79 294.79 0 01-53.95 42.75l-78.06-78.06a294.79 294.79 0 0142.75-53.95c33-33 72.25-57 110.43-68.37l47.2 47.2c-11.37 38.18-35.37 77.43-68.37 110.43z"/><path d="M296.74 152.7a34.66 34.66 0 1049.01 0 34.7 34.7 0 00-49.01 0zM142.33 411.34a3.03 3.03 0 00-3.17 2.82l-1.02 17.4a3 3 0 002.82 3.17h.18a3 3 0 002.99-2.82l1.02-17.4a3 3 0 00-2.82-3.17zM91.22 362.63a3 3 0 00-3.13-2.87l-18.4.77a3 3 0 00.12 6h.13l18.4-.77a3 3 0 002.88-3.13zM107.42 395.59l-23.2 23.2a3 3 0 104.24 4.24l23.2-23.2a3 3 0 00-4.24-4.24z"/></g></svg>