<?xml version="1.0" standalone="no"?>
<!DOCTYPE svg PUBLIC "-//W3C//DTD SVG 20010904//EN"
 "http://www.w3.org/TR/2001/REC-SVG-20010904/DTD/svg10.dtd">
<svg version="1.0" xmlns="http://www.w3.org/2000/svg"
 width="229.000000pt" height="244.000000pt" viewBox="0 0 229.000000 244.000000"
 preserveAspectRatio="xMidYMid meet">

<g transform="translate(0.000000,244.000000) scale(0.100000,-0.100000)"
fill="#000000" stroke="none">
<path d="M1661 2278 c-8 -29 -20 -66 -28 -81 -15 -31 -72 -61 -136 -72 -20 -4
-39 -11 -42 -15 -2 -3 30 -17 71 -30 88 -28 106 -46 130 -131 9 -32 20 -59 25
-59 4 0 17 30 29 68 12 37 28 73 36 81 7 8 51 27 96 42 l83 27 -45 11 c-127
33 -142 45 -171 141 -11 39 -24 70 -28 70 -4 0 -13 -24 -20 -52z"/>
<path d="M190 1588 c0 -610 3 -657 55 -793 52 -140 115 -239 223 -349 262
-268 659 -350 1008 -206 280 114 479 333 565 621 22 70 23 94 27 493 3 401 3
418 -15 412 -10 -4 -91 -37 -180 -74 l-163 -66 0 -104 c0 -118 -9 -112 97 -69
34 14 63 23 65 22 2 -2 2 -111 1 -242 -2 -198 -6 -251 -22 -314 -33 -128 -110
-261 -198 -340 -74 -67 -208 -149 -244 -149 -5 0 5 19 20 43 43 64 81 160 103
266 18 84 21 145 25 484 3 213 3 387 0 387 -3 0 -47 -18 -98 -39 l-94 -39 -5
-343 c-7 -388 -15 -454 -77 -572 -40 -76 -109 -144 -188 -185 -71 -37 -187
-38 -266 -2 -164 74 -297 207 -374 372 -62 134 -64 157 -65 623 -1 231 -1 423
-1 427 1 3 28 -4 61 -18 78 -31 166 -68 212 -88 l36 -16 4 -347 c5 -391 7
-405 78 -511 22 -33 65 -79 96 -102 49 -37 146 -80 180 -80 15 0 54 116 54
159 0 23 -7 29 -50 44 -64 23 -103 57 -132 115 -23 46 -23 53 -28 451 l-5 404
-70 29 c-38 16 -101 42 -140 58 -171 72 -486 200 -490 200 -3 0 -5 -253 -5
-562z"/>
</g>
</svg>
