<svg version="1.1" id="Capa_1" xmlns="http://www.w3.org/2000/svg" x="0" y="0" viewBox="0 0 500 500" xml:space="preserve"><style>.st7{fill:#fff}</style><path d="M441.4 433.1H58.7c-7 0-12.7-5.7-12.7-12.7V170h407.9v250.6c0 6.9-5.6 12.5-12.5 12.5zm-379.3-16H438V186H62.1v231.1z"/><path d="M445.9 178H54.1V84c0-2.5 2-4.6 4.6-4.6h382.8c2.5 0 4.5 2 4.5 4.5V178z"/><path d="M453.9 186H46.1V84c0-6.9 5.6-12.6 12.6-12.6h382.8c6.9 0 12.5 5.6 12.5 12.5V186zM62.1 170H438V87.5H62.1V170z"/><path d="M139.6 118.1c-7.6 0-13.8-6.2-13.8-13.8V47.1c0-7.6 6.2-13.8 13.8-13.8s13.8 6.2 13.8 13.8v57.1c.1 7.7-6.1 13.9-13.8 13.9zM250 118.1c-7.6 0-13.8-6.2-13.8-13.8V47.1c0-7.6 6.2-13.8 13.8-13.8 7.6 0 13.8 6.2 13.8 13.8v57.1c0 7.7-6.2 13.9-13.8 13.9zM360.4 118.1c-7.6 0-13.8-6.2-13.8-13.8V47.1c0-7.6 6.2-13.8 13.8-13.8 7.6 0 13.8 6.2 13.8 13.8v57.1c0 7.7-6.2 13.9-13.8 13.9zM138.9 246h-26.1c-7.6 0-13.8-6.2-13.8-13.8 0-7.6 6.2-13.8 13.8-13.8h26.1c7.6 0 13.8 6.2 13.8 13.8 0 7.6-6.2 13.8-13.8 13.8zM258.5 246h-26.1c-7.6 0-13.8-6.2-13.8-13.8 0-7.6 6.2-13.8 13.8-13.8h26.1c7.6 0 13.8 6.2 13.8 13.8 0 7.6-6.2 13.8-13.8 13.8zM378 246h-26.1c-7.6 0-13.8-6.2-13.8-13.8 0-7.6 6.2-13.8 13.8-13.8H378c7.6 0 13.8 6.2 13.8 13.8.1 7.6-6.1 13.8-13.8 13.8zM138.9 314.1h-26.1c-7.6 0-13.8-6.2-13.8-13.8 0-7.6 6.2-13.8 13.8-13.8h26.1c7.6 0 13.8 6.2 13.8 13.8 0 7.6-6.2 13.8-13.8 13.8zM258.5 314.1h-26.1c-7.6 0-13.8-6.2-13.8-13.8 0-7.6 6.2-13.8 13.8-13.8h26.1c7.6 0 13.8 6.2 13.8 13.8 0 7.6-6.2 13.8-13.8 13.8zM378 314.1h-26.1c-7.6 0-13.8-6.2-13.8-13.8 0-7.6 6.2-13.8 13.8-13.8H378c7.6 0 13.8 6.2 13.8 13.8.1 7.6-6.1 13.8-13.8 13.8z"/><g><path d="M138.9 382.1h-26.1c-7.6 0-13.8-6.2-13.8-13.8s6.2-13.8 13.8-13.8h26.1c7.6 0 13.8 6.2 13.8 13.8s-6.2 13.8-13.8 13.8z"/></g><g><path d="M258.5 382.1h-26.1c-7.6 0-13.8-6.2-13.8-13.8s6.2-13.8 13.8-13.8h26.1c7.6 0 13.8 6.2 13.8 13.8s-6.2 13.8-13.8 13.8z"/></g><g><path d="M378 382.1h-26.1c-7.6 0-13.8-6.2-13.8-13.8s6.2-13.8 13.8-13.8H378c7.6 0 13.8 6.2 13.8 13.8s-6.1 13.8-13.8 13.8z"/></g><g><path className="st7" d="M416.2 249.1c-6.4 0-11.5-5.2-11.5-11.5v-26.7a11.5 11.5 0 0123 0v26.7c0 6.4-5.1 11.5-11.5 11.5z"/></g><g><path className="st7" d="M416.2 164.5c-6.4 0-11.5-5.2-11.5-11.5v-42.7a11.5 11.5 0 0123 0V153c0 6.3-5.1 11.5-11.5 11.5z"/></g></svg>