<svg version="1.1" id="Capa_1" xmlns="http://www.w3.org/2000/svg" x="0" y="0" viewBox="0 0 500 500" xml:space="preserve"><style></style><path d="M356.5 380l-9.2-13.1c45.3-31.8 72.4-83.8 72.4-139.1 0-93.6-76.1-169.7-169.7-169.7S80.3 134.2 80.3 227.8c0 27.5 6.4 53.7 18.9 77.9 12 23.1 29.4 43.5 50.4 58.9l-9.5 12.9C117.1 360.6 98 338.3 85 313a186.38 186.38 0 01-20.7-85.2c0-102.4 83.3-185.7 185.7-185.7 102.4 0 185.7 83.3 185.7 185.7 0 60.5-29.6 117.4-79.2 152.2z"/><path d="M388.6 225.7c-5.3 0-10.2-3.6-11.6-9-.8-3.1-1.7-6.1-2.7-9-2.1-6.3 1.2-13.1 7.5-15.2 6.3-2.1 13.1 1.2 15.2 7.5 1.2 3.5 2.2 7 3.2 10.6 1.7 6.4-2.2 12.9-8.6 14.6-1 .4-2 .5-3 .5zM369.1 171.2c-3.9 0-7.6-1.9-10-5.3-9.5-14.2-21.6-26.3-35.8-35.9-5.5-3.7-6.9-11.1-3.2-16.6 3.7-5.5 11.1-6.9 16.6-3.2 16.8 11.3 31 25.6 42.3 42.4a11.94 11.94 0 01-9.9 18.6zM383.5 380.3H118.7c-13.4 0-25.9 6.7-33.3 17.8l-22.7 42.1c-2.8 4.1.2 9.7 5.2 9.7h362.8c6.2 0 9.9-6.9 6.4-12.1l-21.6-40.5c-7.2-10.6-19.2-17-32-17z"/><path d="M379.8 387.8H121.5a14.4 14.4 0 010-28.8h258.4a14.4 14.4 0 11-.1 28.8zM206.8 271.2c9.5 5.3 23.1 9.3 37.7 9.3 21.6 0 34.3-9.9 34.3-24.2 0-13.1-8.8-20.9-30.9-28-26.7-8.4-43.3-20.7-43.3-40.5 0-22.1 21.2-38.6 53-38.6 16.5 0 28.9 3.4 36 7l-5.8 15c-5.1-2.7-16.1-6.7-30.9-6.7-22.4 0-30.9 11.6-30.9 21.3 0 13.3 10 19.8 32.6 27.4 27.7 9.3 41.6 20.9 41.6 41.7 0 21.9-18.5 41.1-57.1 41.1-15.8 0-33.1-4.2-41.8-9.3l5.5-15.5z"/><path d="M243 298.3c-15.3 0-33.4-4-43.1-9.6-1-.6-1.5-1.8-1.1-2.9l5.6-15.4c.2-.7.8-1.2 1.4-1.4.7-.2 1.4-.2 2 .2 10.3 5.7 23.6 9 36.5 9 19.6 0 31.9-8.4 31.9-21.8 0-11.9-7.9-18.8-29.2-25.7-30.7-9.7-45-23.3-45-42.8 0-24.1 22.8-41 55.5-41 20.7 0 32.8 5.1 37.1 7.2 1.1.6 1.6 1.9 1.2 3.1l-5.8 15c-.3.7-.8 1.2-1.4 1.4-.7.3-1.4.2-2-.1-2.8-1.5-13.3-6.5-29.7-6.5-19.7 0-28.5 9.5-28.5 18.8 0 11.1 7.5 17.2 30.9 25.1 30.3 10.1 43.2 23.3 43.2 44 .1 20-15.5 43.4-59.5 43.4zm-38.8-12.8c8.3 4.1 23.5 8 38.8 8 33.2 0 54.7-15.2 54.7-38.7 0-18.5-11.6-29.9-39.9-39.4-22.2-7.5-34.3-14.4-34.3-29.7 0-11.8 10.3-23.7 33.3-23.7 14.4 0 24.7 3.6 29.6 5.8l4-10.4c-5.2-2.2-15.9-5.8-32.9-5.8-29.8 0-50.6 14.9-50.6 36.1 0 17.1 13.2 29.2 41.6 38.1 23.5 7.6 32.6 16.1 32.6 30.3 0 16.2-14.4 26.7-36.7 26.7-12.7 0-25.8-3-36.4-8.3l-3.8 11z"/><path d="M229.9 124.1h13.2V158h-13.2z"/><path d="M243.1 160.3h-13.2c-1.3 0-2.4-1.1-2.4-2.4V124c0-1.3 1.1-2.4 2.4-2.4h13.2c1.3 0 2.4 1.1 2.4 2.4v33.9c0 1.4-1.1 2.4-2.4 2.4zm-10.7-4.8h8.3v-29h-8.3v29z"/><g><path d="M260.1 124.1h13.2V158h-13.2z"/><path d="M273.3 160.3h-13.2c-1.3 0-2.4-1.1-2.4-2.4V124c0-1.3 1.1-2.4 2.4-2.4h13.2c1.3 0 2.4 1.1 2.4 2.4v33.9c0 1.4-1.1 2.4-2.4 2.4zm-10.7-4.8h8.3v-29h-8.3v29z"/></g><g><path d="M229.9 286.6h13.2v33.9h-13.2z"/><path d="M243.1 322.9h-13.2c-1.3 0-2.4-1.1-2.4-2.4v-33.9c0-1.3 1.1-2.4 2.4-2.4h13.2c1.3 0 2.4 1.1 2.4 2.4v33.9c0 1.3-1.1 2.4-2.4 2.4zm-10.7-4.9h8.3v-29h-8.3v29z"/><g><path d="M260.1 286.6h13.2v33.9h-13.2z"/><path d="M273.3 322.9h-13.2c-1.3 0-2.4-1.1-2.4-2.4v-33.9c0-1.3 1.1-2.4 2.4-2.4h13.2c1.3 0 2.4 1.1 2.4 2.4v33.9c0 1.3-1.1 2.4-2.4 2.4zm-10.7-4.9h8.3v-29h-8.3v29z"/></g></g><g><path d="M398.2 440c-4.1 0-8-2.1-10.3-5.8l-9.8-16.4c-3.4-5.7-1.6-13 4.1-16.4 5.7-3.4 13-1.6 16.4 4.1l9.8 16.4c3.4 5.7 1.6 13-4.1 16.4-1.9 1.2-4 1.7-6.1 1.7z" fill="#fff"/></g></svg>