<?xml version="1.0" encoding="utf-8"?>
<!-- Generator: Adobe Illustrator 21.1.0, SVG Export Plug-In . SVG Version: 6.00 Build 0)  -->
<svg version="1.1" xmlns="http://www.w3.org/2000/svg" xmlns:xlink="http://www.w3.org/1999/xlink" x="0px" y="0px"
	 viewBox="0 0 500 500" style="enable-background:new 0 0 500 500;" xml:space="preserve">
<style type="text/css">
	.st0{fill:#1A1A1A;}
	.st1{fill:none;stroke:#1A1A1A;stroke-width:5;stroke-linecap:round;stroke-linejoin:round;stroke-miterlimit:10;}
	.st2{fill:#1A1A1A;stroke:#1A1A1A;stroke-width:5;stroke-linecap:round;stroke-linejoin:round;stroke-miterlimit:10;}
	.st3{fill:#FFFFFF;}
	.st4{fill:none;stroke:#1A1A1A;stroke-width:10;stroke-linecap:round;stroke-linejoin:round;stroke-miterlimit:10;}
	.st5{stroke:#1A1A1A;stroke-width:10;stroke-linecap:round;stroke-linejoin:round;stroke-miterlimit:10;}
</style>
<g id="Capa_3">
</g>
<g id="Capa_2">
	<g>
		<g>
			<path class="st1" d="M260.9,85C201.3,85,153,123.2,153,170.4c0,25.5,14.1,48.4,36.5,64.1c3.5,2.4,5.5,6.5,5.2,10.7l-2.3,36.1
				c-0.2,2.5,2.6,4.1,4.7,2.8l47.5-29.2l0,0c5.3,0.6,10.7,1,16.2,1c59.6,0,107.9-38.3,107.9-85.5S320.4,85,260.9,85z"/>
			<g>
				<circle class="st0" cx="211" cy="175.7" r="10.9"/>
				<circle class="st0" cx="260.9" cy="175.7" r="10.9"/>
				<circle class="st0" cx="310.8" cy="175.7" r="10.9"/>
			</g>
			<g>
				<path class="st2" d="M292.8,339H318c0.3,0,0.5,0,0.8,0.1c3.7,0.6,30.9,6.2,34.2,29.7c0.3,2.5-1.7,4.7-4.4,4.7h-55.9
					c-2.4,0-4.4-1.9-4.4-4.2v-26.1C288.4,340.9,290.3,339,292.8,339z"/>
				<path class="st1" d="M303.7,339c7.3-33,7.3-56.4,0-90.3"/>
			</g>
			<g>
				<path class="st2" d="M200.6,339h25.3c0.3,0,0.5,0,0.8,0.1c3.7,0.6,30.9,6.2,34.2,29.7c0.3,2.5-1.7,4.7-4.4,4.7h-55.9
					c-2.4,0-4.4-1.9-4.4-4.2v-26.1C196.2,340.9,198.2,339,200.6,339z"/>
				<path class="st1" d="M211.5,339c5.5-24.6,6.9-43.9,4.2-66.3"/>
			</g>
		</g>
		<path class="st1" d="M415,351.1c-16.3,15.5-29.4,22.7-50.5,22.7H157.3c-21.1,0-34.2-7.2-50.5-22.7"/>
		<g>
			<circle class="st0" cx="167.9" cy="409.3" r="23.5"/>
			<circle class="st0" cx="353.8" cy="409.3" r="23.5"/>
		</g>
		<line class="st1" x1="146.9" y1="235.6" x2="106.8" y2="235.6"/>
		<line class="st1" x1="146.9" y1="104.5" x2="106.8" y2="104.5"/>
		<line class="st1" x1="126.9" y1="170" x2="106.8" y2="170"/>
	</g>
</g>
</svg>
