<svg version="1.1" id="Capa_1" xmlns="http://www.w3.org/2000/svg" x="0" y="0" viewBox="0 0 500 500" xml:space="preserve"><style>.st7{fill:#fff}</style><path d="M250 457.2c-1.1 0-2.2-.2-3.2-.6C151.9 420.5 102 342.8 76.9 284c-30.5-71.4-35.6-137.9-31.5-165.1.7-5 3-20.1 14.6-20.9 66-4.4 122.4-32.7 156.1-49.6 18.7-9.4 27.3-13.5 33.9-13.5 6.6 0 15.2 4.1 33.9 13.5C317.6 65.3 374 93.5 440 98c11.6.8 13.8 15.9 14.6 20.9 4.1 27.2-1 93.6-31.5 165.1-25.1 58.8-75 136.5-169.9 172.6-1 .4-2.1.6-3.2.6zM64.4 115.7c-1.5 4.8-3.3 17.9-1.5 40.4 2.1 27 8.4 57.8 17.8 86.7 14 43.2 33.9 81.2 59.2 113A261.9 261.9 0 00250 438.4a263.1 263.1 0 00110.1-82.6 357.1 357.1 0 0059.2-113 386.7 386.7 0 0017.8-86.7c1.8-22.5 0-35.6-1.5-40.4-68.2-5.3-125.3-34-159.7-51.2A153.8 153.8 0 00250 52.9c-3.4.4-15.3 6.3-25.9 11.6-34.3 17.3-91.5 45.9-159.7 51.2z"/><circle cx="248.5" cy="239.8" r="104.8"/><path className="st7" d="M249.6 290.7c-4.5 0-9-1.6-12.5-4.4l-57.4-45.7a20.2 20.2 0 0112.5-35.9c4.5 0 9 1.6 12.5 4.4L246 242l79.2-103.6a20 20 0 0128.2-3.8 20.2 20.2 0 013.8 28.2l-91.6 119.9a20 20 0 01-13.5 7.7c-.8.2-1.7.3-2.5.3z"/><path d="M341.3 138.5a12.2 12.2 0 019.6 19.5l-91.6 119.9c-2 2.6-4.9 4.3-8.1 4.7l-1.5.1a12 12 0 01-7.5-2.6l-57.4-45.7a12 12 0 017.6-21.6c2.6 0 5.3.9 7.5 2.6l47.7 38 84.1-110.1a12 12 0 019.6-4.8m0-16c-8.8 0-17 4-22.3 11l-74.2 97.1-34.9-27.8a28.2 28.2 0 00-35.1 44l57.4 45.7c5 3.9 11.2 6.1 17.5 6.1l3.4-.2c7.4-.9 14.3-4.9 18.9-10.8l91.6-119.9a28.2 28.2 0 00-22.3-45.2zM401.8 213l-1.8-.1c-6.3-1-10.6-6.9-9.7-13.2 1.6-10.2 3.4-28.2 3.2-56v-1.2a11.6 11.6 0 0123.2 0v1c.2 23.2-1 43.9-3.5 59.7-.9 5.8-5.8 9.8-11.4 9.8z"/><g><path className="st7" d="M220.1 94.2c-4.5 0-8.7-2.6-10.6-7-2.6-5.9.1-12.7 6-15.2a42 42 0 0010.8-5.9c5.1-3.8 12.4-2.7 16.2 2.4s2.7 12.4-2.4 16.2a65.3 65.3 0 01-15.4 8.6c-1.5.6-3 .9-4.6.9z"/></g></svg>