<svg viewBox="0 0 500 500" xmlns="http://www.w3.org/2000/svg"><g fill="#1a1a1a"><path d="m360.76683 185.8558a5 5 0 0 0 0-10h-28.83825q1.02117 4.96949 1.61755 10z"/><path d="m71.54782 175.85531a5 5 0 0 0 0 10h32.84765q.59766-5.02524 1.61768-10z"/><path d="m288.40955 175.85531h-139.80434a70.45757 70.45757 0 0 0 -2.80843 10h145.43032a71.15341 71.15341 0 0 0 -2.81755-10z"/><path d="m71.54782 210.2391a5 5 0 0 0 0 10h33.6914q-.84192-4.9758-1.26489-10z"/><path d="m291.94489 213.438h-146.8544a70.71338 70.71338 0 0 0 2.17012 10h142.51467a71.1856 71.1856 0 0 0 2.16961-10z"/><path d="m360.76683 220.23959a5 5 0 0 0 0-10h-26.7959q-.42187 5.01937-1.26611 10z"/><path d="m72.16629 244.62191a5.00206 5.00206 0 0 0 0 10h44.444q-2.43688-4.91309-4.40427-10z"/><path d="m271.35265 250.9833a73.30426 73.30426 0 0 0 5.69209-6.36139h-117.04335a74.01978 74.01978 0 0 0 6.45161 7.09609c1.04694 1.00812 2.12338 1.96906 3.21506 2.90387h97.701c1.35861-1.16298 2.69547-2.36238 3.98359-3.63857z"/><path d="m360.09105 254.6224a5 5 0 0 0 0-10h-34.219q-2.02716 5.08044-4.53858 10z"/><path d="m217.394 148.51905a3.0002 3.0002 0 0 0 1.70215 5.75391c13.01806-3.85156 30.21484 2.206 38.33105 13.50293a3.00043 3.00043 0 0 0 4.873-3.502c-9.4882-13.20406-29.63275-20.27242-44.9062-15.75484z"/><path d="m424.50626 360.66683-56.62243-55.82257a30.111 30.111 0 0 0 -39.73059-2.18915l-5.25232 5.32489a30.0617 30.0617 0 0 0 2.76013 39.69629l56.62158 55.819a29.86106 29.86106 0 0 0 21.32605 8.65729 30.366 30.366 0 0 0 6.01673-.64148 30.08567 30.08567 0 0 0 14.88085-50.84424z"/></g><ellipse cx="218.51815" cy="201.2461" fill="none" rx="115.90314" ry="113.39946" stroke="#1a1a1a" stroke-miterlimit="10" stroke-width="6"/><ellipse cx="218.51815" cy="201.2461" fill="none" rx="75.48704" ry="73.85641" stroke="#1a1a1a" stroke-miterlimit="10" stroke-width="6"/><path d="m300.37408 282.42305 31.48444 31.48443" fill="none" stroke="#1a1a1a" stroke-miterlimit="10" stroke-width="6"/></svg>