<svg id="Capa_1" data-name="Capa 1" xmlns="http://www.w3.org/2000/svg" viewBox="0 0 1000 1000"><title>icons</title><circle cx="583.01" cy="238.93" r="16.24"/><circle cx="664.98" cy="304.15" r="16.24"/><circle cx="733.24" cy="394.79" r="16.24"/><circle cx="583.01" cy="755.91" r="16.24"/><circle cx="664.98" cy="690.68" r="16.24"/><circle cx="733.24" cy="600.04" r="16.24"/><path d="M770.36,514.62a16.24,16.24,0,0,0,16.24-16.24c0-.32,0-.64,0-1s0-.64,0-1a16.24,16.24,0,1,0-32.49,0c0,.32,0,.64,0,1s0,.64,0,1A16.24,16.24,0,0,0,770.36,514.62Z"/><path d="M616.94,499.78H727.65a42.87,42.87,0,1,0,0-6.64H616.94V448.63h25a3.33,3.33,0,0,0,2.13-.77l48.23-40.37a46.35,46.35,0,1,0-1.55-7.36l-50,41.87H616.94V410.61h0a3.31,3.31,0,0,0,2-.7L648.29,387a3.32,3.32,0,0,0-4.09-5.24l-27.26,21.29v-2a16,16,0,0,0-16-16H506.39V370.65H580.1a3.32,3.32,0,0,0,2-.7L631,331.8a3.22,3.22,0,0,0,.63-.73,43.58,43.58,0,1,0-3.51-5.09,3.3,3.3,0,0,0-1.2.59L579,364H554V337.25l35.59-30.58a3.32,3.32,0,0,0-4.33-5l-36.75,31.57a3.32,3.32,0,0,0-1.16,2.52V364h-41l-.06-68.86h19.84a3.33,3.33,0,0,0,2-.68l28.49-21.79a43.14,43.14,0,1,0-5-4.57L525,288.51H506.3l0-49.56c0-15.3-8-27.7-23.18-35.85-31.92-17.16-86.35-11.15-123.9,13.69-.85.56-1.64,1.16-2.46,1.74-33.37,16.06-60.21,45.84-60.15,90.17a87.69,87.69,0,0,0-44.81,17.63c-46.16,20-64.23,76.91-44.88,125.93l.08.08c-13.82,14.4-20.17,33.11-20.17,51.66s6.35,37.28,20.17,51.69l-.08.08c-24.77,62.74,11.75,138.56,90.11,133l0,.29c-8.56,94,98.93,128.36,154.45,109.9,11.75-1.24,22.59-4.23,31.62-9.09,15.17-8.15,23.18-20.55,23.18-35.85l0-49.57H525l26.66,20.39a42.9,42.9,0,1,0,5-4.57l-28.49-21.79a3.33,3.33,0,0,0-2-.68H506.31l.07-68.86h41v28.28a3.32,3.32,0,0,0,1.16,2.52l36.75,31.57a3.32,3.32,0,0,0,4.33-5L554,655.66V628.91h25l48,37.44a3.24,3.24,0,0,0,1.21.57,42.65,42.65,0,1,0,3.5-5.07,3.22,3.22,0,0,0-.63-.73L582.15,623a3.32,3.32,0,0,0-2-.7H506.38v-10.6H601a16,16,0,0,0,16-16v-5.85l27.26,21.29a3.32,3.32,0,0,0,4.09-5.24L619,583a3.25,3.25,0,0,0-2-.65V550.93h23.78l50,41.87a42.62,42.62,0,1,0,1.55-7.36l-48.23-40.37a3.33,3.33,0,0,0-2.13-.77h-25V499.78Zm153.42-39.55a36.23,36.23,0,1,1-36.23,36.23A36.27,36.27,0,0,1,770.36,460.23ZM733.24,358.56A36.23,36.23,0,1,1,697,394.79,36.27,36.27,0,0,1,733.24,358.56ZM665,267.92a36.23,36.23,0,1,1-36.23,36.23A36.27,36.27,0,0,1,665,267.92ZM583,202.7a36.23,36.23,0,1,1-36.23,36.23A36.27,36.27,0,0,1,583,202.7ZM619.24,754A36.23,36.23,0,1,1,583,717.76,36.27,36.27,0,0,1,619.24,754ZM665,652.53a36.23,36.23,0,1,1-36.23,36.23A36.27,36.27,0,0,1,665,652.53ZM499.61,754c0,16.05-10.7,25.18-19.68,30-29.47,15.84-82,9.84-117.09-13.38-21.62-14.3-46.42-40.83-43.23-86.32a146.45,146.45,0,0,0,28.74-5.9l.14.17c12.45,13.49,30.29,20.9,49.36,20.9a75.55,75.55,0,0,0,12.63-1.07,3.32,3.32,0,0,0-1.12-6.55c-21.42,3.64-42.35-3-56-17.78-13.35-14.47-18-34.51-12.82-55a3.32,3.32,0,0,0-6.44-1.63c-5.11,20.12-1.55,39.91,9.7,55.39-53.73,15.55-84.22-5.87-97.77-20.33-23.07-24.63-30.13-63.59-18.29-98.34,13.1,12,32,20.74,58,22.88H286a3.32,3.32,0,0,0,.27-6.63c-35.4-2.91-76.74-24-76.74-73.93s41.34-71,76.74-73.93a3.32,3.32,0,1,0-.54-6.62c-26,2.14-44.9,10.91-58,22.88C215.92,404,223,365.07,246,340.44c13.55-14.47,44-35.89,97.77-20.33-11.25,15.49-14.81,35.27-9.7,55.39a3.32,3.32,0,0,0,6.44-1.63c-5.2-20.48-.53-40.52,12.82-55,13.63-14.78,34.58-21.43,56-17.78a3.32,3.32,0,0,0,1.12-6.55c-23.66-4-46.82,3.39-62,19.83l-.16.18a146.48,146.48,0,0,0-28.73-5.9c-3.2-45.51,21.61-72,43.23-86.34,35.1-23.22,87.63-29.21,117.09-13.38,9,4.83,19.68,14,19.68,30l.14,146.14H406.34a16,16,0,0,0-16,16V595.69a16,16,0,0,0,16,16h93.41Zm93.7-250.19a2.66,2.66,0,0,1-2,2.42l-11.75,2.74a2.17,2.17,0,0,0-1.66,1.77,75.27,75.27,0,0,1-3.78,14.12,2.18,2.18,0,0,0,.56,2.36l8.75,8.19a2.66,2.66,0,0,1,.56,3.13,90,90,0,0,1-5.41,9.34,2.65,2.65,0,0,1-3,1.07l-11.38-3.46a2.17,2.17,0,0,0-2.33.71,75.37,75.37,0,0,1-10.38,10.38,2.19,2.19,0,0,0-.7,2.32l3.46,11.38a2.66,2.66,0,0,1-1.08,3,90.52,90.52,0,0,1-9.33,5.41,2.66,2.66,0,0,1-3.13-.56l-8.2-8.75a2.19,2.19,0,0,0-2.36-.56A75.13,75.13,0,0,1,516,572.57a2.18,2.18,0,0,0-1.77,1.66L511.48,586a2.66,2.66,0,0,1-2.43,2c-1.84.11-3.62.17-5.4.17s-3.56-.06-5.4-.17a2.66,2.66,0,0,1-2.43-2l-2.74-11.75a2.18,2.18,0,0,0-1.78-1.66,74.74,74.74,0,0,1-14.11-3.78,2.15,2.15,0,0,0-2.36.55l-8.21,8.75a2.66,2.66,0,0,1-3.13.56,90.16,90.16,0,0,1-9.33-5.41,2.66,2.66,0,0,1-1.08-3l3.47-11.38a2.18,2.18,0,0,0-.7-2.32,75.35,75.35,0,0,1-10.39-10.39,2.18,2.18,0,0,0-2.32-.7l-11.39,3.46a2.66,2.66,0,0,1-3-1.07,89.47,89.47,0,0,1-5.41-9.34,2.66,2.66,0,0,1,.56-3.13l8.75-8.19a2.18,2.18,0,0,0,.55-2.36,75.38,75.38,0,0,1-3.77-14.11,2.17,2.17,0,0,0-1.66-1.77L416,506.2a2.66,2.66,0,0,1-2-2.43c-.11-1.83-.17-3.63-.17-5.4s.06-3.57.17-5.4a2.66,2.66,0,0,1,2-2.43l11.75-2.74a2.18,2.18,0,0,0,1.66-1.78,74.65,74.65,0,0,1,3.78-14.11,2.18,2.18,0,0,0-.55-2.37l-8.75-8.2a2.66,2.66,0,0,1-.56-3.13,90.62,90.62,0,0,1,5.41-9.33,2.66,2.66,0,0,1,3-1.08l11.38,3.47a2.18,2.18,0,0,0,2.32-.71,75.47,75.47,0,0,1,10.39-10.38,2.19,2.19,0,0,0,.7-2.33l-3.46-11.38a2.66,2.66,0,0,1,1.07-3,90,90,0,0,1,9.34-5.41,2.65,2.65,0,0,1,3.13.56l8.2,8.75a2.18,2.18,0,0,0,2.36.55,75.29,75.29,0,0,1,14.11-3.78,2.17,2.17,0,0,0,1.78-1.65l2.74-11.75a2.66,2.66,0,0,1,2.42-2,86.29,86.29,0,0,1,10.81,0,2.66,2.66,0,0,1,2.42,2l2.75,11.75a2.17,2.17,0,0,0,1.77,1.65,74.85,74.85,0,0,1,14.11,3.78,2.17,2.17,0,0,0,2.36-.55l8.2-8.75a2.66,2.66,0,0,1,3.13-.56,91.11,91.11,0,0,1,9.33,5.4,2.66,2.66,0,0,1,1.08,3l-3.47,11.38a2.18,2.18,0,0,0,.71,2.32,75.15,75.15,0,0,1,10.38,10.39,2.19,2.19,0,0,0,2.33.7l11.38-3.46a2.66,2.66,0,0,1,3,1.07,89.51,89.51,0,0,1,5.41,9.33,2.66,2.66,0,0,1-.56,3.13l-8.75,8.2a2.18,2.18,0,0,0-.55,2.37A75.36,75.36,0,0,1,577.85,486a2.17,2.17,0,0,0,1.66,1.78l11.75,2.74a2.66,2.66,0,0,1,2,2.43c.11,1.83.17,3.64.17,5.4S593.42,501.95,593.31,503.78Zm139.94,58.11A36.23,36.23,0,1,1,697,598.12,36.27,36.27,0,0,1,733.24,561.89Z"/><path d="M328.9,429.73a3.32,3.32,0,1,0-3.07,5.89c9.42,4.91,16.52,17.4,16.52,29a3.32,3.32,0,0,0,6.64,0C349,450.49,340.54,435.8,328.9,429.73Z"/><path d="M578.3,493a7.46,7.46,0,0,1-5.69-6.09,70,70,0,0,0-3.51-13.1,7.49,7.49,0,0,1,1.89-8.11l7.28-6.82c-1-1.83-2-3.63-3.11-5.37l-9.46,2.88a7.47,7.47,0,0,1-8-2.41,70.13,70.13,0,0,0-9.66-9.66,7.49,7.49,0,0,1-2.41-8l2.89-9.47c-1.76-1.11-3.56-2.15-5.37-3.11L536.35,431a7.45,7.45,0,0,1-8.13,1.89,69.54,69.54,0,0,0-13.09-3.5,7.46,7.46,0,0,1-6.09-5.69l-2.29-9.8c-2.09-.08-4.13-.08-6.21,0l-2.29,9.8a7.46,7.46,0,0,1-6.09,5.69,70,70,0,0,0-13.11,3.51A7.48,7.48,0,0,1,471,431l-6.82-7.28c-1.83,1-3.62,2-5.37,3.11l2.88,9.46a7.5,7.5,0,0,1-2.41,8,70.47,70.47,0,0,0-9.66,9.65,7.47,7.47,0,0,1-8,2.42l-9.47-2.88C431,455.24,430,457,429,458.85l7.28,6.83a7.48,7.48,0,0,1,1.89,8.11,69.47,69.47,0,0,0-3.51,13.1A7.48,7.48,0,0,1,429,493l-9.8,2.29q-.06,1.57-.06,3.11t.06,3.11l9.8,2.29a7.47,7.47,0,0,1,5.69,6.09A69.88,69.88,0,0,0,438.2,523a7.48,7.48,0,0,1-1.9,8.11L429,537.89c1,1.82,2,3.62,3.11,5.37l9.46-2.88a7.48,7.48,0,0,1,8,2.4,70.15,70.15,0,0,0,9.66,9.66,7.49,7.49,0,0,1,2.41,8l-2.88,9.47c1.76,1.11,3.56,2.15,5.36,3.11l6.83-7.29a7.45,7.45,0,0,1,8.12-1.89,69.28,69.28,0,0,0,13.09,3.5,7.47,7.47,0,0,1,6.09,5.7l2.29,9.8c2.09.08,4.13.08,6.21,0L509,573a7.47,7.47,0,0,1,6.08-5.69,69.68,69.68,0,0,0,13.11-3.51,7.46,7.46,0,0,1,8.11,1.9l6.82,7.28q2.72-1.45,5.37-3.11l-2.88-9.47a7.49,7.49,0,0,1,2.41-8,70.07,70.07,0,0,0,9.66-9.66,7.47,7.47,0,0,1,8-2.41l9.46,2.88c1.11-1.76,2.15-3.55,3.11-5.37L571,531.07a7.49,7.49,0,0,1-1.9-8.1,69.84,69.84,0,0,0,3.51-13.12,7.47,7.47,0,0,1,5.69-6.08l9.8-2.29q.06-1.57.06-3.11t-.06-3.11ZM503.65,548.6a50.23,50.23,0,1,1,50.23-50.23A50.29,50.29,0,0,1,503.65,548.6Z"/><path d="M503.65,453.46a44.92,44.92,0,1,0,44.92,44.92A45,45,0,0,0,503.65,453.46Z"/><path d="M401.53,167.08a3.32,3.32,0,0,0,2.67-1.34c18.23-24.55,45.29-39.84,76.19-43.05,29.79-3.1,59.9,5.19,85,23.31l-16.55,13.61a3.32,3.32,0,0,0,1.67,5.86l52.15,7a3.32,3.32,0,0,0,3.46-4.67l-21.74-47.91a3.39,3.39,0,0,0-3.08-1.95,3.33,3.33,0,0,0-3,2l-8.71,20.89c-26.49-19.23-58.36-28-89.88-24.76-32.78,3.4-61.49,19.63-80.84,45.7a3.32,3.32,0,0,0,2.67,5.3Zm172.79-20.32,7.17-17.21L597.61,165,559,159.89,573.36,148A3.32,3.32,0,0,0,574.32,146.76Z"/><path d="M597.06,834.26c-18.23,24.55-45.29,39.84-76.19,43.05-29.8,3.09-59.9-5.2-85-23.31l16.55-13.61a3.32,3.32,0,0,0-1.67-5.86l-52.15-7a3.32,3.32,0,0,0-3.46,4.67l21.74,47.91a3.32,3.32,0,0,0,3,1.95h.05a3.33,3.33,0,0,0,3-2l8.7-20.89a130.93,130.93,0,0,0,76.9,25.42,125.69,125.69,0,0,0,13-.67c32.78-3.4,61.49-19.63,80.84-45.7a3.32,3.32,0,0,0-5.34-4Zm-170.12,19-7.17,17.22L403.65,835l38.65,5.16L427.9,852A3.32,3.32,0,0,0,426.94,853.24Z"/></svg>