<?xml version="1.0" standalone="no"?>
<!DOCTYPE svg PUBLIC "-//W3C//DTD SVG 20010904//EN"
 "http://www.w3.org/TR/2001/REC-SVG-20010904/DTD/svg10.dtd">
<svg version="1.0" xmlns="http://www.w3.org/2000/svg"
 width="1094.000000pt" height="912.000000pt" viewBox="0 0 1094.000000 912.000000"
 preserveAspectRatio="xMidYMid meet">

<g transform="translate(0.000000,912.000000) scale(0.100000,-0.100000)"
fill="#000000" stroke="none">
<path d="M6112 8500 c-8 -21 -23 -36 -49 -47 l-38 -16 34 -10 c24 -8 37 -20
47 -44 8 -18 16 -33 19 -33 3 0 11 15 19 33 10 24 23 36 47 43 l34 10 -40 19
c-23 12 -41 28 -43 40 -7 35 -19 37 -30 5z"/>
<path d="M3929 8425 c-49 -26 -50 -39 -47 -509 l3 -438 28 -24 c27 -23 33 -24
201 -24 221 0 219 1 226 -126 7 -124 14 -123 154 15 l113 111 402 0 402 0 24
25 25 24 0 455 0 454 -31 26 -31 26 -721 0 c-604 -1 -726 -3 -748 -15z m1161
-275 c0 -7 -147 -10 -421 -10 -277 0 -418 3 -414 10 4 6 155 10 421 10 269 0
414 -3 414 -10z m-567 -147 c-51 -2 -135 -2 -185 0 -51 1 -10 3 92 3 102 0
143 -2 93 -3z m370 -140 c-116 -2 -310 -2 -430 0 -120 1 -24 2 212 2 237 0
335 -1 218 -2z m-210 -140 c-78 -2 -208 -2 -290 0 -81 1 -17 3 142 3 160 0
226 -2 148 -3z"/>
<path d="M7217 8368 c8 -97 13 -99 13 -5 0 43 -4 77 -9 77 -6 0 -7 -30 -4 -72z"/>
<path d="M7483 8247 c-37 -52 -46 -67 -39 -67 8 0 79 101 74 105 -3 3 -18 -14
-35 -38z"/>
<path d="M6927 8269 c12 -25 83 -104 83 -93 0 5 -21 32 -46 59 -25 28 -41 43
-37 34z"/>
<path d="M2793 8229 c-8 -19 -23 -34 -42 -42 -17 -6 -31 -14 -31 -17 0 -3 14
-11 31 -17 19 -8 34 -23 42 -42 6 -17 14 -31 17 -31 3 0 11 14 17 31 8 19 23
34 42 42 34 13 41 27 13 27 -23 0 -62 40 -62 63 0 27 -15 20 -27 -14z"/>
<path d="M7113 8195 c-91 -46 -133 -144 -114 -265 13 -77 32 -121 94 -210 l52
-75 5 -110 5 -110 70 0 70 0 5 107 6 106 57 86 c76 112 90 152 91 256 1 70 -3
92 -21 127 -57 106 -203 146 -320 88z m212 -4 c95 -43 139 -144 116 -268 -13
-72 -35 -120 -87 -192 -18 -27 -41 -65 -49 -85 -10 -24 -22 -36 -35 -36 -19 0
-20 7 -20 114 l0 114 26 6 c17 5 24 12 22 24 -4 22 -46 28 -54 8 -8 -21 -44
-21 -44 0 0 11 -8 14 -27 12 -37 -4 -43 -35 -9 -44 l26 -6 0 -114 c0 -95 -3
-114 -15 -114 -8 0 -15 6 -15 14 0 7 -22 48 -50 90 -88 135 -101 170 -101 272
0 106 53 188 138 214 49 15 136 11 178 -9z m-135 -321 c0 -5 -9 -10 -20 -10
-11 0 -20 5 -20 10 0 6 9 10 20 10 11 0 20 -4 20 -10z m100 0 c0 -5 -9 -10
-20 -10 -11 0 -20 5 -20 10 0 6 9 10 20 10 11 0 20 -4 20 -10z m-50 -145 c0
-108 -1 -115 -20 -115 -19 0 -20 7 -20 115 0 108 1 115 20 115 19 0 20 -7 20
-115z m50 -155 c0 -18 -7 -20 -65 -20 -58 0 -65 2 -65 20 0 18 7 20 65 20 58
0 65 -2 65 -20z m0 -50 c0 -19 -5 -21 -62 -18 -50 2 -63 6 -66 21 -3 15 5 17
62 17 60 0 66 -2 66 -20z m-2 -57 c-3 -27 -5 -28 -63 -28 -58 0 -60 1 -63 28
l-3 27 66 0 66 0 -3 -27z"/>
<path d="M8460 8069 c-15 -32 -26 -42 -64 -54 -17 -5 -15 -8 15 -23 20 -10 40
-31 49 -50 l14 -33 16 33 c9 19 30 40 50 50 31 14 33 17 15 23 -39 13 -50 22
-65 54 l-16 32 -14 -32z"/>
<path d="M5827 7616 c-82 -34 -134 -73 -179 -133 -122 -162 -114 -383 20 -525
24 -25 32 -40 26 -50 -5 -8 -94 -117 -198 -241 l-189 -227 -189 0 c-109 0
-197 -4 -208 -10 -11 -6 -22 -26 -26 -46 -6 -32 -9 -35 -33 -29 -35 9 -35 9
-16 45 15 29 15 34 2 48 -14 13 -21 12 -68 -15 l-52 -29 -65 23 c-67 24 -75
23 -86 -13 -5 -17 1 -23 45 -38 l50 -18 -24 -27 c-37 -39 -55 -71 -77 -137
-33 -95 -282 -684 -290 -684 -4 0 -49 66 -101 148 -151 238 -294 453 -338 509
-117 146 -369 262 -568 263 -29 0 -53 4 -53 10 0 5 30 9 67 8 60 -1 69 1 89
26 26 30 52 106 61 183 5 46 10 55 39 72 36 22 36 28 1 99 -9 16 -17 78 -21
154 -3 70 -8 133 -11 140 -3 8 12 20 42 32 135 56 190 193 120 298 -28 41 -61
45 -199 27 -92 -11 -104 -11 -198 11 -130 29 -272 26 -337 -8 -83 -43 -106
-103 -76 -194 l19 -55 -66 -31 c-83 -39 -142 -90 -170 -148 -35 -71 -25 -128
45 -272 53 -111 57 -124 52 -169 -9 -71 23 -103 106 -103 24 0 46 -2 48 -4 3
-3 3 -23 1 -45 l-4 -40 -71 -11 c-118 -20 -308 -79 -366 -113 -107 -64 -231
-230 -345 -460 -64 -132 -148 -333 -181 -437 -9 -30 -60 -145 -111 -255 -93
-199 -124 -292 -124 -380 0 -39 21 -153 35 -187 6 -14 -1 -17 -42 -20 l-48 -3
0 -445 0 -445 369 -3 368 -2 -6 -108 c-3 -59 -17 -620 -32 -1247 -14 -627 -27
-1149 -29 -1160 -3 -16 -56 -46 -216 -125 -240 -118 -253 -129 -246 -214 4
-40 11 -55 36 -78 l31 -28 538 0 c592 0 565 -3 598 62 14 27 15 54 8 192 -4
89 -7 166 -6 171 3 19 132 1573 132 1591 0 9 2 15 5 12 3 -3 62 -365 131 -804
l125 -799 -7 -177 -7 -177 36 -36 35 -35 536 0 c482 0 539 2 562 16 53 35 70
113 35 169 -14 25 -63 53 -234 137 l-215 107 -7 53 c-3 29 -67 701 -142 1493
l-136 1440 -4 515 c-3 283 -3 538 -1 565 l3 50 168 -202 c187 -225 212 -244
312 -244 99 0 185 62 214 154 5 18 61 278 123 580 100 486 115 547 131 547 11
0 34 15 53 34 27 27 34 42 34 74 0 36 -19 72 -38 72 -4 0 -12 11 -18 24 l-11
24 43 -15 44 -15 0 -99 c0 -144 -8 -139 230 -139 l189 0 151 -186 150 -187
-41 -44 c-49 -54 -86 -131 -101 -212 -14 -75 1 -170 40 -249 34 -69 115 -151
181 -181 28 -14 51 -29 51 -35 1 -6 -32 -117 -71 -246 l-73 -235 -115 0 c-110
0 -120 -2 -183 -32 -262 -124 -323 -468 -118 -674 203 -204 549 -144 673 119
30 63 32 74 32 177 0 105 -2 114 -33 178 -40 81 -109 152 -185 192 -32 17 -57
34 -57 39 0 14 142 471 149 477 3 4 31 3 61 -1 272 -37 508 204 462 471 -35
205 -204 349 -409 349 -70 0 -169 -29 -216 -62 -20 -14 -34 -18 -43 -12 -7 5
-74 85 -150 179 l-136 170 33 7 c51 10 59 29 59 139 l0 97 28 6 c15 3 194 35
397 71 204 36 382 68 397 71 23 5 27 1 33 -28 28 -126 145 -245 283 -288 352
-109 658 260 491 591 -99 198 -353 283 -553 185 -144 -70 -236 -220 -236 -381
l0 -64 -52 -10 c-29 -6 -208 -38 -398 -71 -190 -33 -355 -63 -367 -65 -22 -5
-23 -2 -23 50 0 60 -22 95 -60 95 -11 0 -20 2 -20 5 0 3 86 109 191 235 l192
229 27 -19 c89 -63 236 -87 346 -55 154 44 267 171 295 334 30 168 -69 354
-230 433 -58 29 -76 33 -165 36 -89 2 -108 0 -159 -22z m303 -316 c0 -6 -58
-10 -155 -10 -97 0 -155 4 -155 10 0 6 58 10 155 10 97 0 155 -4 155 -10z
m-65 -70 c-4 -6 -57 -10 -126 -10 -73 0 -119 4 -119 10 0 6 49 10 126 10 81 0
123 -4 119 -10z m-97 -67 c-26 -2 -71 -2 -100 0 -29 2 -8 3 47 3 55 0 79 -1
53 -3z m-2534 -181 c4 -94 10 -132 26 -171 23 -53 21 -67 -14 -81 -18 -7 -24
-19 -29 -59 -9 -77 -37 -167 -59 -190 -14 -16 -31 -21 -69 -21 -52 0 -91 15
-147 57 -18 14 -36 23 -39 20 -3 -3 18 -21 46 -39 29 -19 51 -41 51 -50 0 -16
-10 -18 -78 -18 -44 0 -127 -3 -185 -7 l-107 -6 0 24 c0 42 12 69 29 69 53 0
113 73 151 185 25 72 25 75 0 75 -29 0 -70 44 -70 75 0 60 86 98 125 55 18
-20 19 -19 64 86 l46 107 85 2 c48 1 100 9 120 17 27 12 37 12 42 3 4 -7 10
-67 12 -133z m3307 -72 c215 -41 367 -254 330 -462 -42 -239 -272 -392 -500
-334 -78 20 -121 44 -184 105 -61 58 -93 113 -113 193 -46 178 46 377 210 458
93 46 165 57 257 40z m-2046 -510 c3 0 5 -4 5 -9 0 -19 -35 -21 -81 -6 -43 15
-48 19 -39 36 10 18 11 18 61 -1 27 -11 52 -20 54 -20z m124 0 c-28 -50 -49
-69 -102 -95 -23 -11 -43 -27 -45 -35 -3 -10 4 -7 20 8 28 26 79 29 98 7 15
-18 17 -16 -37 -40 -24 -10 -43 -22 -43 -26 0 -5 15 0 33 11 36 22 77 26 95 8
15 -15 15 -60 0 -93 -10 -22 -53 -55 -73 -55 -14 0 -3 42 17 60 12 11 17 20
10 20 -6 0 -18 -10 -26 -22 -8 -13 -67 -277 -131 -588 -64 -311 -121 -582
-127 -602 -14 -49 -61 -104 -109 -128 -54 -28 -142 -27 -194 3 -42 24 -229
237 -217 248 4 3 28 14 55 23 102 38 205 170 223 287 12 76 16 76 84 -6 35
-41 65 -73 68 -70 3 2 -21 35 -53 72 -33 38 -65 75 -72 84 -12 14 5 60 120
335 74 176 140 337 147 359 30 97 71 154 152 216 48 35 89 59 104 59 l25 0
-22 -40z m561 10 c18 -18 20 -33 20 -168 0 -209 22 -192 -254 -192 -196 0
-225 2 -237 17 -9 10 -15 49 -17 107 l-4 91 199 -1 c192 -1 193 0 51 5 -132 5
-149 8 -170 28 -13 12 -36 27 -52 33 -25 9 -28 14 -22 43 11 55 20 57 253 57
200 0 214 -1 233 -20z m-460 -111 c0 -24 -5 -24 -79 4 -55 21 -59 24 -45 39
14 14 21 13 70 -5 39 -14 54 -25 54 -38z m32 -14 c0 -5 -5 -11 -11 -13 -6 -2
-11 4 -11 13 0 9 5 15 11 13 6 -2 11 -8 11 -13z m-2635 -927 c-1 -73 -3 -16
-3 127 0 143 2 203 3 133 2 -70 2 -187 0 -260z m1382 91 c68 -99 121 -182 119
-185 -3 -2 -58 73 -124 168 -138 199 -137 198 -127 198 4 -1 64 -82 132 -181z
m2249 -36 c-42 -2 -114 -2 -160 0 -46 1 -11 3 77 3 88 0 125 -2 83 -3z m-45
-70 c-34 -2 -93 -2 -130 0 -37 2 -9 3 62 3 72 0 102 -1 68 -3z m-3893 -157
c85 -60 163 -115 172 -123 15 -14 13 -21 -29 -91 -25 -43 -65 -111 -90 -153
l-44 -76 31 -82 c16 -45 30 -87 30 -92 0 -5 -85 -9 -204 -9 l-204 0 -11 33
c-34 107 -34 242 2 345 32 89 171 371 181 364 6 -3 81 -55 166 -116z m3890 94
c0 -6 -38 -10 -95 -10 -57 0 -95 4 -95 10 0 6 38 10 95 10 57 0 95 -4 95 -10z
m-3590 -400 l0 -321 -107 3 -107 3 -32 90 -32 90 135 228 c74 125 137 227 139
227 2 0 4 -144 4 -320z m0 -552 c0 -123 -3 -321 -7 -441 l-6 -217 -361 2 -361
3 -3 425 c-1 234 0 431 3 438 3 9 87 12 370 12 l365 0 0 -222z m3322 95 c92
-43 151 -100 195 -190 102 -206 14 -453 -195 -551 -51 -24 -69 -27 -167 -27
-99 0 -116 3 -168 27 -80 38 -160 117 -200 197 -30 62 -32 72 -32 176 0 100 3
115 27 165 79 160 215 243 388 237 71 -2 97 -8 152 -34z m-1812 -313 l0 -50
-750 0 -750 0 0 50 0 50 750 0 750 0 0 -50z m-156 -92 c3 -18 69 -649 146
-1403 146 -1426 150 -1459 157 -1452 3 4 -277 2758 -291 2855 l-5 32 75 0 c51
0 76 -4 79 -12 2 -7 63 -647 134 -1423 72 -775 134 -1425 137 -1442 l5 -33
-360 0 -359 0 -6 28 c-7 30 -255 1623 -338 2164 -29 192 -56 348 -60 348 -3 0
-4 -8 -2 -17 2 -10 19 -123 39 -250 l35 -233 -95 -952 c-52 -524 -97 -971 -99
-993 -4 -28 -3 -34 4 -20 5 11 50 442 101 957 51 516 95 936 97 934 2 -3 14
-71 27 -153 l23 -148 -69 -825 c-38 -454 -69 -828 -69 -832 0 -5 -162 -8 -360
-8 l-360 0 0 93 c0 68 68 2800 70 2815 0 1 301 2 670 2 l669 0 5 -32z"/>
<path d="M3294 6974 c-19 -15 -19 -16 1 -8 11 5 39 8 62 8 23 0 39 4 37 8 -9
14 -80 8 -100 -8z"/>
<path d="M3324 6895 c-4 -9 -2 -21 4 -27 15 -15 44 -1 40 19 -4 23 -36 29 -44
8z"/>
<path d="M2995 6870 c-4 -6 -4 -14 -1 -17 3 -4 6 -1 6 5 0 7 7 12 16 12 13 0
15 -7 10 -32 -5 -24 -3 -29 5 -21 15 15 7 57 -13 61 -9 2 -19 -2 -23 -8z"/>
<path d="M3250 6637 c0 -41 19 -60 57 -55 22 2 29 9 31 29 2 21 -2 29 -25 37
-15 5 -36 13 -45 17 -15 6 -18 2 -18 -28z m50 -22 c7 -9 10 -19 6 -22 -8 -9
-38 9 -44 25 -5 17 23 15 38 -3z"/>
<path d="M6588 6573 c46 -2 118 -2 160 0 42 1 5 3 -83 3 -88 0 -123 -2 -77 -3z"/>
<path d="M6578 6503 c34 -2 90 -2 125 0 34 2 6 3 -63 3 -69 0 -97 -1 -62 -3z"/>
<path d="M6520 6440 c0 -6 37 -10 90 -10 53 0 90 4 90 10 0 6 -37 10 -90 10
-53 0 -90 -4 -90 -10z"/>
<path d="M5063 6193 c43 -2 110 -2 150 0 40 1 5 3 -78 3 -82 0 -115 -2 -72 -3z"/>
<path d="M1834 4110 c0 -118 2 -167 3 -107 2 59 2 155 0 215 -1 59 -3 10 -3
-108z"/>
<path d="M1944 4110 c0 -118 2 -167 3 -107 2 59 2 155 0 215 -1 59 -3 10 -3
-108z"/>
<path d="M2167 4313 c-11 -11 -8 -401 3 -408 7 -4 10 67 10 204 0 116 -1 211
-3 211 -2 0 -7 -3 -10 -7z"/>
<path d="M2284 4035 c0 -77 2 -107 3 -67 2 40 2 103 0 140 -2 37 -3 4 -3 -73z"/>
<path d="M2050 4030 c0 -80 4 -130 10 -130 6 0 10 50 10 130 0 80 -4 130 -10
130 -6 0 -10 -50 -10 -130z"/>
<path d="M5388 4123 c46 -2 118 -2 160 0 42 1 5 3 -83 3 -88 0 -123 -2 -77 -3z"/>
<path d="M5373 4053 c37 -2 96 -2 130 0 34 2 4 3 -68 3 -71 0 -99 -1 -62 -3z"/>
<path d="M5358 3983 c29 -2 74 -2 100 0 26 2 2 3 -53 3 -55 0 -76 -1 -47 -3z"/>
<path d="M7930 7459 c-118 -20 -203 -84 -238 -181 -11 -32 -23 -49 -38 -52
-34 -9 -81 -70 -99 -128 -27 -86 -30 -237 -10 -483 15 -185 16 -239 6 -307
-19 -139 -24 -149 -90 -186 -160 -92 -216 -173 -362 -522 -193 -462 -387 -947
-394 -988 -12 -72 19 -129 227 -424 l196 -277 -5 -188 c-7 -219 0 -253 53
-285 19 -11 34 -26 34 -33 0 -18 -429 -2467 -432 -2470 -2 -1 -72 -42 -156
-91 -167 -97 -189 -119 -178 -180 4 -18 18 -42 33 -54 25 -20 37 -20 545 -20
376 0 525 3 541 12 44 23 47 36 46 188 l0 145 200 905 c110 498 200 903 201
900 7 -29 100 -1842 100 -1950 0 -152 3 -165 47 -188 16 -9 165 -12 541 -12
508 0 520 0 545 20 15 12 29 36 33 54 11 61 -11 84 -177 180 -85 49 -155 90
-157 91 -6 5 -52 3239 -52 3646 l0 417 54 86 c117 186 193 381 203 516 15 203
-99 387 -302 492 -49 25 -110 52 -134 59 -26 8 -47 21 -52 33 -15 37 -48 305
-64 531 -18 247 -27 318 -55 423 -40 148 -109 244 -204 288 -83 38 -278 54
-406 33z m-191 -353 c110 -142 280 -255 447 -297 43 -11 83 -40 84 -61 0 -5
-41 -8 -91 -8 -83 0 -94 2 -121 25 -44 37 -107 35 -145 -5 -36 -39 -57 -40
-49 -2 l6 27 -15 -27 c-20 -36 -39 -35 -77 2 -24 24 -38 30 -73 30 -54 0 -57
6 -58 149 0 104 22 221 42 221 5 0 27 -24 50 -54z m28 -350 c61 -53 21 -156
-61 -156 -49 0 -60 19 -54 94 3 35 9 69 12 75 13 20 73 12 103 -13z m284 -5
c20 -20 29 -39 29 -61 0 -22 -9 -41 -29 -61 -74 -74 -194 8 -147 100 31 60 99
70 147 22z m384 -6 c29 -28 31 -45 10 -85 -19 -37 -48 -53 -83 -46 -25 6 -30
1 -60 -54 -43 -78 -147 -189 -209 -222 -30 -16 -72 -28 -114 -32 -63 -6 -69
-5 -163 40 -95 45 -99 48 -122 98 -13 29 -27 74 -30 99 l-7 47 47 0 c37 0 52
5 72 25 l26 26 20 -26 c11 -14 23 -24 26 -20 3 3 -2 11 -10 18 -19 15 -35 107
-18 107 7 0 9 -9 5 -22 l-7 -23 17 23 c22 30 45 28 45 -4 0 -32 16 -64 44 -86
23 -20 87 -24 117 -8 27 15 52 68 47 101 l-5 29 100 0 c78 0 104 -4 118 -16
16 -15 19 -14 33 14 25 49 64 55 101 17z m-677 -386 c43 -17 100 -44 128 -60
28 -16 58 -29 67 -29 8 0 29 -11 45 -25 17 -14 33 -25 37 -25 16 0 -27 39 -56
51 -34 14 -23 29 23 29 62 0 114 -84 139 -226 22 -125 375 -1049 379 -991 0 4
-16 39 -36 79 -32 63 -34 72 -21 86 14 13 25 9 102 -43 96 -64 222 -183 231
-219 12 -48 -163 -303 -253 -369 -68 -49 -112 -61 -173 -48 -101 22 -163 63
-220 146 -46 67 -68 134 -121 368 -72 319 -188 798 -201 830 -6 15 -20 33 -32
39 l-21 11 21 -24 c12 -13 25 -34 29 -46 6 -21 3 -23 -30 -23 -42 0 -90 22
-99 45 -3 9 -6 35 -6 57 0 32 7 47 35 75 33 33 39 35 86 31 32 -3 47 -2 41 4
-11 11 -86 6 -114 -6 -16 -7 -18 -2 -18 34 0 35 6 48 35 77 32 32 39 35 80 31
25 -3 42 -2 39 3 -3 5 -21 9 -40 9 -46 0 -109 32 -161 83 -82 79 -46 99 85 46z
m512 -115 c0 -65 -1 -68 -44 -110 -24 -24 -50 -44 -57 -44 -9 0 -24 31 -39 80
l-25 79 46 11 c25 6 59 20 75 30 16 10 32 19 37 19 4 1 7 -29 7 -65z m230 -40
c63 -13 118 -24 123 -24 4 0 7 -4 7 -9 0 -4 -46 2 -102 15 -57 13 -129 26
-160 30 -32 4 -58 10 -58 15 0 10 41 4 190 -27z m-800 2 c0 -4 -157 -56 -168
-56 -15 1 36 25 88 41 55 18 80 23 80 15z m901 -760 c-61 -91 -114 -166 -117
-166 -7 0 -6 1 124 198 53 78 97 140 99 138 3 -2 -45 -79 -106 -170z m-1173
97 c-9 -10 -28 -43 -44 -73 -48 -95 -44 -244 12 -442 3 -10 2 -18 -3 -18 -8 0
-49 178 -59 261 -7 54 11 149 38 204 28 54 59 97 66 91 3 -3 -2 -14 -10 -23z
m-263 -450 c118 -59 215 -112 214 -118 0 -5 -37 -93 -82 -195 l-82 -185 -90
-6 -90 -5 91 -2 91 -2 72 -162 73 -162 -43 -246 c-23 -135 -47 -251 -52 -257
-15 -21 -55 -15 -68 9 -18 33 2 182 37 272 5 13 4 17 -3 13 -16 -10 -53 -175
-53 -236 0 -62 25 -95 66 -85 22 6 24 4 20 -17 -3 -13 -13 -64 -21 -114 -9
-49 -19 -105 -22 -123 -7 -41 -36 -41 -67 1 -20 27 -21 41 -21 240 l0 212
-188 265 c-104 146 -198 282 -208 303 -40 77 -32 113 92 424 62 156 114 283
116 283 1 0 100 -48 218 -107z m213 -747 l-13 -69 -68 149 c-37 82 -67 155
-67 161 0 7 35 93 78 190 l77 178 3 -270 c1 -185 -2 -292 -10 -339z m1496 82
c3 -7 14 -717 25 -1578 11 -861 23 -1640 27 -1732 l6 -168 -84 0 -84 0 -58
1638 c-32 900 -60 1639 -62 1641 -7 8 -4 -97 51 -1643 30 -846 55 -1560 55
-1587 l0 -49 -314 0 -315 0 -5 53 c-3 28 -19 322 -36 652 -40 775 -76 1455
-95 1772 -8 139 -15 265 -15 280 0 14 -3 24 -6 20 -4 -3 -1 -111 6 -239 l12
-233 -277 -1135 c-151 -624 -278 -1143 -281 -1152 -5 -17 -29 -18 -315 -18
-281 0 -309 2 -309 17 0 19 598 3442 605 3461 3 9 160 12 735 12 576 0 731 -3
734 -12z m-875 -1443 l10 -180 -202 -925 -203 -925 -87 -3 c-67 -2 -86 0 -82
10 2 7 124 508 270 1113 147 605 269 1109 273 1120 8 25 8 27 21 -210z"/>
<path d="M7691 6829 c-35 -14 -20 -21 16 -7 24 9 38 9 57 0 14 -6 26 -8 26 -3
0 21 -58 27 -99 10z"/>
<path d="M7971 6821 c-10 -6 -1 -8 26 -4 22 3 51 0 64 -6 23 -12 23 -11 5 3
-22 18 -73 21 -95 7z"/>
<path d="M7703 6734 c-8 -22 18 -37 36 -20 7 8 10 19 7 25 -10 16 -36 13 -43
-5z"/>
<path d="M7990 6720 c0 -13 7 -20 20 -20 13 0 20 7 20 20 0 13 -7 20 -20 20
-13 0 -20 -7 -20 -20z"/>
<path d="M8368 6705 c-9 -19 -9 -28 0 -37 9 -9 12 -6 12 15 0 19 7 30 23 37
l22 9 -23 0 c-15 1 -26 -8 -34 -24z"/>
<path d="M7848 6493 c-22 -5 -22 -7 -3 -43 21 -40 73 -57 115 -35 27 14 50 48
50 76 0 9 -129 11 -162 2z m126 -54 c-18 -20 -54 -26 -54 -10 0 16 41 40 57
34 12 -5 11 -9 -3 -24z"/>
<path d="M7783 4273 c180 -2 474 -2 655 0 180 1 32 2 -328 2 -360 0 -508 -1
-327 -2z"/>
<path d="M1459 6421 c-8 -23 -22 -38 -48 -48 -36 -16 -36 -16 -11 -25 35 -13
60 -38 60 -60 0 -28 17 -21 29 12 7 20 21 34 41 41 33 12 40 29 12 29 -22 0
-47 25 -61 60 l-9 25 -13 -34z"/>
<path d="M9452 6106 c-9 -23 -22 -38 -42 -45 -38 -13 -38 -19 -1 -32 20 -7 34
-22 44 -47 l15 -37 16 38 c11 27 25 41 48 49 l33 12 -33 13 c-22 9 -38 25 -48
48 -8 19 -16 35 -17 35 -2 0 -9 -15 -15 -34z"/>
</g>
</svg>
