<svg id="Capa_1" data-name="Capa 1" xmlns="http://www.w3.org/2000/svg" viewBox="0 0 1000 1000"><title>icons</title><path d="M805.15,376.89H596V172.27a3.11,3.11,0,0,0-3.11-3.11H174.51a3.11,3.11,0,0,0-3.11,3.11V593.69a3.11,3.11,0,0,0,3.11,3.11h209.1V801.41a3.11,3.11,0,0,0,3.11,3.11H805.15a3.11,3.11,0,0,0,3.11-3.11V380A3.11,3.11,0,0,0,805.15,376.89ZM802,486.55H389.83V383.1H802ZM275.2,379.88H177.88c-.09,0-.17,0-.26.05V279.36c.09,0,.17.05.26.05H275.2ZM177.62,386c.09,0,.17.05.26.05H275.2V486.55H177.88c-.09,0-.17,0-.26.05ZM281.41,279.41H589.83v55.86H340.54V590.58H281.41Zm308.42-6.22H281.41V175.38H589.83ZM275.2,175.38V273.2H177.88c-.09,0-.17,0-.26.05V175.38ZM177.62,492.72c.09,0,.17.05.26.05H275.2v97.82H177.62ZM389.83,798.31V492.77H802V798.31Z"/><path d="M205.45,257.86a3.11,3.11,0,0,0,3.41-.63L227.45,239l25.84-3.45a3.11,3.11,0,0,0,1.45-5.57l-45-33.63a3.11,3.11,0,0,0-5,2.43l-1.16,56.21A3.11,3.11,0,0,0,205.45,257.86Z"/><path d="M199.64,364l3.72,3.06a3.11,3.11,0,0,0,3.59.26L246.88,343a3.11,3.11,0,0,0,1.49-2.55l.3-8.47a3.09,3.09,0,0,0,1.69.54h.3a3.1,3.1,0,0,0,2.1-1.12l10.1-12.28a3.11,3.11,0,0,0-.42-4.38l-26.59-21.88a3.11,3.11,0,0,0-4.37.42l-10.1,12.27a3,3,0,0,0,.22,4.12l-8.26,1.92a3.1,3.1,0,0,0-2.21,2L195,357.44a3.11,3.11,0,0,0,.94,3.47Zm34.65-64.32,21.79,17.93-6.15,7.48-21.79-17.93ZM216.35,317.3l11.18-2.6,15.08,12.41-.4,11.48-35.33,21.47L222,341.63a3.11,3.11,0,1,0-4.8-4L202.09,356.1Z"/><path d="M200.16,469.8A14.62,14.62,0,0,0,219,447.64a3.09,3.09,0,0,0,.48-.54L226.41,437l6.93,10.12a3.1,3.1,0,0,0,.48.54,14.62,14.62,0,0,0,7.89,24.47,14.84,14.84,0,0,0,2.72.25,14.62,14.62,0,1,0-5.67-28.11,3,3,0,0,0-.28-.66l-8.29-12.11,16.64-24.3a3.11,3.11,0,0,0-5.13-3.51L226.41,426l-15.28-22.31a3.11,3.11,0,0,0-5.13,3.51l16.64,24.3-8.3,12.11a3,3,0,0,0-.28.66,14.62,14.62,0,0,0-13.91,25.55Zm44.22-20.46a8.4,8.4,0,1,1-4.74,1.47A8.41,8.41,0,0,1,244.38,449.34ZM201.49,453a8.41,8.41,0,1,1,2.18,11.68A8.41,8.41,0,0,1,201.49,453Z"/><path d="M244.41,515.12a24.81,24.81,0,0,0-33,36.92l-11.46,14.55a3.11,3.11,0,0,0,4.89,3.85l11.46-14.55A24.56,24.56,0,0,0,229,559.45a25.15,25.15,0,0,0,3-.18,24.82,24.82,0,0,0,12.43-44.16Zm-.74,31a18.61,18.61,0,1,1-16.82-30,19,19,0,0,1,2.23-.13,18.61,18.61,0,0,1,14.59,30.13Z"/><path d="M383.73,250.68H551.2a3.11,3.11,0,0,0,3.11-3.11v-46.4a3.11,3.11,0,0,0-3.11-3.11H383.73a3.11,3.11,0,0,0-3.11,3.11v46.4A3.11,3.11,0,0,0,383.73,250.68Zm3.11-46.4H548.1v40.18H386.83Z"/><path d="M634.68,197.4A108.89,108.89,0,0,1,743.45,306.17a3.1,3.1,0,0,0,.9,2.19l-20.91-5.2a3.11,3.11,0,0,0-3.47,4.52l23.87,43.06a3.11,3.11,0,0,0,5.44,0l23.86-43.06a3.11,3.11,0,0,0-3.47-4.52l-20.91,5.2a3.1,3.1,0,0,0,.9-2.19,115.11,115.11,0,0,0-115-115,3.11,3.11,0,1,0,0,6.22Z"/><path d="M345.4,746.95l-43.06-23.86a3.11,3.11,0,0,0-4.52,3.47l5.2,20.91a3.1,3.1,0,0,0-2.19-.9A108.89,108.89,0,0,1,192.08,637.79a3.11,3.11,0,0,0-6.22,0,115.11,115.11,0,0,0,115,115,3.09,3.09,0,0,0,2.19-.9l-5.2,20.91a3.11,3.11,0,0,0,4.52,3.47l43.06-23.86a3.11,3.11,0,0,0,0-5.44Z"/><path d="M647.47,433.85a3.19,3.19,0,0,0,.15.39,3.06,3.06,0,0,0,.31.74l0,0a3.07,3.07,0,0,0,.73.73s0,.06.08.08l28.2,19.3a3.11,3.11,0,0,0,3.51-5.13L656,433.26l24.45-16.73A3.11,3.11,0,0,0,677,411.4l-28.2,19.3a20.63,20.63,0,0,1-.81.81l0,0a3,3,0,0,0-.31.73,3.24,3.24,0,0,0-.15.39,41.39,41.39,0,0,0,0,1.19Z"/><path d="M736.74,454.31a3.11,3.11,0,0,0,4.32.81l28.2-19.3s0-.06.08-.08a3.06,3.06,0,0,0,.73-.73l0,0a3.06,3.06,0,0,0,.31-.74,3.19,3.19,0,0,0,.15-.39,41.39,41.39,0,0,0,0-1.19,3.24,3.24,0,0,0-.15-.39,3,3,0,0,0-.31-.73l0,0a2.92,2.92,0,0,0-.39-.38,3,3,0,0,0-.42-.43l-28.2-19.3a3.11,3.11,0,0,0-3.51,5.13L762,433.26,737.54,450A3.11,3.11,0,0,0,736.74,454.31Z"/><path d="M691.3,468.73a3.1,3.1,0,0,0,4.13-1.49l30.07-63.82a3.11,3.11,0,0,0-5.62-2.65l-30.07,63.82A3.11,3.11,0,0,0,691.3,468.73Z"/><path d="M758.86,580.94h-331a3.11,3.11,0,0,0-3.11,3.11v90.54a3.11,3.11,0,0,0,3.11,3.11h331a3.11,3.11,0,0,0,3.11-3.11V584A3.11,3.11,0,0,0,758.86,580.94Zm-20.62,75.61a3.11,3.11,0,0,1-4.89,3.85L721.9,645.85a24.56,24.56,0,0,1-12.73,3.57,25.41,25.41,0,0,1-3-.18,24.87,24.87,0,1,1,20.6-7.24ZM431,587.15H663.73v84.32H431Z"/><path d="M453.85,601.59a3.11,3.11,0,0,0-3.11,3.11v46a3.11,3.11,0,0,0,6.22,0v-46A3.11,3.11,0,0,0,453.85,601.59Z"/><path d="M711.31,606.1a19,19,0,0,0-2.24-.13,18.64,18.64,0,1,0,2.24.13Z"/><path d="M860.54,273.2H842.31V250.06a3.11,3.11,0,0,0-6.22,0V273.2H817.86a3.11,3.11,0,1,0,0,6.22h18.23v23.14a3.11,3.11,0,0,0,6.22,0V279.41h18.23a3.11,3.11,0,1,0,0-6.22Z"/><path d="M181,732.37a3.11,3.11,0,0,0,0-6.22H163.33V705.64a3.11,3.11,0,1,0-6.22,0v20.51H139.46a3.11,3.11,0,1,0,0,6.22h17.65v20.51a3.11,3.11,0,0,0,6.22,0V732.37Z"/><path d="M795.38,185.58A15.59,15.59,0,1,0,811,201.17,15.61,15.61,0,0,0,795.38,185.58Zm0,25a9.37,9.37,0,1,1,9.37-9.37A9.38,9.38,0,0,1,795.38,210.55Z"/><path d="M181,798a16.42,16.42,0,1,0,16.42,16.42A16.44,16.44,0,0,0,181,798Zm0,26.62a10.2,10.2,0,1,1,10.21-10.2A10.21,10.21,0,0,1,181,824.62Z"/><path d="M250.77,770.42a9.38,9.38,0,1,0,9.39,9.39A9.4,9.4,0,0,0,250.77,770.42Zm0,12.55a3.17,3.17,0,1,1,3.17-3.17A3.17,3.17,0,0,1,250.77,783Z"/></svg>