<svg width="518" height="375" viewBox="0 0 518 375" fill="none" xmlns="http://www.w3.org/2000/svg">
<path fill-rule="evenodd" clip-rule="evenodd" d="M154.308 200.272C152.657 195.66 150.274 187.83 148.931 182.683C147.18 183.682 144.669 184.322 141.051 184.005C135.388 183.51 124.696 189.773 122.802 197.606C122.085 200.572 121.168 205.741 121.168 205.741L121.112 205.696C131.336 213.884 143.249 223.525 152.318 231.163C156.838 222.996 159.524 213.681 159.809 203.773L159.321 203.766C157.075 203.785 155.065 202.387 154.308 200.272Z" fill="#1B1A19"/>
<path fill-rule="evenodd" clip-rule="evenodd" d="M154.824 156.642L159.199 162.989L164.542 153.182L165.382 153.55C166.385 153.99 167.271 154.587 168.052 155.114C169.691 156.221 170.434 156.628 171.191 156.185C171.901 155.771 173.433 152.041 174.095 147.737C174.571 144.642 174.216 143.438 174.054 143.26C172.655 141.72 168.807 141.328 167.712 142.302C166.537 143.345 158.452 152.504 154.824 156.642ZM159.4 166.803L152.294 156.495L152.806 155.91C153.296 155.351 164.804 142.21 166.383 140.807C168.36 139.047 173.491 139.669 175.534 141.914C176.374 142.838 176.554 144.9 176.072 148.04C175.574 151.274 174.084 156.814 172.199 157.913C170.279 159.032 168.578 157.882 166.933 156.772C166.436 156.436 165.928 156.093 165.397 155.793L159.4 166.803Z" fill="#1B1A19"/>
<path fill-rule="evenodd" clip-rule="evenodd" d="M172.95 143.958C170.74 143.776 167.877 142.641 167.233 144.603C166.588 146.565 166.224 148.975 167.541 150.152C168.858 151.329 172.81 151.946 174.772 151.974C176.734 152.001 178.892 150.741 179.2 149.619C179.508 148.498 179.34 145.387 178.555 144.939C177.771 144.491 173.434 143.998 172.95 143.958Z" fill="#1B1A19"/>
<path fill-rule="evenodd" clip-rule="evenodd" d="M5.448 203.562V201.562H55.996C56.795 201.557 57.626 200.913 58.271 199.796C59.816 197.12 59.817 192.616 58.272 189.958C57.624 188.842 56.822 188.228 56.012 188.228C56.009 188.228 56.006 188.228 56.003 188.228H5.448V186.228H55.997C56.004 186.228 56.012 186.228 56.019 186.228C57.564 186.228 58.98 187.195 60.002 188.953C61.926 192.264 61.927 197.466 60.003 200.796C58.979 202.571 57.558 203.552 56.002 203.562H5.448Z" fill="#1B1A19"/>
<path fill-rule="evenodd" clip-rule="evenodd" d="M5.463 188.227C5.462 188.227 5.461 188.227 5.461 188.227C4.654 188.229 3.821 188.871 3.175 189.991C1.629 192.668 1.628 197.175 3.172 199.831C3.82 200.948 4.622 201.561 5.432 201.561C5.433 201.561 5.433 201.561 5.434 201.561C6.241 201.56 7.075 200.917 7.722 199.796C9.267 197.12 9.268 192.616 7.723 189.958C7.075 188.842 6.272 188.227 5.463 188.227ZM5.432 203.561C3.88 203.561 2.464 202.594 1.443 200.836C-0.481 197.527 -0.481 192.324 1.443 188.991C2.47 187.211 3.896 186.23 5.458 186.227C5.46 186.227 5.461 186.227 5.463 186.227C7.014 186.227 8.431 187.195 9.453 188.952C11.377 192.264 11.378 197.466 9.455 200.796C8.427 202.577 7 203.559 5.437 203.561C5.435 203.561 5.433 203.561 5.432 203.561Z" fill="#1B1A19"/>
<path fill-rule="evenodd" clip-rule="evenodd" d="M84.039 115.385H106.426V100.088L84.039 115.385ZM108.426 117.385H77.567L108.426 96.299V117.385Z" fill="#1B1A19"/>
<path fill-rule="evenodd" clip-rule="evenodd" d="M138.313 308.525V348.887L197.382 308.525H138.313ZM136.313 352.676V306.525H203.854L136.313 352.676Z" fill="#1B1A19"/>
<path fill-rule="evenodd" clip-rule="evenodd" d="M130.032 323.249H120.597V272.495H122.597V321.249H130.032V323.249Z" fill="#1B1A19"/>
<path fill-rule="evenodd" clip-rule="evenodd" d="M193.404 323.249H395.615V321.249H193.404V323.249Z" fill="#1B1A19"/>
<path fill-rule="evenodd" clip-rule="evenodd" d="M487.231 323.249H411.082V321.249H485.231V140.233H487.231V323.249Z" fill="#1B1A19"/>
<path fill-rule="evenodd" clip-rule="evenodd" d="M487.231 127.688H485.231V54.164H379.32V52.164H487.231V127.688Z" fill="#1B1A19"/>
<path fill-rule="evenodd" clip-rule="evenodd" d="M122.597 133.467H120.597V52.164H293.648V54.164H122.597V133.467Z" fill="#1B1A19"/>
<path fill-rule="evenodd" clip-rule="evenodd" d="M195.828 241.252H341.242V134.467H195.828V241.252ZM193.828 243.252H343.242V132.467H193.828V243.252Z" fill="#1B1A19"/>
<path fill-rule="evenodd" clip-rule="evenodd" d="M297.166 66.109H378.32V2H297.166V66.109ZM295.166 68.109H380.32V0H295.166V68.109Z" fill="#1B1A19"/>
<path fill-rule="evenodd" clip-rule="evenodd" d="M347.944 34.055C347.944 39.688 343.376 44.255 337.743 44.255C332.11 44.255 327.542 39.688 327.542 34.055C327.542 28.421 332.11 23.854 337.743 23.854C343.376 23.854 347.944 28.421 347.944 34.055Z" fill="#1B1A19"/>
<path fill-rule="evenodd" clip-rule="evenodd" d="M137.313 307.525V350.782L169.987 328.454L137.313 307.525Z" fill="#1B1A19"/>
<path fill-rule="evenodd" clip-rule="evenodd" d="M194.089 134.141L120.858 53.838L122.336 52.491L195.567 132.793L194.089 134.141Z" fill="#1B1A19"/>
<path fill-rule="evenodd" clip-rule="evenodd" d="M342.73 134.34L341.755 132.594L485.743 52.291L486.718 54.037L342.73 134.34Z" fill="#1B1A19"/>
<path fill-rule="evenodd" clip-rule="evenodd" d="M516.749 98.953L388.96 166.416L388.794 150.941L516.749 83.396V98.953Z" fill="#1B1A19"/>
<path fill-rule="evenodd" clip-rule="evenodd" d="M257.689 96.412C232.869 96.412 217.629 101.095 217.629 104.451C217.629 107.808 232.869 112.49 257.689 112.49C282.509 112.49 297.749 107.808 297.749 104.451C297.749 101.095 282.509 96.412 257.689 96.412ZM257.689 114.49C237.299 114.49 215.629 110.971 215.629 104.451C215.629 97.931 237.299 94.412 257.689 94.412C278.078 94.412 299.749 97.931 299.749 104.451C299.749 110.971 278.078 114.49 257.689 114.49Z" fill="#1B1A19"/>
<path fill-rule="evenodd" clip-rule="evenodd" d="M440.047 268.526L471.376 270.43C468.183 266.902 461.672 259.165 461.256 254.336C461.1 252.521 461.172 249.054 461.256 245.039C461.434 236.575 461.732 222.406 459.419 219.646C456.884 216.618 445.951 212.838 440.169 212.461C438.292 212.337 437.812 212.646 437.757 212.687C430.639 223.019 427.739 231.268 427.744 241.155C427.747 246.391 427.75 251.336 429.654 252.875C430.385 253.468 431.487 253.596 433.009 253.273C435.687 252.701 437.071 251.813 438.182 251.098C439.613 250.179 440.847 249.385 443.386 250.431C443.816 250.609 444.396 251.003 444.722 251.876C446.015 255.333 441.796 264.841 440.047 268.526ZM476.338 272.736L436.923 270.339L437.6 268.986C440.118 263.949 443.77 255.038 442.849 252.576C442.759 252.336 442.663 252.297 442.622 252.281C441.051 251.63 440.563 251.945 439.263 252.781C438.08 253.541 436.461 254.581 433.426 255.229C431.276 255.689 429.627 255.427 428.396 254.43C425.75 252.291 425.747 247.131 425.744 241.157C425.738 230.822 428.744 222.241 436.121 211.536C436.583 210.866 437.48 210.509 438.864 210.444C444.029 210.192 457.56 214.309 460.952 218.362C463.536 221.447 463.525 232.287 463.256 245.081C463.173 249.038 463.101 252.456 463.248 254.164C463.647 258.789 471.529 267.801 474.531 270.882L476.338 272.736Z" fill="#1B1A19"/>
<path fill-rule="evenodd" clip-rule="evenodd" d="M350.373 231.328L344.659 238.243L347.445 240.544L353.158 233.63L350.373 231.328Z" fill="#1B1A19"/>
<path fill-rule="evenodd" clip-rule="evenodd" d="M295.803 101.09C289.742 104.416 274.967 106.767 257.689 106.767C240.41 106.767 225.635 104.416 219.574 101.09C217.681 102.129 216.629 103.263 216.629 104.451C216.629 109.443 235.012 113.49 257.689 113.49C280.365 113.49 298.749 109.443 298.749 104.451C298.749 103.263 297.697 102.129 295.803 101.09Z" fill="#1B1A19"/>
<path fill-rule="evenodd" clip-rule="evenodd" d="M80.803 313.761C69.821 313.761 60.886 322.697 60.886 333.679C60.886 344.661 69.821 353.596 80.803 353.596C91.785 353.596 100.72 344.661 100.72 333.679C100.72 322.697 91.785 313.761 80.803 313.761ZM80.803 355.596C68.718 355.596 58.886 345.764 58.886 333.679C58.886 321.593 68.718 311.761 80.803 311.761C92.888 311.761 102.72 321.593 102.72 333.679C102.72 345.764 92.888 355.596 80.803 355.596Z" fill="#1B1A19"/>
<path fill-rule="evenodd" clip-rule="evenodd" d="M80.322 324.171C76.555 324.415 73.604 327.694 73.604 331.635V337.779C73.604 338.206 73.952 338.554 74.38 338.554C75.216 338.554 75.809 339.269 76.821 341.495C77.292 342.533 78.326 343.202 79.454 343.202H82.153C83.281 343.202 84.314 342.533 84.786 341.494C85.798 339.269 86.391 338.554 87.227 338.554C87.655 338.554 88.002 338.206 88.002 337.779V331.355C88.002 329.343 87.194 327.478 85.726 326.102C84.259 324.727 82.342 324.037 80.322 324.171ZM82.153 345.202H79.454C77.544 345.202 75.795 344.072 75 342.323C74.492 341.205 74.187 340.725 74.045 340.534C72.672 340.368 71.604 339.196 71.604 337.779V331.635C71.604 326.643 75.377 322.488 80.193 322.175C82.769 322.006 85.219 322.885 87.094 324.643C88.942 326.375 90.002 328.822 90.002 331.355V337.779C90.002 339.196 88.935 340.368 87.562 340.534C87.42 340.725 87.115 341.205 86.606 342.323C85.811 344.072 84.063 345.202 82.153 345.202Z" fill="#1B1A19"/>
<path fill-rule="evenodd" clip-rule="evenodd" d="M75.407 330.693C76.577 330.515 78.622 330.156 79.411 330.44C80.2 330.725 80.309 332.326 79.64 332.847C78.971 333.368 76.459 334.623 75.924 334.584C75.389 334.545 73.746 330.945 75.407 330.693Z" fill="#1B1A19"/>
<path fill-rule="evenodd" clip-rule="evenodd" d="M86.1979 330.693C85.0289 330.515 82.9849 330.156 82.1949 330.44C81.4059 330.725 81.2969 332.326 81.9659 332.847C82.6349 333.368 85.1469 334.623 85.6819 334.584C86.2169 334.545 87.8599 330.945 86.1979 330.693Z" fill="#1B1A19"/>
<path fill-rule="evenodd" clip-rule="evenodd" d="M79.919 335.926L79.151 337.489C78.829 338.143 79.305 338.909 80.035 338.909H81.572C82.301 338.909 82.778 338.143 82.455 337.489L81.687 335.926C81.326 335.192 80.28 335.192 79.919 335.926Z" fill="#1B1A19"/>
<path fill-rule="evenodd" clip-rule="evenodd" d="M57.717 242.848C62.126 247.355 67.182 251.089 72.764 253.962L98.886 227.016C88.79 220.318 85.29 212.046 88.448 202.394C79.356 209.998 64.516 232.27 57.717 242.848ZM73.177 256.409L72.523 256.081C66.24 252.948 60.589 248.77 55.724 243.663L55.182 243.095L55.606 242.435C64.724 228.202 81.334 203.605 90.126 198.771L92.791 197.306L91.516 200.066C86.84 210.194 89.614 218.464 99.995 225.352C100.178 225.473 100.367 225.593 100.555 225.714L102.015 226.662L73.177 256.409Z" fill="#1B1A19"/>
<path fill-rule="evenodd" clip-rule="evenodd" d="M112.128 146.828C113.42 147.541 120.062 147.583 122.955 147.016C124.631 146.688 126.227 145.884 126.989 145.31C126.961 145.307 126.932 145.304 126.902 145.302C126.262 145.251 125.349 145.224 124.299 145.192C122.111 145.124 119.387 145.041 117.167 144.711C115.438 144.454 113.367 144.229 112.689 144.79C112.361 145.061 112.191 145.676 112.128 146.828ZM117.234 149.404C114.461 149.404 111.631 149.128 110.639 148.205C110.261 147.853 110.078 147.398 110.121 146.919C110.191 145.299 110.44 144.055 111.414 143.248C112.623 142.248 114.624 142.311 117.462 142.733C119.565 143.046 122.224 143.127 124.36 143.193C125.45 143.226 126.397 143.255 127.06 143.308C128.928 143.456 129.365 144.275 129.403 144.935C129.515 146.908 125.442 148.568 123.339 148.979C122.429 149.158 119.858 149.404 117.234 149.404Z" fill="#1B1A19"/>
<path fill-rule="evenodd" clip-rule="evenodd" d="M239.193 241.252H333.147C332.537 232.21 331.038 218.213 329.327 216.069C328.495 215.025 327.183 213.844 325.793 212.593C322.888 209.979 319.594 207.015 319.154 203.853C319.086 203.371 319.019 202.838 318.948 202.268C318.409 197.993 317.596 191.535 314.519 188.953C311.093 186.08 311.055 183.553 311.002 180.054C310.99 179.248 310.977 178.371 310.921 177.4C310.795 175.21 309.802 173.492 308.389 173.022C307.163 172.611 305.757 173.22 304.525 174.682C302.835 176.686 302.95 179.7 303.052 182.358C303.146 184.822 303.235 187.149 301.888 188.552C299.651 190.884 298.867 192.001 298.867 195.373L298.871 196.396C298.912 203.626 298.607 208.076 296.926 209.425C296.456 209.802 295.88 209.936 295.3 209.803C293.156 209.315 292.946 207.503 292.777 206.047C292.644 204.908 292.507 203.729 291.725 202.582C291.04 201.578 289.906 201.33 288.595 201.043C286.787 200.648 284.538 200.157 284.115 197.142C283.97 196.108 283.964 194.933 283.957 193.691C283.935 189.063 283.667 186.253 280.156 186.253C278.281 186.253 277.681 190.345 277.152 193.955C276.49 198.46 275.77 203.119 272.353 203.071C267.883 203.01 264.918 196.923 264.918 192.924V192.701C264.919 190.977 264.921 188.618 264.301 186.782C263.643 184.835 262.445 183.929 260.53 183.929C257.377 183.929 257.027 191.76 256.818 196.438C256.792 197.015 256.767 197.567 256.74 198.082C256.56 201.45 254.526 202.479 252.371 203.569C250.426 204.552 248.221 205.667 246.445 208.849C245.184 211.107 244.504 216.512 243.784 222.234C242.825 229.852 241.842 237.667 239.193 241.252ZM335.279 243.252H235.997L235.881 241.259C239.427 240.847 240.798 229.945 241.8 221.984C242.577 215.807 243.249 210.472 244.699 207.874C246.773 204.159 249.376 202.842 251.469 201.784C253.504 200.754 254.625 200.187 254.743 197.975C254.77 197.465 254.795 196.919 254.82 196.349C255.092 190.263 255.464 181.929 260.53 181.929C263.305 181.929 265.264 183.386 266.195 186.142C266.921 188.289 266.919 190.839 266.918 192.701V192.924C266.918 196.1 269.263 201.029 272.38 201.071C272.385 201.071 272.39 201.071 272.395 201.071C274.086 201.071 274.663 197.137 275.173 193.665C275.852 189.038 276.554 184.253 280.156 184.253C285.91 184.253 285.938 189.701 285.957 193.68C285.963 194.854 285.969 195.962 286.096 196.864C286.316 198.43 287.201 198.692 289.022 199.09C290.457 199.404 292.244 199.794 293.377 201.455C294.437 203.008 294.617 204.566 294.763 205.817C294.951 207.435 295.08 207.701 295.745 207.854C296.243 207.512 296.921 205.232 296.871 196.408L296.867 195.373C296.867 191.338 298.013 189.702 300.445 187.167C301.203 186.376 301.131 184.461 301.053 182.434C300.944 179.563 300.807 175.99 302.995 173.393C304.784 171.271 306.979 170.444 309.022 171.124C311.249 171.867 312.742 174.227 312.917 177.285C312.975 178.287 312.989 179.193 313.001 180.024C313.053 183.427 313.079 185.136 315.804 187.42C319.483 190.506 320.355 197.434 320.932 202.018C321.002 202.579 321.069 203.104 321.134 203.577C321.474 206.016 324.48 208.721 327.131 211.107C328.584 212.414 329.956 213.649 330.892 214.823C333.647 218.278 335.06 239.752 335.212 242.19L335.279 243.252Z" fill="#1B1A19"/>
<path fill-rule="evenodd" clip-rule="evenodd" d="M158.253 275.993L157.258 274.259L170.122 266.881L171.117 268.616L158.253 275.993Z" fill="#1B1A19"/>
<path fill-rule="evenodd" clip-rule="evenodd" d="M429.897 207.563C430.597 214.33 437.021 221.659 444.769 222.821C452.516 223.983 456.829 229.018 457.087 232.763C457.346 236.507 452.31 238.559 453.343 242.633C454.376 246.707 462.123 252.906 466.901 248.386C471.678 243.867 469.612 234.7 470.257 230.568C470.904 226.436 476.843 214.686 471.807 209.392C466.772 204.098 451.406 206.422 448.566 206.422C445.725 206.422 437.216 197.384 433.471 200.225C430.343 202.598 429.509 203.819 429.897 207.563Z" fill="#1B1A19"/>
<path fill-rule="evenodd" clip-rule="evenodd" d="M424.126 220.997C422.044 226.668 420.934 231.472 424.42 235.345C429.255 240.717 433.717 240.897 436.945 239.219C440.173 237.54 445.467 233.409 444.692 230.955C443.917 228.501 429.069 214.557 427.778 215.202C426.486 215.848 424.915 218.849 424.126 220.997Z" fill="#1B1A19"/>
<path fill-rule="evenodd" clip-rule="evenodd" d="M259.107 369.249C259.107 372.243 256.678 374.672 253.684 374.672C250.689 374.672 248.26 372.243 248.26 369.249C248.26 366.254 250.689 363.826 253.684 363.826C256.678 363.826 259.107 366.254 259.107 369.249Z" fill="#1B1A19"/>
<path fill-rule="evenodd" clip-rule="evenodd" d="M333.031 256.756C332.804 257.208 332.918 258.805 332.982 259.696C333.129 261.756 333.296 264.093 332.096 265.549C331.726 265.998 331.606 266.509 331.718 267.157C332.495 271.649 343.347 279.024 347.462 281.487L347.636 281.618C360.514 293.8 395.477 324.946 404.703 324.946C404.836 324.946 404.963 324.939 405.084 324.926C406.793 324.743 415.274 318.268 419.407 311.943C421.003 309.5 421.63 307.526 421.221 306.232C420.91 305.254 418.156 301.972 416.144 299.576C414.343 297.43 413.019 295.838 412.249 294.73L402.299 303.353L401.691 303.021C401.465 302.899 379.078 290.712 368.416 284.368C360.519 279.669 352.424 272.311 352.343 272.237L352.33 272.225C341.723 262.207 334.691 256.935 333.031 256.756ZM404.798 326.94C393.049 326.945 351.508 288.031 346.34 283.147C344.357 281.952 330.803 273.594 329.747 267.497C329.537 266.285 329.816 265.172 330.552 264.278C331.244 263.438 331.108 261.526 330.987 259.838C330.839 257.767 330.711 255.979 331.877 255.082C332.664 254.482 334.749 252.872 353.698 270.765C353.959 271.003 361.812 278.112 369.44 282.65C379.08 288.386 398.369 298.932 402.037 300.933L412.917 291.504L413.431 292.829C413.721 293.578 415.914 296.191 417.676 298.289C420.8 302.012 422.727 304.364 423.127 305.628C423.733 307.54 423.044 310.033 421.081 313.037C417.11 319.114 408.147 326.611 405.297 326.914C405.138 326.932 404.97 326.94 404.798 326.94Z" fill="#1B1A19"/>
<path fill-rule="evenodd" clip-rule="evenodd" d="M429.809 313.312C431.819 315.47 430.537 335.777 429.669 346.903C437.455 341.688 448.115 332.768 456.615 332.343C469.577 331.695 465.193 341.55 469.868 346.974C473.816 351.552 480.367 352.919 486.788 353.583C489.08 353.82 491.472 353.991 493.864 354.114H517.257C517.257 354.114 516.483 338.103 504.604 310.73C498.361 296.343 491.821 283.486 482.266 273.542C473.936 264.875 460.441 262.084 453.405 261.773C438.574 261.117 431.408 264.755 426.744 269.445C423.988 272.216 420.762 275.298 409.189 290.861C407.391 293.277 417 318.913 417 318.913C417 318.913 426.744 310.022 429.809 313.312Z" fill="#1B1A19"/>
<path fill-rule="evenodd" clip-rule="evenodd" d="M254.684 369.249H252.684V301.931C252.684 299.769 251.839 297.741 250.304 296.217C248.785 294.71 246.775 293.883 244.637 293.883C244.578 293.884 244.521 293.883 244.461 293.883C240.924 293.883 237.592 292.519 235.069 290.034C232.52 287.522 231.102 284.168 231.077 280.589L230.95 262.502C230.787 239.236 211.724 220.306 188.456 220.306H143.615V218.306H188.456C212.82 218.306 232.779 238.126 232.95 262.489L233.077 280.576C233.098 283.619 234.304 286.472 236.472 288.609C238.618 290.723 241.452 291.883 244.462 291.883C244.52 291.882 244.58 291.882 244.637 291.883C247.306 291.883 249.816 292.916 251.713 294.798C253.629 296.699 254.684 299.232 254.684 301.931V369.249Z" fill="#1B1A19"/>
<path fill-rule="evenodd" clip-rule="evenodd" d="M186.959 195.892L186.769 198.545C189.535 198.526 192.471 198.313 193.346 197.967C193.408 197.262 193.174 196.984 193.09 196.884C192.262 195.9 189.486 195.886 186.959 195.892ZM186.71 200.548C186.381 200.548 186.039 200.546 185.683 200.542L184.622 200.53L185.096 193.896L186.721 193.893C190.035 193.868 193.164 193.867 194.62 195.597C195.273 196.371 195.493 197.384 195.276 198.607C195.162 199.245 194.929 200.548 186.71 200.548Z" fill="#1B1A19"/>
<path fill-rule="evenodd" clip-rule="evenodd" d="M195.116 203.191H198.649C198.834 203.191 199.4 202.979 199.87 202.489C200.062 202.289 200.38 201.887 200.362 201.436C200.291 199.749 200.767 197.696 201.468 196.658C201.485 196.631 201.502 196.607 201.517 196.583C201.339 196.553 201.136 196.524 200.964 196.5C200.411 196.422 199.765 196.331 199.099 196.132L195.116 203.191ZM198.649 205.191H191.692L198.234 193.595L199.074 193.99C199.76 194.312 200.547 194.422 201.242 194.52C202.247 194.66 203.197 194.794 203.58 195.657C203.969 196.529 203.356 197.435 203.125 197.777C202.718 198.38 202.303 199.997 202.36 201.352C202.397 202.237 202.025 203.132 201.313 203.873C200.546 204.674 199.5 205.191 198.649 205.191Z" fill="#1B1A19"/>
<path fill-rule="evenodd" clip-rule="evenodd" d="M169.679 306.525H188.529C187.499 305.39 185.837 304.009 183.77 303.879C179.433 303.609 174.469 300.502 174.26 300.37L173.859 300.117L173.802 299.646C172.083 285.609 167.261 248.368 165.617 244.667C164.186 241.449 125.509 210.263 99.451 189.761C95.984 192.64 94.106 195.342 93.276 196.74C86.348 208.397 88.547 217.756 99.995 225.352C116.015 235.979 135.436 243.984 147.199 247.609C147.377 247.664 147.628 247.729 147.927 247.806C150.204 248.398 154.016 249.389 154.016 251.922C154.016 252.905 153.605 253.883 153.208 254.83C152.573 256.343 152.42 256.932 152.823 257.22C153.258 257.531 153.715 257.752 154.156 257.966C155.38 258.559 156.902 259.297 156.681 261.907C156.599 262.872 156.283 263.612 156.005 264.263C155.6 265.212 155.356 265.785 155.823 266.838C156.798 269.031 167.87 301.256 169.679 306.525ZM192.296 308.525H168.251L168.019 307.849C163.52 294.736 154.799 269.457 153.996 267.651C153.174 265.802 153.701 264.568 154.166 263.479C154.406 262.915 154.633 262.383 154.688 261.737C154.793 260.497 154.443 260.327 153.284 259.766C152.792 259.528 152.233 259.257 151.66 258.847C149.885 257.58 150.74 255.543 151.364 254.056C151.684 253.292 152.016 252.501 152.016 251.922C152.016 251.472 151.219 250.729 147.424 249.743C147.089 249.656 146.808 249.581 146.61 249.52C134.719 245.856 115.087 237.763 98.889 227.018C86.548 218.83 84.08 208.299 91.556 195.718C92.715 193.769 94.915 190.794 98.82 187.698L99.439 187.206L100.06 187.695C106.735 192.944 165.339 239.117 167.444 243.855C169.46 248.391 175.048 293.401 175.727 298.918C176.946 299.628 180.721 301.685 183.895 301.883C188.503 302.172 191.292 306.82 191.408 307.017L192.296 308.525Z" fill="#1B1A19"/>
<path fill-rule="evenodd" clip-rule="evenodd" d="M296.166 67.109V11.201H285.966V77.31H369.119V67.109H296.166Z" fill="#1B1A19"/>
<path fill-rule="evenodd" clip-rule="evenodd" d="M473.072 136.045V146.309L494.925 134.324V124.06L473.072 136.045ZM471.072 149.686V134.862L496.925 120.683V135.507L471.072 149.686Z" fill="#1B1A19"/>
<path fill-rule="evenodd" clip-rule="evenodd" d="M367.315 356.969V354.969C375.181 354.969 385.603 349.174 394.797 344.062C404.588 338.618 412.324 334.32 416.382 336.783C420.892 339.519 420.286 342.794 419.844 345.186C419.448 347.335 419.331 348.413 421.027 349.431C422.896 350.555 428.481 346.582 433.88 342.744C441.16 337.569 449.412 331.701 456.566 331.344C465.988 330.878 467.156 335.887 468.188 340.311C468.689 342.456 469.207 344.675 470.626 346.321C474.45 350.758 480.994 351.979 486.891 352.587C500.166 353.959 517.038 353.145 517.207 353.136L517.307 355.134C517.135 355.141 500.113 355.963 486.686 354.577C480.398 353.928 473.393 352.594 469.111 347.627C467.371 345.609 466.796 343.147 466.24 340.766C465.221 336.402 464.434 332.947 456.665 333.342C450.096 333.67 442.096 339.357 435.038 344.374C428.042 349.349 422.989 352.937 419.997 351.146C417.037 349.369 417.503 346.848 417.878 344.823C418.305 342.51 418.674 340.512 415.345 338.492C412.277 336.636 404.261 341.089 395.77 345.81C386.362 351.04 375.699 356.969 367.315 356.969Z" fill="#1B1A19"/>
<path fill-rule="evenodd" clip-rule="evenodd" d="M159.312 202.766L189.979 203.183L194.306 195.822L167.007 194.645C164.312 194.536 163.368 190.506 163.207 189.7L163.18 189.567C162.087 184.117 160.053 173.97 159.852 171.313C159.751 169.979 159.48 168.714 159.198 167.692C157.104 172.231 153.133 179.617 152.929 179.994C152.257 181.243 151.282 182.319 150.086 183.139C151.466 188.317 153.725 195.676 155.25 199.935C155.862 201.644 157.508 202.769 159.312 202.766ZM191.114 205.199L159.307 204.766C156.681 204.761 154.264 203.118 153.367 200.609C151.727 196.029 149.354 188.266 147.964 182.935L147.771 182.195L148.436 181.815C149.626 181.135 150.545 180.203 151.168 179.046C153.243 175.192 157.417 167.203 158.358 164.561L159.2 162.193L160.215 164.493C160.27 164.618 161.578 167.617 161.846 171.162C162.038 173.697 164.134 184.151 165.141 189.174L165.168 189.307C165.531 191.12 166.392 192.618 167.088 192.647H167.09L197.716 193.966L191.114 205.199Z" fill="#1B1A19"/>
<path fill-rule="evenodd" clip-rule="evenodd" d="M101.158 188.567L120.484 203.92C120.815 202.144 121.361 199.314 121.83 197.37C123.89 188.846 135.152 182.485 141.138 183.009C147.373 183.553 150.032 181.156 151.168 179.047C153.206 175.262 157.267 167.491 158.303 164.709C157.935 163.428 153.668 158.385 149.585 154.048L146.51 156.666C148.085 157.925 148.937 159.586 148.937 161.452C148.937 166.693 139.247 171.335 132.576 172.229C130.768 172.471 127.94 172.815 124.972 173.152C120.22 176.233 106.303 185.255 101.158 188.567ZM121.86 207.567L97.723 188.393L98.903 187.638C102.647 185.243 119.121 174.562 124.081 171.346L124.279 171.218L124.513 171.192C127.553 170.847 130.468 170.493 132.31 170.246C138.697 169.391 146.937 164.973 146.937 161.452C146.937 159.879 146.073 158.593 144.366 157.628L143.12 156.924L149.73 151.298L150.383 151.982C160.996 163.113 160.448 164.652 160.241 165.231C159.015 168.676 153.177 179.535 152.929 179.994C151.767 182.154 148.673 185.677 140.964 185.001C135.788 184.572 125.525 190.598 123.774 197.841C123.073 200.743 122.162 205.864 122.153 205.915L121.86 207.567Z" fill="#1B1A19"/>
<path fill-rule="evenodd" clip-rule="evenodd" d="M120.303 145.03L119.515 144.967C118.61 144.896 117.841 144.812 117.167 144.711H117.166C116.697 144.641 116.275 144.589 115.876 144.545L116.031 142.552L121.024 142.788L120.303 145.03Z" fill="#1B1A19"/>
<path fill-rule="evenodd" clip-rule="evenodd" d="M110.313 147.795C106.639 156.536 102.115 167.506 101.912 168.614C101.703 169.783 102.037 170.952 102.829 171.825C103.609 172.682 104.72 173.127 105.874 173.025C116.375 172.172 127.662 170.868 132.31 170.246C138.697 169.391 146.937 164.973 146.937 161.452C146.937 160.337 146.494 159.355 145.62 158.532C144.016 157.022 141.27 156.331 139.497 156.425C137.228 156.562 120.581 160.465 114.358 161.958L112.628 162.373L116.798 149.4C111.658 149.347 110.816 148.412 110.525 148.088C110.442 147.996 110.371 147.898 110.313 147.795ZM105.563 175.037C103.956 175.037 102.441 174.371 101.349 173.169C100.137 171.834 99.624 170.046 99.943 168.262C100.282 166.362 109.181 145.323 110.195 142.93L110.467 142.287L114.01 142.455L114.006 144.453C112.629 144.514 112.236 144.761 112.129 146.82C112.61 147.056 114.265 147.464 118.154 147.394L119.552 147.368L115.62 159.601C120.982 158.326 136.912 154.577 139.377 154.429C141.621 154.298 144.956 155.159 146.991 157.076C148.264 158.274 148.937 159.787 148.937 161.452C148.937 166.693 139.247 171.335 132.576 172.229C127.907 172.854 116.574 174.163 106.036 175.019C105.878 175.032 105.719 175.037 105.563 175.037Z" fill="#1B1A19"/>
<path fill-rule="evenodd" clip-rule="evenodd" d="M229.455 190.892H223.179L223.171 189.773H210.302V185.253H202.297V180.605H200.425V185.253H190.547V189.773H179.125L176.026 195.325H192.329L192.323 195.335C193.754 195.78 194.605 196.662 194.291 198.432C194.185 199.029 192.099 199.306 190.008 199.435L185.696 207.074H193.904L200.537 195.325H215.983V204.191H219.986V195.325H223.214L223.201 193.646H229.455V190.892Z" fill="#1B1A19"/>
<path fill-rule="evenodd" clip-rule="evenodd" d="M175.335 130.98C170.687 128.398 165.756 132.712 161.365 135.285C156.976 137.857 151.725 132.788 145.527 132.53C139.329 132.272 136.833 138.274 132.701 141.741C128.587 145.192 121.597 141.624 99.442 141.624C71.242 141.624 47.501 161.054 40.886 187.228H55.997C57.133 187.221 58.27 187.962 59.137 189.455C60.871 192.439 60.871 197.294 59.137 200.296C58.27 201.799 57.133 202.555 55.996 202.562H39.061C39.355 235.613 66.322 262.414 99.442 262.414C115.224 262.414 129.606 256.322 140.376 246.374C128.178 242.001 113.094 235.066 100.453 226.837L72.969 255.187C66.764 252.091 61.182 247.943 56.448 242.974C64.844 229.868 81.879 204.447 90.608 199.647C91.157 198.457 91.771 197.314 92.416 196.229C93.731 194.017 95.998 191.212 99.442 188.481C102.706 186.392 115.674 177.99 124.625 172.185C119.403 172.778 112.634 173.48 105.955 174.022C102.847 174.274 100.379 171.507 100.927 168.438C101.257 166.593 111.115 143.32 111.115 143.32L113.963 143.454C114.52 143.43 115.189 143.464 115.984 143.551L119.672 143.726L119.594 143.97C122.402 144.19 125.455 144.184 126.981 144.305C130.596 144.592 126.591 147.324 123.147 147.997C122.145 148.194 120.206 148.358 118.172 148.394L114.124 160.986C114.124 160.986 136.583 155.599 139.437 155.427C140.892 155.339 143.07 155.747 144.859 156.758L149.659 152.672C149.659 152.672 152.219 155.357 154.703 158.228L153.559 156.569C153.559 156.569 165.497 142.932 167.047 141.554C168.596 140.177 173.073 140.694 174.794 142.587C175.171 143.002 175.333 143.87 175.335 144.988L177.204 143.032C177.204 143.032 179.984 133.563 175.335 130.98Z" fill="#1B1A19"/>
<path fill-rule="evenodd" clip-rule="evenodd" d="M334.686 256.37C337.63 257.927 342.842 262.234 347.976 266.851L348.087 266.286L368.928 283.509C369.71 283.974 370.56 284.473 371.451 284.993L373.571 273.448L356.581 259.408L362.137 252.686L332.752 228.403L327.198 235.124L331.77 238.904L308.056 219.306L306.667 220.96L297.333 213.246L293.948 217.343L303.249 225.031L301.166 227.511L305.968 231.48L295.07 244.667L301.024 249.587L311.922 236.4L334.882 255.373L334.686 256.37Z" fill="#1B1A19"/>
<path fill-rule="evenodd" clip-rule="evenodd" d="M331.99 270.072L330.471 277.801L343.676 288.714L345.151 281.217C341.847 279.085 334.888 274.296 331.99 270.072Z" fill="#1B1A19"/>
</svg>
