<svg width="960" height="436" viewBox="0 0 960 436" fill="none" xmlns="http://www.w3.org/2000/svg">
<g clip-path="url(#clip0)">
<path d="M77.4041 173.757C56.7648 159.766 44.4858 136.621 44.4858 111.776C44.4858 70.5862 77.9266 37.1113 119.074 37.1113C129.263 37.1113 139.191 39.0728 148.466 43.1264L147.421 45.4801C138.407 41.688 128.872 39.7266 119.074 39.7266C79.3635 39.7266 47.0984 72.0246 47.0984 111.776C47.0984 135.705 58.9855 158.066 78.841 171.534L77.4041 173.757Z" fill="#231F20"/>
<path d="M125.083 186.31L124.821 183.695C162.05 180.818 191.181 149.174 191.181 111.776C191.181 96.0844 186.217 81.1776 176.811 68.6246L178.901 67.0554C188.568 80.0008 193.793 95.5614 193.793 111.776C193.793 150.612 163.618 183.302 125.083 186.31Z" fill="#231F20"/>
<path d="M90.1408 117.574L54.5573 147.135L56.2257 149.147L91.8092 119.586L90.1408 117.574Z" fill="#231F20"/>
<path d="M958.62 425.342H574.182V368.068H576.794V422.727H958.62V425.342Z" fill="#231F20"/>
<path d="M638.581 366.107H307.177V368.722H638.581V366.107Z" fill="#231F20"/>
<path d="M652.819 367.415H650.206V198.602L308.483 198.34V328.971H305.87V195.725H307.177L652.819 195.986V367.415Z" fill="#231F20"/>
<path d="M349.762 196.248H347.149V367.415H349.762V196.248Z" fill="#231F20"/>
<path d="M142.194 424.034H139.582V342.308H218.481V344.924H142.194V424.034Z" fill="#231F20"/>
<path d="M0.201599 385.198V423.904H38.8675V385.198H0.201599ZM19.5345 415.143C13.7869 415.143 9.08429 410.435 9.08429 404.682C9.08429 398.928 13.7869 394.221 19.5345 394.221C25.2822 394.221 29.9848 398.928 29.9848 404.682C29.9848 410.435 25.2822 415.143 19.5345 415.143Z" fill="#231F20"/>
<path d="M39.5204 424.688H-0.451752V384.675H39.5204V424.688ZM0.854529 423.38H38.2141V385.983H0.854529V423.38ZM19.5343 415.796C13.3948 415.796 8.43094 410.827 8.43094 404.682C8.43094 398.536 13.3948 393.567 19.5343 393.567C25.6738 393.567 30.6377 398.536 30.6377 404.682C30.6377 410.827 25.6738 415.796 19.5343 415.796ZM19.5343 394.874C14.1786 394.874 9.73722 399.32 9.73722 404.682C9.73722 410.043 14.1786 414.489 19.5343 414.489C24.8901 414.489 29.3314 410.043 29.3314 404.682C29.3314 399.32 24.8901 394.874 19.5343 394.874Z" fill="#231F20"/>
<path d="M919.953 385.198V423.904H958.619V385.198H919.953ZM939.286 415.143C933.539 415.143 928.836 410.435 928.836 404.682C928.836 398.928 933.539 394.221 939.286 394.221C945.034 394.221 949.736 398.928 949.736 404.682C949.736 410.435 945.034 415.143 939.286 415.143Z" fill="#231F20"/>
<path d="M959.272 424.688H919.3V384.675H959.272V424.688ZM920.606 423.38H957.966V385.983H920.606V423.38ZM939.286 415.796C933.146 415.796 928.182 410.827 928.182 404.682C928.182 398.536 933.146 393.567 939.286 393.567C945.425 393.567 950.389 398.536 950.389 404.682C950.389 410.827 945.425 415.796 939.286 415.796ZM939.286 394.874C933.93 394.874 929.489 399.32 929.489 404.682C929.489 410.043 933.93 414.489 939.286 414.489C944.642 414.489 949.083 410.043 949.083 404.682C949.083 399.32 944.642 394.874 939.286 394.874Z" fill="#231F20"/>
<path d="M480.391 435.149C457.531 435.149 434.41 431.357 434.41 424.296C434.41 417.104 457.531 413.443 480.391 413.443C503.251 413.443 526.372 417.235 526.372 424.296C526.372 431.488 503.251 435.149 480.391 435.149ZM480.391 416.058C453.482 416.058 437.022 420.896 437.022 424.296C437.022 427.696 453.873 432.534 480.391 432.534C506.778 432.534 523.76 427.696 523.76 424.296C523.76 420.896 507.3 416.058 480.391 416.058Z" fill="#231F20"/>
<path d="M481.957 433.841H479.345V336.163C479.345 332.109 481.304 328.448 484.7 326.225C487.966 324.002 492.146 323.61 495.934 325.048L507.168 329.755C509.52 330.671 512.132 330.409 514.092 328.709C516.051 327.14 516.965 324.656 516.443 322.171L513.7 308.049C513.047 304.911 514.222 301.772 516.835 299.811C519.317 297.85 522.713 297.457 525.587 298.765L548.055 309.226C551.059 310.664 553.803 309.487 555.37 307.918C556.938 306.349 558.113 303.734 556.807 300.726L528.591 235.476C526.371 230.377 526.893 224.623 529.898 220.047C532.902 215.47 537.997 212.724 543.483 212.724H578.099C587.505 212.724 595.081 205.14 595.081 195.725V151.5H597.694V195.725C597.694 206.578 588.942 215.339 578.099 215.339H543.483C538.911 215.339 534.6 217.693 531.988 221.485C529.506 225.408 528.983 230.246 530.812 234.43L559.028 299.68C560.595 303.211 559.812 307.134 557.068 309.88C554.325 312.626 550.406 313.279 546.879 311.58L524.411 301.119C522.321 300.203 520.101 300.465 518.402 301.772C516.704 303.211 515.79 305.303 516.312 307.526L519.056 321.648C519.709 325.048 518.533 328.448 515.79 330.671C513.047 332.894 509.52 333.417 506.254 332.109L495.02 327.402C492.146 326.225 488.881 326.486 486.268 328.317C483.655 330.017 482.088 332.894 482.088 336.032V433.841H481.957Z" fill="#231F20"/>
<path d="M793.636 386.506H735.114V325.963H651.512V323.348H737.727V383.89H793.636V386.506Z" fill="#231F20"/>
<path d="M100.524 303.472H76.4881V302.165C76.3575 297.849 72.6999 194.94 76.4881 174.411C79.7538 156.496 86.2852 146.689 94.6454 134.267C96.0823 132.175 97.5192 129.952 98.9561 127.598L99.8705 126.291L125.343 150.22V150.743C125.343 151.004 126.911 171.011 126.911 179.641C126.911 188.925 122.208 193.763 118.42 197.686C116.852 199.255 115.546 200.694 114.631 202.263C113.325 204.486 113.978 206.97 114.893 209.978C115.807 213.116 116.852 216.777 115.023 220.439C114.37 221.877 113.456 223.315 112.28 224.885C109.929 228.546 106.924 232.992 105.618 239.138C105.096 241.361 105.488 243.845 105.879 246.983C106.533 251.952 107.316 258.098 105.357 266.859C100.785 287.258 100.654 301.903 100.654 302.034L100.524 303.472ZM78.97 300.857H97.9111C98.0417 296.803 98.8255 283.596 102.614 266.467C104.443 258.098 103.659 252.214 103.006 247.506C102.614 244.237 102.222 241.361 102.875 238.745C104.312 232.207 107.447 227.369 109.929 223.577C110.974 222.008 111.888 220.569 112.411 219.393C113.848 216.516 113.064 213.77 112.15 210.762C111.235 207.624 110.321 204.355 112.15 201.086C113.195 199.255 114.762 197.686 116.33 195.986C119.987 192.194 124.037 188.01 124.037 179.772C124.037 171.926 122.73 154.666 122.469 151.527L100.132 130.344C98.9561 132.175 97.7805 134.005 96.6048 135.705C88.5059 147.866 82.1051 157.543 78.8394 174.934C75.4431 194.025 78.4475 288.827 78.97 300.857Z" fill="#231F20"/>
<path d="M124.037 152.835L89.029 118.576L90.2047 117.66C91.511 116.614 93.4704 114.914 96.0829 112.822C100.916 108.638 107.578 103.146 113.718 98.3077C110.06 96.477 102.353 92.5542 99.3486 90.7235C94.2541 87.5852 90.9884 83.4009 90.074 78.5627L81.8445 47.0492L96.9973 40.3804L109.93 74.3783L140.105 80.2626L139.582 82.8778L107.97 76.6013L95.4298 43.7802L84.8489 48.4876L92.556 77.9089C93.4704 83.1393 97.3892 86.4084 100.524 88.3698C104.312 90.7235 116.461 96.7385 116.592 96.7385L118.551 97.6539L116.853 98.9615C110.321 103.93 103.006 110.076 97.6505 114.653C95.691 116.222 94.1235 117.66 92.9479 118.706L123.907 148.912L160.091 105.5L210.121 105.107V90.462L170.541 88.1083L156.302 85.6238L156.694 83.0086L170.933 85.493L212.734 87.9775V107.722L161.397 108.115L124.037 152.835Z" fill="#231F20"/>
<path d="M731.326 50.8412L751.312 93.0771L731.326 106.022L711.34 93.0771L731.326 50.8412ZM731.326 44.8262L707.944 93.9925L731.326 109.161L754.709 93.9925L731.326 44.8262Z" fill="#231F20"/>
<path d="M748.438 104.715L731.326 140.674L714.214 104.715L729.889 114.914L731.326 115.83L732.763 114.914L748.438 104.715ZM754.708 97.5229L731.326 112.691L707.944 97.5229L731.326 146.689L754.708 97.5229Z" fill="#231F20"/>
<path d="M443.945 239.007C445.821 239.007 447.341 237.485 447.341 235.607C447.341 233.729 445.821 232.207 443.945 232.207C442.069 232.207 440.549 233.729 440.549 235.607C440.549 237.485 442.069 239.007 443.945 239.007Z" fill="#231F20"/>
<path d="M879.066 268.036L861.692 217.039L860.386 239.268L811.662 239.922L807.482 201.217L784.883 219.131C780.572 222.531 774.563 222.923 769.991 220.046L737.988 200.171L748.438 188.271L769.991 198.34C771.69 199.125 773.78 198.732 775.086 197.425L800.428 173.103C804.347 169.311 809.572 167.219 815.189 167.219H827.207V169.834H815.189C810.355 169.834 805.783 171.665 802.257 175.064L777.045 199.386C774.955 201.478 771.69 202.132 768.946 200.824L749.222 191.54L742.037 199.648L771.428 217.823C775.086 220.177 779.919 219.785 783.315 217.17L809.702 196.248L814.144 237.307L858.035 236.784L860.125 203.832L880.895 264.505L895.133 257.706C892.782 249.206 877.107 192.586 874.494 185.264C872.535 179.641 868.746 175.064 863.521 172.057C861.039 170.619 858.165 169.834 855.161 169.834H843.796V167.219H855.161C858.557 167.219 861.954 168.134 864.827 169.703C870.575 173.103 874.755 178.072 876.976 184.348C879.719 192.194 897.223 255.352 897.876 257.967L898.138 259.013L879.066 268.036Z" fill="#231F20"/>
<path d="M596.258 160.476C600.803 160.476 604.487 156.788 604.487 152.238C604.487 147.688 600.803 144 596.258 144C591.713 144 588.028 147.688 588.028 152.238C588.028 156.788 591.713 160.476 596.258 160.476Z" fill="#231F20"/>
<path d="M415.467 239.007C417.343 239.007 418.864 237.485 418.864 235.607C418.864 233.729 417.343 232.207 415.467 232.207C413.592 232.207 412.071 233.729 412.071 235.607C412.071 237.485 413.592 239.007 415.467 239.007Z" fill="#231F20"/>
<path d="M387.12 239.007C388.996 239.007 390.517 237.485 390.517 235.607C390.517 233.729 388.996 232.207 387.12 232.207C385.245 232.207 383.724 233.729 383.724 235.607C383.724 237.485 385.245 239.007 387.12 239.007Z" fill="#231F20"/>
<path d="M443.945 265.159C445.821 265.159 447.341 263.637 447.341 261.759C447.341 259.882 445.821 258.36 443.945 258.36C442.069 258.36 440.549 259.882 440.549 261.759C440.549 263.637 442.069 265.159 443.945 265.159Z" fill="#231F20"/>
<path d="M415.467 265.159C417.343 265.159 418.864 263.637 418.864 261.759C418.864 259.882 417.343 258.36 415.467 258.36C413.592 258.36 412.071 259.882 412.071 261.759C412.071 263.637 413.592 265.159 415.467 265.159Z" fill="#231F20"/>
<path d="M387.12 265.159C388.996 265.159 390.517 263.637 390.517 261.759C390.517 259.882 388.996 258.36 387.12 258.36C385.245 258.36 383.724 259.882 383.724 261.759C383.724 263.637 385.245 265.159 387.12 265.159Z" fill="#231F20"/>
<path d="M443.945 291.311C445.821 291.311 447.341 289.789 447.341 287.912C447.341 286.034 445.821 284.512 443.945 284.512C442.069 284.512 440.549 286.034 440.549 287.912C440.549 289.789 442.069 291.311 443.945 291.311Z" fill="#231F20"/>
<path d="M415.467 291.311C417.343 291.311 418.864 289.789 418.864 287.912C418.864 286.034 417.343 284.512 415.467 284.512C413.592 284.512 412.071 286.034 412.071 287.912C412.071 289.789 413.592 291.311 415.467 291.311Z" fill="#231F20"/>
<path d="M387.12 291.311C388.996 291.311 390.517 289.789 390.517 287.912C390.517 286.034 388.996 284.512 387.12 284.512C385.245 284.512 383.724 286.034 383.724 287.912C383.724 289.789 385.245 291.311 387.12 291.311Z" fill="#231F20"/>
<path d="M319.979 422.727H0.201172V425.342H319.979V422.727Z" fill="#231F20"/>
<path d="M698.932 364.407L689.134 354.469L698.932 344.662L700.76 346.493L692.792 354.469L700.76 362.446L698.932 364.407Z" fill="#231F20"/>
<path d="M210.121 415.143C231.805 398.013 302.214 352.377 317.628 359.83C329.384 365.584 301.43 393.436 301.43 393.436C301.43 393.436 337.091 365.322 355.379 370.814C370.14 375.26 319.979 424.165 319.979 424.165H222.138C219.526 424.165 216.913 422.988 215.215 421.027L210.121 415.143Z" fill="#231F20"/>
<path d="M177.856 342.962H174.982C164.662 342.962 156.302 334.593 156.302 324.263V322.302C156.302 318.379 159.437 315.241 163.356 315.241H189.351C193.27 315.241 196.405 318.379 196.405 322.302V324.263C196.405 334.593 188.175 342.962 177.856 342.962ZM163.356 317.856C160.874 317.856 158.915 319.817 158.915 322.302V324.263C158.915 333.155 166.099 340.347 174.982 340.347H177.856C186.738 340.347 193.923 333.155 193.923 324.263V322.302C193.923 319.817 191.964 317.856 189.482 317.856H163.356Z" fill="#231F20"/>
<path d="M211.427 200.302H208.814V209.324H211.427V200.302Z" fill="#231F20"/>
<path d="M177.464 316.548H174.852V287.127C174.852 277.058 183.081 268.82 193.14 268.82C201.761 268.82 208.815 261.759 208.815 253.129V230.9H211.427V253.129C211.427 263.198 203.198 271.436 193.14 271.436C184.518 271.436 177.464 278.497 177.464 287.127V316.548Z" fill="#231F20"/>
<path d="M284.056 362.838C277.917 362.838 272.169 359.438 269.295 353.685L249.701 314.326C246.697 308.964 243.692 300.988 245.782 293.796C247.089 289.612 249.962 286.212 254.534 283.858C257.539 282.289 260.543 282.027 263.548 283.204C271.385 286.212 276.088 297.719 276.219 298.242L286.93 333.286L328.078 322.825L335.785 341.524L290.065 361.661C288.106 362.446 286.016 362.838 284.056 362.838ZM259.89 285.166C258.584 285.166 257.147 285.558 255.841 286.212C252.052 288.173 249.44 291.05 248.395 294.581C246.958 299.549 248.264 306.088 252.052 313.018L271.647 352.377C274.912 358.915 282.358 361.792 289.151 359.177L332.519 340.085L326.641 325.832L285.232 336.293L273.867 299.026C273.867 299.026 269.557 288.173 262.633 285.558C261.719 285.427 260.805 285.166 259.89 285.166Z" fill="#231F20"/>
<path d="M271.402 355.497L266.453 380.242L269.015 380.755L273.964 356.01L271.402 355.497Z" fill="#231F20"/>
<path d="M216.391 423.511C204.112 410.173 198.756 398.274 198.756 385.198C198.756 374.737 231.021 317.333 244.868 293.142C246.827 289.611 249.44 286.604 252.314 283.858L260.935 276.274C261.719 275.358 264.331 272.613 265.246 271.697L266.03 270.913L283.534 284.381L281.836 316.941L279.223 316.81L280.79 285.689L266.16 274.574C264.593 276.143 263.156 277.712 262.894 278.104L262.633 278.366L253.881 286.081C251.138 288.565 248.787 291.442 246.958 294.711C224.882 333.286 201.238 377.352 201.238 385.46C201.238 397.882 206.463 409.127 218.22 421.942L216.391 423.511Z" fill="#231F20"/>
<path d="M281.312 285.95L266.682 274.835L273.866 264.505L285.492 276.405L281.312 285.95ZM270.209 274.182L280.136 281.766L282.357 276.797L274.128 268.428L270.209 274.182Z" fill="#231F20"/>
<path d="M288.759 279.935C287.584 279.935 286.408 279.674 285.363 279.02C282.881 277.712 272.953 266.728 269.687 262.675C267.597 260.059 268.12 252.214 269.034 247.899C269.818 243.845 277.525 237.569 282.228 235.215C284.318 234.169 285.755 234.038 286.8 234.561C290.327 236.392 296.074 260.713 296.074 269.213C296.074 275.359 293.854 277.974 292.025 279.151C290.849 279.674 289.804 279.935 288.759 279.935ZM271.516 260.975C275.566 266.074 284.84 275.751 286.538 276.666C287.845 277.451 289.412 277.451 290.588 276.797C292.417 275.751 293.331 273.005 293.331 269.213C293.331 259.667 287.453 238.484 285.493 236.915C285.363 236.915 283.926 237.045 281.052 238.876C276.35 241.753 271.908 246.33 271.386 248.422C270.341 253.521 270.471 259.667 271.516 260.975Z" fill="#231F20"/>
<path d="M267.204 261.759C263.285 258.098 255.317 251.429 258.06 242.93C260.281 235.999 264.853 232.076 268.38 231.553C269.294 230.507 270.47 224.231 275.565 219.785C280.79 215.077 288.366 216.647 289.672 219.916C293.33 228.546 288.366 238.091 287.844 239.137C287.452 240.184 273.866 251.56 275.434 255.613C273.083 256.398 267.596 255.875 274.52 264.374C274.389 266.336 273.083 267.513 273.083 267.513C273.083 267.513 268.641 263.067 267.204 261.759Z" fill="#231F20"/>
<path d="M79.3608 329.232V300.857H94.6443V323.087L79.3608 329.232ZM81.9734 303.472V325.44L92.0318 321.387V303.603H81.9734V303.472Z" fill="#231F20"/>
<path d="M80.6687 327.402C71.3941 336.424 63.2952 350.939 63.2952 350.939C63.2952 350.939 58.07 361.4 67.214 355.385C75.1823 350.154 83.02 344.531 87.8532 340.739C91.2496 338.124 93.209 334.201 93.209 329.886V322.171L80.6687 327.402Z" fill="#231F20"/>
<path d="M63.0333 358.523C62.3801 358.523 61.8576 358.392 61.3351 357.869C59.3757 356.169 61.2045 351.985 62.1189 350.154C62.5108 349.5 70.4791 335.247 79.7537 326.225L79.8843 326.094L94.6453 320.079V329.755C94.6453 334.463 92.4246 338.909 88.767 341.655C83.6725 345.447 75.9655 351.2 67.9971 356.3C66.4296 357.477 64.6008 358.523 63.0333 358.523ZM81.4518 328.448C72.4385 337.209 64.6008 351.331 64.4702 351.462C63.6864 353.162 63.0333 355.123 63.1639 355.908C63.5558 355.908 64.4702 355.646 66.5602 354.208C74.3979 349.108 82.105 343.485 87.1995 339.693C90.2039 337.34 92.0327 333.678 92.0327 329.886V324.133L81.4518 328.448Z" fill="#231F20"/>
<path d="M155.389 42.0802C162.17 42.0802 167.668 36.5771 167.668 29.7887C167.668 23.0002 162.17 17.4971 155.389 17.4971C148.607 17.4971 143.109 23.0002 143.109 29.7887C143.109 36.5771 148.607 42.0802 155.389 42.0802Z" fill="#231F20"/>
<path d="M149.116 22.8583C153.012 22.8583 156.17 19.6969 156.17 15.7972C156.17 11.8974 153.012 8.73608 149.116 8.73608C145.221 8.73608 142.062 11.8974 142.062 15.7972C142.062 19.6969 145.221 22.8583 149.116 22.8583Z" fill="#231F20"/>
<path d="M150.033 87.9774C149.119 87.9774 148.204 87.8467 147.159 87.5851C141.281 86.1468 138.93 82.3547 138.799 82.2239L138.277 81.4394L152.776 64.9634C152.254 64.4404 151.731 64.0481 151.209 63.525C148.857 61.3021 149.249 56.4639 152.254 52.0181C154.474 48.6183 164.663 43.1263 171.064 43.6493C174.33 43.9108 175.767 45.6107 176.42 46.9183C179.163 52.5411 180.208 66.4018 177.726 73.3321C176.943 75.5551 175.767 77.1242 174.199 77.778C170.542 79.4779 167.668 78.3011 164.533 75.8166L157.348 85.3622C157.218 85.493 154.344 87.9774 150.033 87.9774ZM141.542 81.7009C142.457 82.6162 144.416 84.3161 147.682 85.1007C151.993 86.1468 154.997 84.0546 155.52 83.5315L164.01 72.0245L165.055 72.9399C168.582 75.9474 170.542 76.4704 173.024 75.2936C173.807 74.9013 174.591 73.8552 175.114 72.2861C177.465 66.0095 176.42 53.0641 173.938 47.9644C173.416 46.9183 172.371 46.2646 170.672 46.1338C165.186 45.7415 155.911 50.8412 154.213 53.3257C151.862 56.8562 151.601 60.3868 152.776 61.4329C153.691 62.2174 154.474 63.002 155.258 63.7866L156.173 64.7019L141.542 81.7009Z" fill="#231F20"/>
<path d="M157.609 322.825C157.609 319.425 160.352 316.549 163.879 316.549H176.027V341.524C165.838 341.393 157.609 333.025 157.609 322.825Z" fill="#231F20"/>
<path d="M332.389 340.085L325.727 324.002L326.38 323.348C329.907 319.948 331.605 316.679 332.78 314.587C333.825 312.626 334.479 311.449 335.785 311.056C336.438 310.926 337.222 311.056 337.875 311.579C340.749 313.541 339.312 328.448 338.006 333.809C336.83 338.647 333.564 339.562 333.434 339.693L332.389 340.085ZM328.862 324.656L333.825 336.555C334.479 336.032 335.132 334.986 335.524 333.286C337.222 326.225 337.352 315.502 336.307 313.672C336.046 314.064 335.524 314.979 335.132 315.764C333.956 317.987 332.258 321.256 328.862 324.656Z" fill="#231F20"/>
<path d="M210.121 105.107V89.1545H211.427C211.558 89.1545 228.539 89.9391 233.503 89.416C235.593 87.1931 240.426 83.0087 243.039 83.924C243.823 84.1856 244.345 84.9701 244.345 86.0162C244.345 87.1931 243.953 88.3699 243.692 89.2853C243.562 89.9391 243.17 90.8544 243.17 91.2467H243.3C243.823 91.3774 244.476 91.5082 245.26 91.6389C250.224 92.5543 254.404 93.4696 255.449 95.8233C255.971 97.0002 255.841 98.3078 255.057 99.6154C253.62 101.969 250.224 103.669 246.435 103.8C240.949 104.061 211.819 105.107 211.558 105.107H210.121ZM212.733 91.9005V102.361C218.612 102.1 241.471 101.315 246.174 101.054C249.57 100.923 251.922 99.4846 252.705 98.0462C252.967 97.654 253.097 97.1309 252.967 96.7386C252.444 95.431 246.827 94.5157 244.737 94.1234C243.953 93.9926 243.17 93.8619 242.647 93.7311C241.733 93.6004 241.21 93.0773 240.818 92.4235C240.165 91.2467 240.557 89.8083 241.08 88.3699C241.341 87.7161 241.471 87.0623 241.602 86.4085C240.296 86.9315 237.161 88.893 235.071 91.3774L234.809 91.7697L234.287 91.9005C230.629 92.5543 217.175 92.162 212.733 91.9005Z" fill="#231F20"/>
<path d="M289.021 159.765H275.044V145.774H289.021V159.765ZM277.525 157.15H286.278V148.389H277.525V157.15Z" fill="#231F20"/>
<path d="M806.96 404.943L804.609 421.288C804.739 422.727 803.825 424.034 802.649 424.034H768.294C767.38 424.034 766.727 423.119 766.727 422.073C766.727 421.158 767.249 420.373 767.902 420.111C770.907 419.196 778.875 416.45 782.402 414.489C786.843 412.004 789.717 409.258 789.717 409.258L791.154 404.943H806.96Z" fill="#231F20"/>
<path d="M841.839 404.943V408.474C841.839 412.266 840.01 415.927 837.006 418.15L834.002 420.373C832.434 421.55 833.218 424.034 835.177 424.034H841.839H863.262L859.082 404.943H841.839Z" fill="#231F20"/>
<path d="M773.782 313.018H759.804V299.026H773.782V313.018ZM762.417 310.403H771.169V301.642H762.417V310.403Z" fill="#231F20"/>
<path d="M831.779 175.326C829.689 175.326 827.991 174.672 826.815 173.365C824.855 171.272 824.986 168.396 824.986 168.265V168.003C826.031 163.688 826.945 158.85 827.337 156.496C827.207 156.496 827.207 156.627 827.076 156.627C825.639 157.412 823.81 158.327 822.112 158.066C821.198 157.804 820.283 157.15 819.5 155.843C816.365 150.743 813.883 136.098 815.32 130.736C816.626 125.767 821.198 121.975 824.855 120.537C827.337 119.491 829.558 119.491 831.126 120.537C835.044 123.021 840.4 137.274 840.531 139.628C841.706 152.704 844.711 168.657 844.711 168.919L844.842 169.442L844.45 169.965C844.58 170.096 840.4 175.326 831.779 175.326ZM827.599 168.526C827.599 168.919 827.729 170.619 828.644 171.665C829.297 172.319 830.342 172.711 831.648 172.711C837.657 172.711 841.053 169.703 842.098 168.657C841.576 165.519 838.963 151.527 837.918 139.759C837.788 137.928 832.562 124.591 829.689 122.629C828.905 122.106 827.468 122.237 825.77 122.891C822.504 124.198 818.716 127.467 817.801 131.259C816.234 137.405 820.283 154.797 822.635 155.45C823.288 155.581 824.855 154.796 825.77 154.273C827.076 153.62 827.99 153.097 828.905 153.489C829.297 153.62 829.689 154.012 829.819 154.535C830.211 154.927 830.603 156.104 827.599 168.526Z" fill="#231F20"/>
<path d="M809.704 406.251H785.276L785.799 404.551C786.06 403.897 809.442 334.463 813.622 317.595C817.803 300.596 832.825 238.615 832.955 237.961L833.217 236.915L860.257 236.522L860.387 237.699C860.779 243.322 861.694 248.945 862.477 254.306C863.653 261.629 864.698 268.428 864.698 275.359C864.829 296.803 812.447 400.889 810.095 405.335L809.704 406.251ZM788.803 403.635H808.005C812.708 394.221 862.085 295.496 861.955 275.489C861.955 268.69 860.91 262.021 859.734 254.829C858.95 249.729 858.167 244.499 857.775 239.268L835.176 239.53C833.217 247.637 820.023 302.426 816.104 318.248C812.316 333.678 792.461 392.782 788.803 403.635Z" fill="#231F20"/>
<path d="M879.85 266.205C881.026 274.182 884.161 280.197 891.737 277.189C899.705 274.051 893.696 259.536 893.696 259.536L879.85 266.205Z" fill="white"/>
<path d="M888.081 279.281C886.774 279.281 885.468 279.02 884.423 278.366C881.419 276.666 879.459 272.743 878.545 266.467L878.414 265.551L894.351 257.836L894.873 259.144C895.004 259.536 898.661 268.69 896.179 274.574C895.396 276.535 893.959 277.843 892.13 278.497C890.693 279.02 889.256 279.281 888.081 279.281ZM881.288 266.99C882.072 271.828 883.639 274.835 885.729 276.143C887.166 276.928 888.995 276.928 891.216 276.012C892.391 275.489 893.306 274.705 893.828 273.397C895.265 269.997 893.959 264.375 892.914 261.367L881.288 266.99Z" fill="#231F20"/>
<path d="M816.757 130.998C807.744 126.683 809.965 113.476 815.843 113.868C820.023 114.13 822.113 113.607 824.856 111.515C829.82 107.723 834.262 108.638 836.613 113.868C838.964 119.23 843.797 114.784 848.108 123.675C850.59 128.775 844.973 147.474 841.185 147.997C837.397 148.52 835.045 146.951 835.437 144.205C835.829 141.459 837.658 139.498 836.874 136.49C835.96 132.567 833.086 133.09 829.951 130.344C826.816 127.598 826.685 126.291 823.681 125.506C820.284 124.591 816.757 130.998 816.757 130.998Z" fill="#231F20"/>
<path d="M958.62 52.8025H947.256V64.1787H958.62V52.8025Z" fill="#231F20"/>
<path d="M959.927 65.4866H945.949V51.4951H959.927V65.4866ZM948.562 62.8714H957.314V54.1103H948.562V62.8714Z" fill="#231F20"/>
<path d="M178.771 62.0867L166.361 64.5712C164.794 64.8327 163.226 63.9174 162.834 62.2175L161.92 57.7716C161.659 56.2024 162.573 54.6333 164.271 54.241L176.681 51.7565C178.249 51.495 179.816 52.4104 180.208 54.1103L181.122 58.5562C181.384 60.2561 180.339 61.8252 178.771 62.0867Z" fill="#231F20"/>
<path d="M439.766 428.219C446.82 424.95 462.365 422.596 480.391 422.596C498.418 422.596 513.963 424.95 521.017 428.219C523.629 427.042 525.066 425.734 525.066 424.296C525.066 419.065 505.08 414.75 480.391 414.75C455.703 414.75 435.717 419.065 435.717 424.296C435.717 425.734 437.154 427.042 439.766 428.219Z" fill="#231F20"/>
<path d="M740.08 201.609L739.166 200.955C737.598 199.909 724.013 191.148 722.968 185.918C722.706 184.741 723.098 183.956 723.36 183.433C725.842 179.772 731.981 182.256 739.688 185.264C742.693 186.441 745.828 187.748 748.963 188.533L750.922 189.056L740.08 201.609ZM727.409 184.349C726.495 184.349 725.842 184.61 725.58 185.002C725.58 185.002 725.45 185.133 725.58 185.395C726.103 188.271 734.202 194.548 739.688 198.079L746.481 190.364C743.999 189.579 741.386 188.533 738.904 187.618C734.724 186.048 730.022 184.349 727.409 184.349Z" fill="#231F20"/>
<path d="M731.327 109.161V44.8262L754.709 93.9925L731.327 109.161Z" fill="#231F20"/>
<path d="M731.327 146.689V112.692L754.709 97.5232L731.327 146.689Z" fill="#231F20"/>
<path d="M575.49 385.198L651.515 367.414H575.49V385.198Z" fill="#231F20"/>
<path d="M575.88 386.506L574.312 385.198V367.284L575.619 365.976H651.644L651.905 368.591L575.88 386.506ZM576.794 368.722V383.629L640.149 368.722H576.794Z" fill="#231F20"/>
<path d="M812.708 238.484C812.708 238.484 815.973 271.436 819.762 298.373C825.509 274.836 833.477 241.884 834.261 238.484H812.708Z" fill="#231F20"/>
<path d="M819.37 305.303L818.456 298.634C814.667 271.959 811.402 239.007 811.402 238.746L811.271 237.307H835.829L835.437 238.876C834.653 242.145 826.685 275.228 820.938 298.765L819.37 305.303ZM814.145 239.792C814.798 245.807 817.149 269.474 820.154 291.312C825.118 270.913 830.996 246.591 832.563 239.792H814.145Z" fill="#231F20"/>
<path d="M863.262 404.943L849.807 317.333C844.321 330.54 837.659 345.054 831.519 358.392C835.83 381.014 839.618 404.943 839.618 404.943H863.262Z" fill="#231F20"/>
<path d="M864.828 406.251H838.441L838.311 405.205C838.311 404.943 834.392 381.144 830.212 358.654L830.081 358.261L830.212 357.869C837.527 342.308 843.666 328.578 848.5 316.941L850.328 312.625L864.828 406.251ZM840.662 403.635H861.693L849.153 322.171C844.581 332.763 839.094 345.054 832.824 358.654C836.482 378.137 839.878 398.666 840.662 403.635Z" fill="#231F20"/>
<path d="M162.05 32.927C153.298 32.927 146.244 39.9881 146.244 48.7491C146.244 49.926 146.505 51.2336 146.636 52.1489C147.289 57.5101 149.771 61.433 149.771 61.433L156.041 64.5712C153.298 60.5176 155.388 57.9024 158.393 56.8563C158.393 48.7491 167.275 50.1875 169.888 48.7491C171.063 48.0953 171.847 46.5262 172.239 45.2186C173.545 45.6108 174.59 46.2647 175.113 47.4415C175.897 48.8799 176.419 51.1028 176.942 53.5873C177.464 52.0182 177.725 50.3183 177.725 48.6184C177.856 39.9881 170.802 32.927 162.05 32.927Z" fill="#231F20"/>
</g>
<defs>
<clipPath id="clip0">
<rect width="960" height="436" fill="white"/>
</clipPath>
</defs>
</svg>
