<svg viewBox="0 0 500 500" xmlns="http://www.w3.org/2000/svg"><g fill="#1a1a1a"><path d="M315.08 226.8H143.61a37.2 37.2 0 00-10 1.37l-.04-6.97c-.22-37.76-.47-80.56 27.83-108.91 26.61-26.65 70.05-34.08 105.64-18.07 20.7 9.31 37.14 26.52 46.27 48.46a3 3 0 005.54-2.31c-9.72-23.35-27.25-41.68-49.35-51.62-37.81-17.01-84.01-9.08-112.34 19.3-30.08 30.13-29.82 74.25-29.59 113.19l.04 8.64a2.99 2.99 0 00.05.51 37.34 37.34 0 00-21.35 33.7l-.36 86.16c-.07.71-.07 1.6-.06 2.7 0 1.68.04 4.08.1 6.98.1 5.76.27 13.5.46 21.4a39.47 39.47 0 0039.7 38.75h168.93a37.35 37.35 0 0037.3-37.3V264.1a37.35 37.35 0 00-37.3-37.3zm31.3 155.98a31.34 31.34 0 01-31.3 31.3H146.15a33.5 33.5 0 01-33.7-32.89c-.57-23.5-.6-29.2-.55-30.37a3.02 3.02 0 00.05-.53l.36-86.19a31.34 31.34 0 0131.3-31.3h171.47a31.34 31.34 0 0131.3 31.3z"/><path d="M251.94 292.24a24.8 24.8 0 10-42.25 20.64 9.04 9.04 0 012.39 8.14l-9.46 47.3a5.2 5.2 0 005.1 6.23h38.46a5.84 5.84 0 005.73-6.98l-9.23-46.16a9.89 9.89 0 012.56-8.8 24.73 24.73 0 006.7-20.37zM329.66 163.49a22.72 22.72 0 1022.73 22.72 22.75 22.75 0 00-22.73-22.72zM385.1 119.29a3 3 0 00-4.23-.24l-27.06 24.2a3 3 0 004 4.48l27.06-24.2a3 3 0 00.23-4.24zM394 161.65a3 3 0 00-3.73-2.03l-13.53 4a3 3 0 101.7 5.75l13.52-4a3 3 0 002.03-3.72z"/></g></svg>